<svg width="50" height="50" viewBox="0 0 50 50" fill="none" xmlns="http://www.w3.org/2000/svg">
<path d="M25 0C38.125 0 46.875 3.4375 46.875 7.8125V12.5C48.6035 12.5 50 13.8965 50 15.625V21.875C50 23.6035 48.6035 25 46.875 25V40.625C46.875 42.3535 45.4785 43.75 43.75 43.75V46.875C43.75 48.6035 42.3535 50 40.625 50H37.5C35.7715 50 34.375 48.6035 34.375 46.875V43.75H15.625V46.875C15.625 48.6035 14.2285 50 12.5 50H9.375C7.64648 50 6.25 48.6035 6.25 46.875V43.75C4.52441 43.75 3.125 42.3535 3.125 40.625V25C1.39941 25 0 23.6035 0 21.875V15.625C0 13.8965 1.39941 12.5 3.125 12.5V7.8125C3.125 3.4375 11.875 0 25 0ZM9.375 25C9.375 26.7285 10.7715 28.125 12.5 28.125H23.4375V12.5H12.5C10.7715 12.5 9.375 13.8965 9.375 15.625V25ZM26.5625 28.125H37.5C39.2285 28.125 40.625 26.7285 40.625 25V15.625C40.625 13.8965 39.2285 12.5 37.5 12.5H26.5625V28.125ZM10.9375 39.0625C12.666 39.0625 14.0625 37.666 14.0625 35.9375C14.0625 34.209 12.666 32.8125 10.9375 32.8125C9.20898 32.8125 7.8125 34.209 7.8125 35.9375C7.8125 37.666 9.20898 39.0625 10.9375 39.0625ZM39.0625 39.0625C40.791 39.0625 42.1875 37.666 42.1875 35.9375C42.1875 34.209 40.791 32.8125 39.0625 32.8125C37.334 32.8125 35.9375 34.209 35.9375 35.9375C35.9375 37.666 37.334 39.0625 39.0625 39.0625ZM32.8125 6.25H17.1875C16.3281 6.25 15.625 6.94922 15.625 7.8125C15.625 8.67578 16.3281 9.375 17.1875 9.375H32.8125C33.6719 9.375 34.375 8.67578 34.375 7.8125C34.375 6.94922 33.6719 6.25 32.8125 6.25Z" fill="#0F1A25"/>
</svg>
