<svg width="50" height="40" viewBox="0 0 50 40" fill="none" xmlns="http://www.w3.org/2000/svg">
<path d="M45.6937 15.451L44.5229 12.524L42.4469 7.33333C40.6646 2.87812 36.4135 0 31.6146 0H18.3854C13.5875 0 9.33542 2.87812 7.55313 7.33333L5.47708 12.524L4.30625 15.451C1.79375 16.4062 0 18.8187 0 21.6667V26.6667C0 28.3458 0.641667 29.8615 1.66667 31.0344V36.6667C1.66667 38.5073 3.15937 40 5 40H8.33333C10.174 40 11.6667 38.5073 11.6667 36.6667V33.3333H38.3333V36.6667C38.3333 38.5073 39.826 40 41.6667 40H45C46.8406 40 48.3333 38.5073 48.3333 36.6667V31.0344C49.3583 29.8625 50 28.3469 50 26.6667V21.6667C50 18.8187 48.2062 16.4062 45.6937 15.451ZM13.7427 9.80937C14.5021 7.91146 16.3406 6.66667 18.3854 6.66667H31.6146C33.6594 6.66667 35.4979 7.91146 36.2573 9.80937L38.3333 15H11.6667L13.7427 9.80937ZM8.33333 26.6458C6.33333 26.6458 5 25.3167 5 23.3229C5 21.3292 6.33333 20 8.33333 20C10.3333 20 13.3333 22.9906 13.3333 24.9844C13.3333 26.9781 10.3333 26.6458 8.33333 26.6458ZM41.6667 26.6458C39.6667 26.6458 36.6667 26.9781 36.6667 24.9844C36.6667 22.9906 39.6667 20 41.6667 20C43.6667 20 45 21.3292 45 23.3229C45 25.3167 43.6667 26.6458 41.6667 26.6458Z" fill="#0F1A25"/>
</svg>
