<svg width="125" height="161" viewBox="0 0 125 161" fill="none" xmlns="http://www.w3.org/2000/svg">
<path fill-rule="evenodd" clip-rule="evenodd" d="M72.9236 0.688733C72.5647 1.12161 72.4705 2.01091 72.6636 3.152C72.8626 4.33235 72.7195 5.55151 72.24 6.74803C71.5277 8.52618 71.4695 8.55991 68.9789 8.64722C66.6412 8.72945 66.4435 8.65646 66.4435 7.71079C66.4435 7.14672 67.0671 6.13822 67.8292 5.46928C69.3808 4.10783 69.5604 3.19542 68.4893 2.12363C67.5031 1.13777 66.3552 1.21169 65.145 2.33984C63.8914 3.50772 63.8831 3.9004 65.0887 5.02347C65.7986 5.68502 66.006 6.36135 65.897 7.66228C65.6989 10.0271 64.9501 10.1131 63.9667 7.88449C62.8655 5.38751 61.2137 4.16973 58.9296 4.16973C55.7114 4.16973 52.9506 8.11687 53.1137 12.4853C53.1511 13.4966 53.2471 13.7257 53.3696 13.0965C53.6444 11.6856 54.6869 10.9529 56.3521 11.0001C58.1332 11.0509 59.8284 12.58 60.938 15.1371L61.7874 17.0959L63.4434 16.1188C66.9687 14.038 71.6672 16.1008 72.2913 20.0026L72.5758 21.7845L74.4752 21.4463C75.52 21.2601 77.0489 21.1183 77.8739 21.1308C79.5867 21.1571 81.6865 22.3596 81.6865 23.3145C81.6865 24.0819 79.2361 25.6651 76.23 26.8408C75.0392 27.3065 74.4807 27.6969 74.9888 27.7089C76.0161 27.7329 80.0024 25.696 81.7272 24.2658C82.3397 23.7576 83.4131 22.6502 84.1115 21.8048C87.3112 17.9339 83.9758 12.9907 78.9151 14.1022C77.2337 14.4714 77.157 13.9461 78.6555 12.3287C79.6167 11.2916 79.6786 11.0555 79.0758 10.7183C78.6615 10.4864 78.4347 9.86268 78.5271 9.20991C78.643 8.38759 78.9728 8.09654 79.7885 8.09654C81.4528 8.09654 82.0889 9.42704 81.0001 10.63C80.2421 11.4681 80.2292 11.56 80.9082 11.2994C81.9387 10.9035 82.4062 8.96414 81.6814 8.09054C80.8948 7.14256 79.2153 7.22987 78.2762 8.26747C77.6217 8.99093 77.5852 9.33048 78.0499 10.351C78.5377 11.4214 78.4735 11.7111 77.5252 12.7209C76.9307 13.3534 76.3127 13.8713 76.1519 13.8713C75.9912 13.8713 75.5015 13.0596 75.0637 12.0672C74.6258 11.0749 73.7588 9.92967 73.137 9.5222L72.0058 8.78119L72.8118 6.6099C73.3934 5.04287 73.925 4.36654 74.7214 4.17851C76.3219 3.80061 76.9067 2.65768 76.2438 1.20291C75.6295 -0.145598 73.8451 -0.421861 72.9236 0.688733ZM75.714 1.20569C76.5358 2.19617 75.708 3.47677 74.2456 3.47677C73.4331 3.47677 73.1001 3.18526 72.9855 2.37403C72.7384 0.628676 74.5805 -0.15992 75.714 1.20569ZM68.3068 2.81337C68.6884 3.5262 68.6736 3.94013 68.2482 4.45246C67.3918 5.48452 65.7788 5.0632 65.5949 3.75996C65.3307 1.89357 67.4236 1.16318 68.3068 2.81337ZM62.0512 6.2126C62.8711 7.08204 63.6702 8.43332 63.8263 9.21545C63.9949 10.0576 64.3981 10.6374 64.8152 10.6374C65.3377 10.6374 65.5197 11.1525 65.5197 12.6308C65.5197 14.4667 65.3876 14.6871 63.8457 15.4226C62.9251 15.8615 62.1459 16.1599 62.1135 16.0855C60.3943 12.0945 58.6113 10.5155 55.8666 10.5533C53.8185 10.5815 53.5211 10.0687 54.4902 8.18154C56.4704 4.3268 59.5231 3.53174 62.0512 6.2126ZM70.8543 9.3753C71.1212 10.0701 69.4935 15.0779 69.0556 14.9107C68.8893 14.847 68.256 14.7952 67.6481 14.7952C66.3294 14.7952 65.8753 13.4878 66.3709 11.1165C66.6135 9.95692 67.0186 9.42935 67.8445 9.19928C69.6667 8.69111 70.6131 8.74654 70.8543 9.3753ZM73.4992 10.5228C74.5126 11.6422 75.2918 13.8398 75.0013 14.7564C74.8678 15.1759 74.1214 15.8961 73.3421 16.3562C71.9924 17.1541 71.8834 17.155 71.0321 16.3844C69.9545 15.4092 69.9438 15.1574 70.8496 12.1074C71.5965 9.59196 72.2848 9.18034 73.4992 10.5228ZM40.7479 14.7481C41.5345 24.1798 44.4136 30.6628 51.0272 37.8941C53.4675 40.562 55.9673 43.4946 56.5831 44.4107L57.7023 46.0771L57.1466 54.4588L56.5909 62.8409H51.6319H46.6728L48.0077 61.4115C48.7634 60.6021 49.7463 58.6748 50.2738 56.9668C51.3048 53.6286 52.4171 45.4239 51.9076 44.9161C51.0069 44.019 47.3892 50.7144 46.1236 55.6216L45.2741 58.9141L44.5097 57.0662C42.674 52.6302 40.224 47.5748 38.3649 44.3881C36.7103 41.5516 36.4438 40.7828 36.8452 39.9993C37.1126 39.4764 37.6258 37.9056 37.9856 36.5082C38.3459 35.1107 38.8679 33.382 39.1464 32.6668C39.4249 31.9517 39.6365 31.0162 39.6171 30.5879C39.5977 30.1597 39.3321 30.641 39.0277 31.6574C38.5861 33.1293 38.2277 33.5339 37.2674 33.6467C36.1153 33.7811 36.0257 33.6268 35.2636 30.2012C34.4146 26.3839 34.6229 25.3006 36.2525 25.0548C37.2493 24.9047 38.9787 26.5424 39.3219 27.9616C39.5353 28.8426 39.5478 28.8403 39.5991 27.9084C39.6813 26.4093 38.017 24.6275 36.3107 24.3877C35.4811 24.2708 34.4548 24.0237 34.0298 23.8384C33.5259 23.6185 32.9235 23.8352 32.2977 24.4612C31.7702 24.9887 30.9641 25.4207 30.5068 25.4207C30.0495 25.4207 29.4782 25.6124 29.2366 25.8471C28.995 26.0818 28.1742 26.3414 27.412 26.4246C26.3843 26.5368 25.988 26.844 25.8785 27.6151C25.7977 28.1866 25.4489 28.6545 25.1039 28.6545C24.7588 28.6545 24.0895 29.1225 23.6161 29.694C23.1431 30.2655 22.3486 30.9635 21.8506 31.2444C20.9887 31.7309 20.2409 34.262 20.1831 36.8907C20.1309 39.2412 23.4087 41.1413 27.4448 41.1007C28.443 41.091 30.7692 41.2203 32.6145 41.389C35.5366 41.6555 36.0802 41.8518 36.829 42.913C37.7016 44.1483 41.0384 50.6012 41.0384 51.0526C41.0384 51.188 39.843 50.5015 38.3824 49.5276C36.9218 48.5533 34.3869 47.1706 32.7494 46.4545C29.0731 44.8473 21.101 42.5176 20.5079 42.8774C19.7124 43.3602 27.9437 50.6303 31.257 52.3715C34.7435 54.2037 38.9118 55.4492 41.5585 55.4492C43.268 55.4492 43.2713 55.4534 44.6334 59.0296L45.997 62.6099L40.6966 62.7406C37.1861 62.827 35.1786 62.6907 34.7527 62.3373C33.8557 61.5931 33.8945 57.8127 34.8026 57.4644C35.1837 57.3179 35.4955 56.7007 35.4955 56.0928C35.4955 55.2178 35.2516 54.9873 34.3264 54.9873C33.0247 54.9873 32.3161 56.15 33.1245 56.9585C33.767 57.6011 33.8224 60.531 33.1924 60.531C32.3258 60.531 30.2902 56.8989 30.5655 55.8447C31.1045 53.7843 29.1387 52.2902 27.7354 53.6937C26.7709 54.6583 27.1044 55.9616 28.4513 56.4905C29.1502 56.7649 30.6999 58.3061 31.8953 59.9152L34.0695 62.8409H29.0056H23.9417L25.3307 60.9237C26.0942 59.869 26.691 58.5699 26.6563 58.0363C26.594 57.0759 26.5912 57.0759 26.3995 58.0585C26.2928 58.6045 25.4905 59.8519 24.617 60.8303L23.0285 62.6099L23.1417 59.8496C23.241 57.4242 23.3953 57.0181 24.4096 56.5067C25.1995 56.1089 25.3191 55.9228 24.7888 55.9181C23.5731 55.9075 22.5624 57.2251 22.555 58.8314C22.543 61.2965 21.9061 61.7344 20.8224 60.0228L19.8723 58.5223L21.7287 55.889C23.6904 53.107 23.8022 51.7405 22.1402 50.8507C20.7236 50.0926 19.3983 51.4684 19.0556 54.0518C18.7115 56.6476 18.0168 57.1359 16.0888 56.139C12.763 54.419 9.84604 56.6023 12.3916 58.9062C13.2933 59.723 15.2564 59.7211 18.523 58.9011C19.3411 58.6955 19.7485 58.9496 20.4159 60.0792C21.4834 61.8864 21.1989 62.1913 19.3411 61.2304C17.6934 60.3781 15.5751 60.4534 15.2721 61.3746C15.1063 61.8795 15.2393 61.8823 16.0269 61.3903C16.8412 60.8816 17.2759 60.9408 18.9641 61.7885L20.9453 62.7836L13.824 62.8122C9.90747 62.8279 6.81313 62.9513 6.94801 63.0862C7.2695 63.4077 117.764 63.4091 118.085 63.0876C118.22 62.9517 116.478 62.8344 114.213 62.8261C111.381 62.8159 109.822 62.6057 109.224 62.1525C108.47 61.582 108.139 61.5838 106.743 62.1673C104.673 63.0321 104.709 63.0451 105.34 61.6601C105.904 60.4224 106.252 60.3984 110.872 61.2789C112.583 61.6046 114.155 60.0556 113.613 58.5787C113.131 57.2643 110.778 56.9271 109.302 57.961C107.501 59.2231 106.988 58.8314 108.127 57.0634C109.059 55.616 109.318 55.4797 110.556 55.7832C113.058 56.3963 116.456 56.2115 116.692 55.4492C116.866 54.8898 116.789 54.8676 116.295 55.3337C115.258 56.3122 110.564 55.8867 110.911 54.8459C111 54.5789 111.951 54.0397 113.024 53.6484C114.579 53.0816 115.157 53.0502 115.867 53.4932C116.607 53.9561 116.713 53.9344 116.494 53.3634C116.148 52.4616 113.889 52.4829 112.107 53.4045C110.224 54.3784 110.092 54.0762 111.608 52.2607L112.871 50.7468L115.78 51.3478C119.02 52.0167 120.151 51.6749 120.407 49.9485C120.732 47.7536 118.817 47.002 116.264 48.3228C114.296 49.3405 114.037 48.751 115.716 47.0722L117.134 45.6544L119.718 46.2332C122.744 46.9105 123.859 46.388 123.628 44.4015C123.513 43.4073 123.257 43.2105 122.104 43.2281C121.342 43.2401 120.224 43.4184 119.621 43.6245C117.831 44.2352 118.854 43.2036 121.542 41.6865C122.884 40.9293 124.258 39.9762 124.596 39.5697C125.416 38.5806 124.89 36.6486 123.697 36.2698C122.361 35.8457 121.453 36.765 119.958 40.0548C118.547 43.1602 117.832 43.904 117.209 42.9195C116.89 42.4159 116.804 42.452 116.799 43.0913C116.788 44.3729 116.087 44.0365 115.152 42.3009C114.679 41.4217 114.2 40.7939 114.089 40.9057C113.976 41.0175 114.435 41.9406 115.108 42.9564C115.78 43.9728 116.33 44.9776 116.33 45.1892C116.33 45.4012 115.706 46.1723 114.944 46.9026C114.182 47.633 113.558 47.9837 113.558 47.682C113.558 46.6925 112.702 47.1092 112.55 48.1731C112.415 49.1132 112.279 49.037 111.131 47.3729C109.711 45.3125 109.497 43.6771 110.594 43.2563C111.577 42.8788 111.537 42.8677 112.445 43.776C112.993 44.3244 113.176 44.371 113.028 43.9247C112.652 42.798 111.345 42.227 110.44 42.7943C109.124 43.6198 109.225 45.2243 110.749 47.6755C111.531 48.9358 112.173 50.0764 112.173 50.2099C112.173 50.6373 110.568 52.5097 110.229 52.4773C110.05 52.4602 109.611 52.8451 109.255 53.3325C108.643 54.1696 108.54 54.104 107.388 52.1369C106.717 50.9921 106.168 49.7032 106.168 49.2731C106.168 48.2304 107.465 47.7804 108.538 48.4507C109.089 48.7949 109.401 48.8175 109.401 48.5136C109.401 48.2521 108.888 47.804 108.26 47.518C107.388 47.1202 106.953 47.1359 106.413 47.5841C105.324 48.4877 105.568 50.2608 107.092 52.518C108.752 54.9785 108.764 55.1355 107.438 56.995L106.399 58.4521L106.122 56.3732L105.844 54.2943L105.775 56.5751L105.706 58.8559L104.226 57.499L102.745 56.1422L103.995 57.8437C104.682 58.7796 105.244 59.7766 105.244 60.0593C105.244 60.8955 103.048 62.8409 102.104 62.8409C101.054 62.8409 99.4285 60.0598 99.8451 58.9746C100.188 58.0807 101.577 57.9864 102.438 58.7986C102.931 59.2638 103.011 59.2476 102.849 58.7159C102.512 57.6062 101.19 57.0056 100.309 57.5614C98.695 58.5796 98.5125 59.4841 99.6193 60.9809C100.415 62.0578 100.516 62.4496 100.045 62.6302C99.7056 62.7605 96.4233 62.8095 92.7511 62.7388L86.0747 62.6099L88.1533 61.5981C89.2965 61.0415 90.7238 60.1568 91.3257 59.632C92.2407 58.8337 92.3225 58.5616 91.8273 57.9642C91.34 57.3775 91.3649 57.1207 91.9677 56.5178C93.0236 55.4617 94.3207 56.0868 94.0468 57.5198C93.9272 58.1444 94.0075 58.5454 94.2246 58.411C94.8611 58.0174 94.6791 56.0734 93.9493 55.4677C93.189 54.8366 91.4264 55.2307 91.309 56.0577C91.2665 56.3584 91.2148 57.214 91.1936 57.9592C91.1649 58.9903 90.7815 59.534 89.5903 60.2339L88.0249 61.1528L88.2355 59.7188C88.3948 58.6318 88.2512 58.2336 87.6415 58.0742C87.1805 57.9536 86.9043 58.088 86.9943 58.3888C87.7625 60.9445 87.69 61.3551 86.4174 61.6587C85.7208 61.825 84.7873 62.0689 84.3425 62.201C82.9762 62.6071 83.3827 61.2207 86.319 55.4599L89.1039 49.9965L93.3632 49.8242C96.2053 49.7092 98.0067 49.8468 98.7772 50.2377C100.605 51.1653 102.011 50.9976 102.011 49.8514C102.011 49.0536 102.226 48.915 103.184 49.098C103.925 49.2398 104.293 49.1322 104.185 48.8055C103.831 47.7444 102.278 47.9601 101.283 49.2088C100.403 50.3125 100.157 50.397 99.2451 49.9087L98.2081 49.3534L99.6756 48.0128C100.483 47.275 101.495 46.6652 101.924 46.6578C102.638 46.6449 102.635 46.6037 101.895 46.1727C100.878 45.5805 100.844 44.092 101.838 43.7104C102.251 43.5515 102.909 43.6854 103.299 44.0074C103.885 44.4916 103.969 44.4726 103.782 43.8998C103.446 42.8737 101.476 42.7425 100.776 43.6998C100.45 44.146 100.3 44.9776 100.443 45.5481C100.65 46.3728 100.343 46.8301 98.9403 47.7832C97.9703 48.4424 96.8095 48.9815 96.3605 48.9815C95.4214 48.9815 95.2584 47.6039 96.0981 46.7641C96.5291 46.333 96.5291 46.2097 96.0981 46.2097C95.4173 46.2097 95.3632 44.9901 96.0261 44.5803C96.2912 44.4163 96.8155 44.5373 97.1915 44.8492C97.7545 45.3167 97.8234 45.2834 97.5836 44.6579C97.2557 43.8028 95.9753 43.6531 95.2441 44.3844C94.9715 44.657 94.8561 45.8674 94.9799 47.1563L95.1993 49.4435H92.6001C91.1705 49.4435 90.0009 49.2874 90.0009 49.097C90.0009 48.4239 95.9706 40.805 97.7758 39.1738C98.9024 38.156 99.4405 37.3563 99.1763 37.0921C98.5555 36.4712 99.2022 35.1222 100.12 35.1222C100.55 35.1222 101.177 35.3823 101.514 35.6997C102.007 36.1649 102.087 36.1487 101.925 35.617C101.272 33.4665 98.6636 33.9848 98.3892 36.3197C98.2959 37.1152 97.2557 38.7769 95.8159 40.4308C92.6467 44.0707 90.1538 47.5222 87.7195 51.6379C86.6299 53.4803 85.5513 54.9873 85.3222 54.9873C84.7476 54.9873 83.0759 52.1623 83.0741 51.187C83.0732 50.7352 83.8229 49.9933 84.8044 49.4749C85.7573 48.9718 86.277 48.5514 85.9592 48.5399C85.1448 48.5113 85.2358 46.6717 86.0516 46.6717C86.4202 46.6717 86.9477 47.0352 87.2234 47.4801C87.69 48.2313 87.7158 48.2267 87.593 47.4141C87.52 46.9331 87.114 46.3215 86.6909 46.0549C85.5827 45.3573 84.3157 46.504 84.6635 47.8894C84.8543 48.6498 84.6672 49.0841 83.9933 49.4449C82.7988 50.0843 82.3969 49.2024 82.7355 46.6804C82.9073 45.3984 82.7919 44.815 82.3313 44.638C81.4214 44.2892 81.5304 43.0918 82.5198 42.5624C83.4381 42.0708 84.1661 42.3762 84.6076 43.4378C84.7721 43.8333 84.8511 43.6346 84.7924 42.9758C84.5947 40.7662 81.2246 41.3871 81.2246 43.6328C81.2246 44.1862 81.4108 44.8367 81.638 45.0778C81.8653 45.3195 82.135 46.9197 82.2376 48.6351C82.4376 51.9927 81.9604 52.5628 80.2486 51.0129C79.7987 50.6059 79.1816 50.3555 78.8776 50.4571C78.5737 50.5583 79.3723 51.1385 80.6528 51.7465C81.9332 52.3544 83.5166 53.5237 84.1716 54.3451L85.3629 55.8378L83.7674 59.3395C82.2981 62.5637 82.0625 62.8409 80.7904 62.8409C78.4384 62.8409 77.4379 59.0083 79.4426 57.6764C80.4126 57.0324 80.4056 57.02 79.0961 57.0431C78.0633 57.0611 77.7603 56.8578 77.7603 56.1487C77.7603 54.9351 79.3705 54.6459 80.1548 55.7181C80.6615 56.4115 80.7627 56.4291 80.7627 55.8253C80.7627 54.7831 79.6001 53.9681 78.3631 54.1432C77.5792 54.2546 77.2582 54.644 77.1469 55.6211C77.0633 56.3505 77.2194 57.1719 77.4933 57.4459C78.249 58.2017 78.134 61.9169 77.3547 61.9169C76.4101 61.9169 75.4978 60.6081 75.4729 59.2162C75.4549 58.222 75.2322 57.9901 74.296 57.9901C73.3934 57.9901 73.1107 58.2548 73.0008 59.2014C72.9121 59.9646 73.1232 60.5139 73.5712 60.6857C74.1689 60.9154 74.1934 60.816 73.7232 60.0635C73.3056 59.3941 73.2968 59.0356 73.6899 58.6424C74.4881 57.8441 75.3329 58.6304 75.0193 59.8801C74.8202 60.6747 75.0008 61.1366 75.6748 61.558C76.1866 61.8776 76.6055 62.2971 76.6055 62.4902C76.6055 62.6829 74.319 62.8409 71.5245 62.8409C66.6777 62.8409 66.0033 62.6718 66.7899 61.6531C66.9802 61.4064 66.7913 61.5727 66.3696 62.0227C65.8107 62.6187 64.8933 62.8409 62.9912 62.8409H60.3795L61.4345 60.9634C62.0147 59.9309 63.8097 57.706 65.4227 56.0193C69.4556 51.8033 73.155 45.1005 74.1241 40.2539C74.3075 39.3378 74.6096 38.9673 75.0396 39.1327C75.5408 39.3248 75.6817 38.8097 75.6817 36.7886C75.6817 35.3638 75.5256 34.1983 75.3353 34.1987C75.1449 34.1992 74.2936 35.7459 73.4437 37.6363C71.4256 42.1253 68.0075 47.2939 64.8263 50.6664C61.8955 53.7736 59.5328 57.177 58.4598 59.838L57.7147 61.6859L57.7027 57.2971L57.6907 52.9084L59.8788 50.2779C61.0825 48.8309 62.6724 46.4402 63.4124 44.9651C64.1524 43.4896 64.9256 42.1688 65.1316 42.0288C65.6268 41.6929 67.3534 36.6486 67.0703 36.3654C66.6236 35.9187 64.0725 37.5582 62.8517 39.0768C62.1597 39.9374 60.9204 41.8426 60.0977 43.3103C59.2751 44.778 58.5993 45.5957 58.5965 45.1273C58.585 43.3791 60.4627 35.2174 61.7482 31.4264C62.9537 27.871 63.1842 27.5107 64.1843 27.6174C64.7917 27.6821 67.2634 27.8216 69.6768 27.9269L74.065 28.1182L70.3697 27.7712C68.3373 27.5809 65.8102 27.179 64.7543 26.8782C60.2973 25.6106 55.6773 20.9257 54.2195 16.1955C53.8647 15.0442 53.5617 14.518 53.5465 15.0262C53.4666 17.6955 57.499 23.4887 60.8299 25.4909C61.7579 26.0485 62.5824 26.5516 62.6623 26.6084C62.7422 26.6657 62.1994 28.4485 61.4562 30.5708C60.713 32.6927 59.8432 35.5375 59.5241 36.8921C58.8668 39.6778 58.5573 39.572 57.7309 36.2772C56.9267 33.0706 55.5549 30.8979 51.4596 26.3447C47.0963 21.493 44.3743 17.7477 42.4796 13.9868C41.6795 12.3989 40.8943 11.0994 40.7345 11.0994C40.5746 11.0994 40.5806 12.7413 40.7479 14.7481ZM83.1771 15.3316C85.1495 16.3419 85.3268 19.4908 83.5328 21.6436L82.6381 22.7172L80.984 21.4551C79.1857 20.0835 76.205 19.779 74.3408 20.7769C73.4876 21.2338 73.3052 21.1474 72.9061 20.0964C72.1933 18.2222 72.3402 17.7066 73.9052 16.5923C76.5556 14.7051 80.8214 14.1249 83.1771 15.3316ZM43.2366 19.6797C44.9563 23.9054 47.1878 27.2016 51.1067 31.3026C52.988 33.2715 54.8865 35.8378 55.7299 37.5513C57.9526 42.0667 58.3152 46.6218 56.171 43.0913C55.7466 42.3924 53.5395 39.7947 51.266 37.318C46.3716 31.9863 45.1942 30.0931 43.3881 24.6547C42.1151 20.8217 41.0527 15.6457 41.6523 16.1996C41.8005 16.3368 42.5137 17.9029 43.2366 19.6797ZM45.7111 20.2234C47.3241 22.4469 50.0844 25.8217 51.8452 27.7237C55.0856 31.2241 56.8034 34.2246 57.5891 37.756C58.2252 40.6151 57.7106 40.5274 56.2828 37.5328C55.5895 36.0799 53.5211 33.2281 51.6859 31.1954C47.5841 26.6523 45.9397 24.3221 44.421 20.9035C42.9165 17.5158 42.4056 16.1811 42.6126 16.1811C42.7036 16.1811 44.0981 18.0004 45.7111 20.2234ZM34.5647 25.0742C34.5606 25.3921 34.3689 25.9501 34.1379 26.3151C33.7901 26.8648 33.5938 26.8745 32.9901 26.3738C31.8842 25.4558 32.1023 24.4967 33.4169 24.4967C34.052 24.4967 34.5684 24.7568 34.5647 25.0742ZM32.7134 26.796C34.0067 28.0895 35.0336 30.7732 35.0336 32.8599C35.0336 34.3849 34.8636 34.6852 33.8571 34.9379C33.2104 35.1005 32.6261 35.1564 32.5591 35.0622C32.4921 34.9684 31.7434 33.7857 30.8953 32.434C30.0338 31.0614 29.2186 30.1952 29.0477 30.472C28.5881 31.2157 26.0757 28.4078 26.4138 27.5273C26.7303 26.7022 27.9021 26.5664 28.3566 27.3023C28.5483 27.6128 28.9146 27.4395 29.334 26.8404C30.1793 25.6332 31.5332 25.6156 32.7134 26.796ZM28.6033 28.9239C28.6255 29.4621 28.7349 29.5716 28.8823 29.2034C29.0158 28.8698 28.9992 28.4711 28.8458 28.3178C28.6924 28.1644 28.5834 28.4369 28.6033 28.9239ZM28.4416 31.3109C29.5618 32.5176 30.8777 34.0546 31.366 34.7254L32.2533 35.9455L31.093 36.7059C30.0177 37.4109 29.8167 37.4109 28.3368 36.7087C26.364 35.7722 23.4858 32.6571 23.4858 31.4583C23.4858 30.38 24.6651 29.1165 25.6706 29.1165C26.0743 29.1165 27.321 30.1042 28.4416 31.3109ZM23.429 32.6409C24.1172 34.1521 23.9371 34.347 22.3952 33.7608C21.0538 33.2508 20.8926 32.8188 21.7305 31.9808C22.5347 31.1765 22.8105 31.2837 23.429 32.6409ZM0.654016 34.4621C-0.916018 36.0328 0.342689 37.8622 4.40889 39.9185C6.25006 40.8494 6.67317 40.8646 5.93319 39.973C5.61678 39.5919 5.00244 39.28 4.56778 39.28C4.13313 39.28 2.96357 38.569 1.96861 37.6996C0.434609 36.3599 0.238759 35.9907 0.681731 35.2742C0.96904 34.8095 1.63419 34.4445 2.15984 34.4634C2.6855 34.4824 3.00976 34.3262 2.88043 34.117C2.50535 33.5099 1.44157 33.6749 0.654016 34.4621ZM37.5778 34.6663C38.0937 35.5015 36.4576 40.1508 35.4599 40.6849C34.3545 41.2767 29.6352 40.8115 29.1738 40.0649C28.7922 39.4473 32.3425 36.3442 34.8026 35.1449C36.9754 34.086 37.1958 34.0481 37.5778 34.6663ZM26.03 36.2601C29.3516 38.2604 29.2061 38.0858 28.559 39.2948C28.0809 40.1883 27.7331 40.2857 25.7154 40.0917C22.9394 39.8252 21.0012 38.5067 20.7929 36.7438C20.4945 34.2191 22.356 34.0472 26.03 36.2601ZM8.33513 36.6006C8.03027 36.9055 7.78083 38.175 7.78083 39.4218C7.78083 41.2808 7.65196 41.6393 7.06395 41.4134C6.59557 41.2337 6.46162 41.3243 6.67779 41.6735C6.89581 42.0265 6.7577 42.1124 6.2727 41.9267C4.7447 41.34 2.33445 41.06 2.09841 41.4416C1.96353 41.6601 2.62915 41.8588 3.57791 41.8837C5.82049 41.9424 7.77252 42.9162 6.7711 43.4766C6.38817 43.691 5.21492 44.0037 4.16315 44.1719C2.44253 44.4472 2.20696 44.3678 1.81203 43.3805C1.57045 42.7767 1.35935 42.5259 1.34319 42.8225C1.23002 44.9138 2.88227 45.337 6.42836 44.1243C7.85751 43.6355 8.72821 42.9745 9.31807 41.9299C9.78275 41.1076 9.89685 40.6951 9.57212 41.0124C8.55638 42.0061 8.24275 41.6578 8.24275 39.5373C8.24275 37.9398 8.47047 37.3249 9.26957 36.7655C9.98646 36.2628 10.0839 36.0462 9.59291 36.0462C9.20583 36.0462 8.63999 36.2956 8.33513 36.6006ZM124.538 38.1251C124.621 38.7358 124.151 39.3927 123.153 40.0631C119.882 42.2584 119.354 41.9452 120.973 38.7714C121.771 37.2062 122.117 36.9359 123.167 37.0574C124.003 37.1535 124.454 37.5056 124.538 38.1251ZM65.8818 38.9335C65.5996 39.7591 65.2365 40.5389 65.0758 40.666C64.915 40.793 64.2254 42.0528 63.5436 43.4655C61.7338 47.2154 58.4136 51.7294 58.2164 50.708C57.778 48.4387 61.2747 41.188 63.9321 38.8545C66.007 37.032 66.5252 37.0533 65.8818 38.9335ZM114.328 38.6642C113.635 39.3567 114.086 39.7097 114.972 39.1682C115.785 38.6721 116.022 38.7183 116.589 39.4838C116.954 39.9771 117.254 40.1744 117.254 39.9226C117.254 38.7691 115.135 37.8576 114.328 38.6642ZM73.0737 41.6731C71.3896 47.3448 68.8214 51.7502 64.8684 55.7486C63.5755 57.0564 61.8937 59.1834 61.1315 60.4746C59.591 63.0853 57.9041 63.8078 58.5739 61.5704C59.7204 57.7402 61.2539 55.3397 65.2892 51.0604C66.7271 49.5359 69.1674 46.2614 70.712 43.7843C72.2571 41.3072 73.5805 39.28 73.6525 39.28C73.725 39.28 73.4645 40.3569 73.0737 41.6731ZM74.6036 42.4764C74.4336 44.1054 74.3814 45.525 74.4881 45.6318C74.7736 45.9173 75.3528 40.8341 75.1158 40.1227C75.0045 39.7887 74.774 40.8475 74.6036 42.4764ZM12.4923 41.2203C12.1875 41.5252 11.9348 42.7208 11.9311 43.8767C11.9209 46.8001 11.4299 47.4713 9.83264 46.7437C9.1467 46.431 8.50142 46.2587 8.39933 46.3612C8.29679 46.4638 8.84323 46.8084 9.6137 47.1276C11.2793 47.8174 11.393 48.3103 9.97491 48.6905C7.97992 49.225 5.45327 49.0107 5.17427 48.2826C4.83107 47.3882 5.71425 46.321 7.00621 46.0692C7.89308 45.8965 7.87275 45.866 6.83392 45.8105C4.44122 45.683 3.57837 48.5598 5.71748 49.5345C6.65932 49.9637 7.47459 49.8944 9.90147 49.1779C12.4083 48.4383 13.0826 48.0165 13.9044 46.6717C14.8555 45.1153 14.8573 45.0848 13.9561 45.8632C13.4415 46.3081 12.8803 46.6717 12.7099 46.6717C12.1616 46.6717 12.3801 41.7946 12.9542 41.2203C13.2591 40.9154 13.4046 40.666 13.2776 40.666C13.1505 40.666 12.7972 40.9154 12.4923 41.2203ZM14.97 44.2264C14.7197 44.8847 14.7723 44.9379 15.2287 44.4851C15.5446 44.1714 15.6864 43.7986 15.5442 43.6568C15.4019 43.5145 15.1437 43.7709 14.97 44.2264ZM123.175 44.7083C123.309 45.6493 123.134 45.7472 121.328 45.7408C120.23 45.7366 119.025 45.5389 118.649 45.301C118.105 44.9577 118.295 44.7235 119.572 44.1622C121.72 43.2188 122.991 43.4115 123.175 44.7083ZM32.3563 46.9267C34.3139 47.7818 36.7043 48.9862 37.6683 49.6029C39.5122 50.7828 42.2652 53.4706 41.9285 53.763C41.6888 53.9714 24.9745 45.1116 24.2613 44.3983C23.5163 43.6531 28.2444 45.13 32.3563 46.9267ZM32.4118 49.559C38.9649 53.0622 40.9844 54.3345 40.1732 54.4495C38.4471 54.6934 32.9074 52.7065 30.032 50.8119C27.2439 48.9746 22.5366 44.8792 23.1735 44.8445C23.3828 44.833 27.54 46.9544 32.4118 49.559ZM16.359 46.0115C15.8915 46.4795 15.6333 47.5651 15.6333 49.0638C15.6333 50.9768 15.5058 51.3413 14.9164 51.115C14.5053 50.9574 14.3201 51.035 14.4818 51.2965C14.8716 51.928 14.2305 51.8694 11.9547 51.0665C10.5551 50.5726 9.75966 50.5121 9.12499 50.8516C7.894 51.5104 7.99793 53.4198 9.31207 54.2809C10.2673 54.9069 10.6669 54.9069 13.0739 54.28C15.5793 53.6272 15.8305 53.6355 16.6892 54.3982C17.5867 55.1961 17.5955 55.1915 17.0107 54.2384C16.4948 53.3981 16.5405 53.0691 17.3313 51.9285C18.6893 49.9697 19.0903 49.0148 17.9387 50.483C17.3904 51.1815 16.7516 51.7534 16.5188 51.7534C16.2855 51.7534 16.0952 50.6354 16.0952 49.2689C16.0952 46.6361 16.8625 45.4114 18.1918 45.9219C18.6076 46.0813 18.7946 46.005 18.6325 45.7426C18.2145 45.0658 17.1826 45.1878 16.359 46.0115ZM73.2945 49.0804C72.877 50.6775 72.6077 52.0588 72.6954 52.1493C72.9453 52.4076 74.386 47.1729 74.2105 46.6458C74.1241 46.3875 73.7121 47.4834 73.2945 49.0804ZM48.6438 53.8998C47.7139 57.1659 46.7656 60.0357 46.5361 60.2769C45.8464 61.0031 46.0557 57.2195 46.8562 54.4939C47.6058 51.941 49.8124 47.4395 50.1491 47.7762C50.2507 47.8779 49.5736 50.6336 48.6438 53.8998ZM77.3755 47.9038C76.9187 48.3606 77.0023 50.3675 77.4781 50.3675C77.7039 50.3675 77.8596 50.0039 77.8245 49.559C77.7765 48.9552 78.0753 48.7718 79.0037 48.8337C79.9119 48.8947 80.1788 48.739 79.9936 48.2562C79.7359 47.5845 77.9367 47.342 77.3755 47.9038ZM119.938 50.0524C119.761 51.29 118.48 51.5331 115.857 50.8267C113.676 50.2391 113.758 49.9896 116.484 48.9169C118.762 48.0202 120.161 48.4803 119.938 50.0524ZM50.5722 53.4387C49.8747 56.7848 48.1518 60.993 47.4793 60.993C47.1287 60.993 47.8488 57.9143 48.8835 54.9873C49.108 54.352 49.6567 52.585 50.1029 51.0604C51.1579 47.4575 51.4794 49.0878 50.5722 53.4387ZM13.097 52.0158C15.2984 52.9361 14.7169 53.6475 11.5112 53.9557C9.64926 54.1344 9.12407 54.0287 8.89404 53.4285C8.09724 51.352 9.98784 50.7167 13.097 52.0158ZM22.6747 52.2219C23.2059 53.07 20.925 56.8352 19.8801 56.8352C19.3392 56.8352 19.2713 56.3709 19.5277 54.4361C19.7027 53.1172 19.9568 51.8578 20.0926 51.6379C20.4635 51.0378 22.1758 51.4249 22.6747 52.2219ZM102.736 52.9412C101.94 53.7381 101.769 55.2455 102.43 55.6534C102.66 55.7962 102.749 55.5338 102.628 55.0713C102.298 53.8078 103.697 52.8164 104.819 53.5177C105.801 54.1303 106.02 53.6378 105.152 52.7698C104.399 52.0167 103.604 52.0731 102.736 52.9412ZM71.1559 54.7664C70.603 55.9043 70.2478 56.8352 70.3665 56.8352C70.6792 56.8352 72.5458 53.0825 72.3365 52.8737C72.24 52.7767 71.7083 53.6286 71.1559 54.7664ZM29.9941 54.3442C30.5179 54.9757 30.4777 55.1845 29.7253 55.7347C28.9645 56.291 28.7465 56.2891 28.1783 55.7204C27.4157 54.9577 27.7668 53.6013 28.7266 53.6013C29.0846 53.6013 29.6551 53.9358 29.9941 54.3442ZM35.0336 56.1422C35.0336 56.527 34.6229 56.8352 34.1097 56.8352C33.5965 56.8352 33.1859 56.527 33.1859 56.1422C33.1859 55.7574 33.5965 55.4492 34.1097 55.4492C34.6229 55.4492 35.0336 55.7574 35.0336 56.1422ZM87.3449 55.75C87.0276 55.8812 86.7675 56.3242 86.7675 56.7349C86.7675 57.3161 86.8909 57.3586 87.3218 56.9276C88.132 56.1172 88.5898 56.2434 89.0845 57.4126C89.4868 58.3629 89.515 58.3334 89.4161 57.0703C89.3099 55.7139 88.5718 55.2432 87.3449 55.75ZM16.3105 56.9257C18.7937 58.1324 18.3493 58.6655 14.8522 58.6761C12.2835 58.6835 11.708 58.2876 12.1704 56.831C12.5477 55.6409 13.7219 55.6677 16.3105 56.9257ZM112.865 59.1451C112.865 60.1637 112.645 60.3162 111.001 60.4372C109.976 60.5125 108.668 60.4007 108.094 60.1887C107.116 59.8265 107.173 59.7396 109.034 58.7778C111.566 57.4699 112.865 57.5947 112.865 59.1451ZM109.063 62.682C108.751 62.8085 108.127 62.8164 107.678 62.699C107.228 62.5817 107.484 62.4782 108.246 62.469C109.009 62.4597 109.376 62.5554 109.063 62.682ZM23.7754 112.156L40.4633 112.284L40.7506 113.722C41.3072 116.503 41.0763 116.723 39.5243 114.888C38.2983 113.438 37.7708 113.143 36.6442 113.271C35.4705 113.404 35.2433 113.648 35.1218 114.903C34.9633 116.54 35.8003 117.186 39.5192 118.295C41.3409 118.839 41.4832 119.004 41.7687 120.908C41.9363 122.026 41.9571 123.057 41.8153 123.199C41.6735 123.341 40.8994 122.708 40.0952 121.792C38.5977 120.085 37.0655 119.665 36.0498 120.68C34.5204 122.21 35.8876 123.803 39.7681 125.011L42.4241 125.838V127.905V129.971L41.4287 129.091L40.4333 128.211L41.1557 129.366C42.2897 131.18 43.0454 135.636 42.4893 137.231C42.1613 138.172 42.1673 138.678 42.5091 138.889C42.8223 139.082 42.9031 140.302 42.7322 142.248C42.5613 144.192 42.6126 144.968 42.8731 144.38C43.0985 143.872 43.2976 142.399 43.3156 141.108C43.3332 139.816 43.4925 138.614 43.6694 138.438C43.8459 138.261 44.0307 137.843 44.0796 137.509C44.2228 136.534 46.549 133.061 47.0589 133.061C47.3153 133.061 47.7666 133.633 48.0613 134.332C48.3564 135.03 49.5403 136.591 50.6923 137.799C52.6702 139.873 52.7811 140.128 52.6836 142.366C52.6268 143.67 52.1487 147.463 51.6208 150.795C51.0928 154.127 50.5417 157.786 50.3962 158.927L50.1316 161L51.3173 159.621C52.03 158.793 52.3141 158.126 52.0291 157.949C50.9838 157.303 54.6671 150.155 56.0445 150.155C56.3747 150.155 56.7641 149.843 56.9106 149.462C57.5448 147.809 55.1738 149.317 53.4957 151.634C51.8416 153.917 51.8494 154.037 53.0555 144.611C54.068 136.698 54.2112 133.061 53.51 133.061C53.2559 133.061 53.0481 132.723 53.0481 132.309C53.0481 130.398 47.0954 118.231 46.1952 118.303C46.0266 118.316 45.3439 119.407 44.6787 120.728C44.0131 122.048 43.2856 123.079 43.062 123.019C42.3664 122.832 42.2856 118.279 42.9775 118.271C43.4505 118.266 43.4445 118.179 42.9493 117.865C42.4412 117.543 42.5562 117.062 43.5461 115.373C44.8898 113.08 45.8958 112.436 46.8709 113.245C48.0216 114.2 47.5698 115.411 45.6626 116.483C43.5313 117.681 43.4865 118.246 45.6104 117.148C47.5984 116.119 48.635 114.444 48.0077 113.273C47.5439 112.406 47.6839 112.362 50.9898 112.349L54.4587 112.336L54.3641 117.341C54.2915 121.167 54.4352 122.602 54.9729 123.431C56.9295 126.445 61.532 144.643 60.5634 145.535C60.4252 145.662 60.2252 145.524 60.1195 145.229C59.737 144.163 56.2205 139.529 55.7941 139.529C54.3396 139.529 56.5567 144.59 59.1929 147.287C60.9236 149.057 61.1297 149.503 61.1144 151.445C61.1042 152.732 60.6811 154.454 60.0783 155.663C59.518 156.787 59.1541 157.801 59.2695 157.917C59.3855 158.033 59.7074 157.633 59.9846 157.028C60.2788 156.388 62.0193 155.078 64.1579 153.887C66.1756 152.764 68.9309 150.749 70.2815 149.409C72.865 146.845 74.7191 143.956 74.1472 143.384C73.646 142.883 68.9821 145.305 65.9377 147.647C64.4762 148.772 63.1986 149.693 63.0983 149.693C62.9981 149.693 63.2822 148.289 63.7293 146.574C64.1764 144.859 64.5547 142.902 64.569 142.224C64.5838 141.547 64.788 140.923 65.0231 140.838C66.2938 140.38 66.7165 123.541 65.679 114.711L65.3889 112.243L71.1129 112.373L76.8365 112.503L76.6702 116.661C76.5787 118.948 76.424 120.905 76.3265 121.009C75.9325 121.43 74.2571 119.416 73.8936 118.085C73.6123 117.055 73.6895 116.447 74.1722 115.887C75.0683 114.847 74.7403 113.459 73.5578 113.29C72.198 113.094 71.173 114.417 71.8986 115.43C72.5199 116.296 73.0941 117.551 73.5726 119.087C73.8345 119.927 73.7186 120.126 72.9684 120.126C72.4585 120.126 71.906 119.908 71.7416 119.641C71.5333 119.305 71.2626 119.306 70.852 119.647C70.4233 120.003 70.0944 119.936 69.6524 119.404C69.1457 118.793 69.1544 118.599 69.7064 118.248C70.0713 118.016 70.6404 117.925 70.9711 118.047C71.3018 118.168 71.4455 118.062 71.2903 117.811C70.839 117.081 69.2131 117.284 68.8958 118.11C68.3706 119.479 69.396 120.31 71.7933 120.456C73.0428 120.532 74.6368 120.826 75.3353 121.109C76.4291 121.553 76.6055 121.886 76.6055 123.507C76.6055 126.811 75.6022 136.049 75.1962 136.48C74.968 136.722 74.3209 136.577 73.6424 136.133L72.4797 135.371L73.4119 133.79C74.2761 132.326 74.2872 132.179 73.5624 131.773C72.6488 131.262 73.1398 130.102 74.1116 130.474C74.4673 130.611 74.7579 130.543 74.7579 130.325C74.7579 129.596 73.4733 129.421 72.6345 130.034C71.8428 130.613 71.8423 130.694 72.6201 131.882C73.2603 132.858 73.3167 133.265 72.8844 133.785C72.0626 134.776 71.6681 134.6 71.1078 132.993C70.3891 130.931 70.4773 129.791 71.409 129.093C72.155 128.535 72.1434 128.506 71.2612 128.728C69.9443 129.058 68.8819 127.782 69.6768 126.825C70.5069 125.824 71.4903 125.973 71.9721 127.171C72.2284 127.809 72.4012 127.934 72.4192 127.495C72.4899 125.759 69.6251 124.949 68.8237 126.478C68.371 127.342 68.8297 129.073 69.6445 129.577C69.9161 129.744 70.1434 130.338 70.1489 130.894C70.1683 132.841 71.8986 135.813 73.5957 136.814C74.6849 137.457 75.1768 138.046 75.0396 138.544C74.2793 141.297 74.2405 141.627 74.7759 140.769C75.381 139.8 76.6013 132.728 76.6037 130.174C76.6055 128.437 77.2046 127.853 77.6891 129.116C77.8314 129.487 79.0185 130.333 80.3267 130.996C82.5923 132.144 82.6916 132.271 82.4131 133.671C82.2524 134.479 82.1138 135.504 82.1059 135.949C82.0875 136.96 82.0427 136.958 79.8204 135.824C77.2605 134.518 77.2725 132.7 79.8389 133.045C80.3622 133.116 80.4024 133.006 80.0033 132.595C78.8402 131.397 76.6032 133.034 77.2171 134.633C77.3801 135.059 78.6088 135.913 79.9465 136.532L82.3794 137.657L82.6399 141.481L82.9 145.304L82.9863 141.531L83.0723 137.758L85.0354 137.032C86.6798 136.424 86.7546 136.349 85.4973 136.568C83.6275 136.895 83.578 136.316 85.3097 134.378C86.8752 132.625 88.4013 132.788 88.042 134.67C87.9223 135.295 88.0027 135.696 88.2198 135.561C88.7962 135.205 88.7029 133.796 88.0609 133.154C87.0881 132.181 85.9721 132.552 84.5185 134.332L83.1032 136.064L83.088 134.188C83.0723 132.323 83.0861 132.309 85.355 131.727C86.6105 131.405 87.8784 130.852 88.1727 130.497C88.63 129.946 88.5163 129.944 87.3911 130.485C83.8141 132.207 83.0912 131.771 85.3541 129.258C86.5842 127.891 86.8073 127.806 87.714 128.361C88.5464 128.87 88.6817 128.87 88.5136 128.361C88.1556 127.274 86.4719 127.437 84.9642 128.706C84.1563 129.386 83.4293 129.865 83.3494 129.769C83.269 129.674 83.2977 128.84 83.4131 127.916C83.6076 126.361 83.761 126.214 85.4747 125.94C87.7477 125.576 90.0032 124.455 89.994 123.694C89.9884 123.276 89.8882 123.285 89.606 123.729C89.2023 124.366 84.9204 125.825 84.5485 125.452C84.2275 125.131 86.744 121.954 87.5703 121.637C87.9583 121.488 88.7159 121.64 89.2535 121.975C90.1427 122.529 90.1741 122.515 89.5981 121.817C88.6304 120.646 87.6692 120.885 85.7153 122.782L83.9309 124.515L83.1554 123.526C82.7286 122.982 82.0251 121.891 81.5928 121.101C81.0394 120.091 80.4906 119.683 79.7451 119.727C78.7751 119.785 78.7663 119.806 79.6416 119.98C80.4195 120.133 82.6103 123.49 82.6103 124.527C82.6103 125.083 81.281 124.638 79.6703 123.544C78.2725 122.594 77.9455 122.112 78.1104 121.248C78.2254 120.646 78.1335 120.269 77.9058 120.41C77.6707 120.555 77.5501 118.907 77.6263 116.585L77.7603 112.503L97.5984 112.374C108.509 112.302 117.534 112.146 117.653 112.027C117.772 111.908 92.9437 111.86 62.4789 111.92C32.0136 111.98 14.5972 112.087 23.7754 112.156ZM43.6177 114.232C42.9756 115.309 42.2648 116.252 42.0384 116.328C41.5756 116.482 40.94 113.267 41.3142 112.662C41.4463 112.448 42.2819 112.272 43.1706 112.272H44.7859L43.6177 114.232ZM64.5178 114.116C64.6023 115.003 64.8305 115.835 65.0259 115.964C65.2213 116.093 65.5197 118.538 65.6892 121.397C65.9358 125.545 65.8753 126.594 65.3894 126.594C65.0185 126.594 64.5621 125.534 64.2208 123.882C63.6281 121.014 61.0206 115.416 60.1583 115.162C59.8539 115.073 59.5287 115.999 59.3541 117.453C58.4224 125.213 59.9162 132.021 63.4799 136.257C64.6078 137.598 64.6905 137.957 64.4143 140.308C63.9565 144.204 62.2008 150.817 61.817 150.089C61.635 149.744 61.3611 147.75 61.2082 145.657C60.834 140.531 58.979 132.534 56.7387 126.387C55.0925 121.871 54.8957 120.879 54.8957 117.109C54.8957 114.788 55.0412 112.743 55.219 112.565C55.3973 112.387 57.5277 112.3 59.9536 112.372L64.3649 112.503L64.5178 114.116ZM78.7612 113.505C78.1136 114.152 78.4961 115.846 79.4924 116.744C80.0643 117.26 81.3881 118.151 82.4348 118.724C84.1721 119.676 84.5522 119.72 86.804 119.238C89.1856 118.727 90.9247 117.685 90.9247 116.769C90.9247 116.527 90.5612 116.743 90.1164 117.25C89.1348 118.369 85.3818 119.4 85.3818 118.551C85.3818 117.669 88.2724 115.141 89.539 114.915C90.5968 114.726 90.5788 114.703 89.3274 114.645C88.3251 114.599 87.4946 115.038 86.2096 116.293C85.246 117.234 84.458 117.741 84.458 117.421C84.458 117.1 84.2866 116.944 84.0769 117.073C83.8677 117.203 83.2469 116.384 82.6972 115.253C81.863 113.535 81.4824 113.196 80.3839 113.196C79.6606 113.196 78.9303 113.335 78.7612 113.505ZM38.4965 114.416C39.6716 115.591 40.7303 117.355 40.437 117.648C40.0065 118.078 36.2936 116.669 35.8013 115.888C34.6733 114.1 36.9417 112.861 38.4965 114.416ZM74.1408 114.382C74.526 115.386 73.5486 116.33 72.8488 115.63C72.2575 115.038 72.6238 113.658 73.3721 113.658C73.6423 113.658 73.9879 113.984 74.1408 114.382ZM82.5221 115.853C83.0667 117.107 83.2801 118.116 83.0196 118.209C82.2265 118.49 78.9151 115.994 78.9151 115.115C78.9151 114.011 79.3109 113.658 80.5498 113.658C81.3235 113.658 81.7978 114.186 82.5221 115.853ZM63.0036 121.403C63.6281 123.2 64.2725 126.246 64.4351 128.172C64.5981 130.099 64.9085 131.676 65.1256 131.676C65.7806 131.676 65.5672 134.331 64.891 134.59C64.4245 134.769 64.0041 133.68 63.2618 130.366C62.3001 126.076 60.9024 118.522 60.901 117.608C60.8996 116.499 61.9703 118.432 63.0036 121.403ZM60.8761 121.397C61.1689 123.111 61.9329 126.873 62.5736 129.756C63.2138 132.639 63.6212 135.114 63.478 135.257C62.848 135.887 60.3694 129.086 59.8977 125.434C59.4742 122.151 59.6275 118.278 60.1814 118.278C60.2705 118.278 60.5832 119.682 60.8761 121.397ZM40.2619 122.549C41.0301 123.501 41.534 124.404 41.3816 124.557C40.9132 125.025 38.3755 124.271 37.1353 123.295C36.1639 122.531 36.0451 122.211 36.4516 121.451C37.168 120.113 38.6374 120.536 40.2619 122.549ZM45.6575 122.42C45.6575 123.335 45.3383 123.96 44.694 124.305C43.3332 125.034 43.1895 124.647 44.1064 122.724C45.0746 120.693 45.6575 120.579 45.6575 122.42ZM49.1131 128.904C50.3293 132.842 51.4342 136.584 51.5681 137.219C51.7894 138.271 51.7395 138.315 51.0078 137.71C49.9131 136.805 47.9601 132.866 47.2146 130.059C46.4058 127.011 45.8552 120.664 46.4534 121.281C46.6996 121.535 47.8964 124.965 49.1131 128.904ZM49.7505 125.328C51.8101 129.588 52.5695 132.022 52.8846 135.371C53.303 139.825 52.5432 138.488 50.1293 130.521C48.974 126.709 47.8761 123.193 47.6885 122.707C46.9019 120.663 48.4419 122.622 49.7505 125.328ZM80.117 124.524C82.6963 126.077 82.8103 126.225 82.6718 127.832C82.4043 130.936 80.8916 131.343 78.685 128.905C77.7894 127.915 77.7889 127.885 78.6522 127.253C79.3372 126.752 79.6938 126.73 80.2629 127.154C80.8112 127.562 80.7964 127.482 80.2024 126.833C79.5368 126.105 79.2255 126.053 78.2393 126.502C77.0799 127.03 77.0674 127.014 77.0674 124.967C77.0674 123.829 77.1459 122.898 77.2425 122.898C77.3386 122.898 78.6324 123.63 80.117 124.524ZM45.8843 125.201C46.2113 125.73 43.9258 129.828 43.3041 129.828C43.074 129.828 42.886 128.885 42.886 127.734C42.886 125.994 43.062 125.57 43.9253 125.222C45.3078 124.666 45.5522 124.664 45.8843 125.201ZM36.4027 127.549C35.6571 128.942 36.8198 130.449 39.1894 131.159C41.7562 131.928 42.11 131.494 39.5991 130.657C37.4179 129.93 36.5777 128.975 37.0456 127.755C37.2854 127.131 37.6808 127.008 38.7589 127.223C39.6277 127.397 40.0536 127.331 39.8795 127.049C39.3506 126.193 36.9426 126.54 36.4027 127.549ZM54.1105 129.366C54.1105 130.763 54.1968 131.335 54.3026 130.636C54.4084 129.938 54.4084 128.794 54.3026 128.095C54.1968 127.397 54.1105 127.968 54.1105 129.366ZM46.549 129.638C46.5665 129.915 46.0617 130.378 45.4265 130.667C44.4718 131.103 44.2718 131.073 44.2718 130.494C44.2718 130.11 44.6237 129.258 45.0542 128.601C45.7744 127.501 45.8644 127.475 46.1767 128.27C46.3638 128.746 46.531 129.361 46.549 129.638ZM47.0432 131.948C47.0432 132.322 46.7578 132.738 46.4086 132.872C46.0594 133.006 45.3887 133.831 44.9175 134.706C43.7692 136.839 43.3479 136.707 43.3479 134.218C43.3479 132.311 43.4713 132.089 44.8492 131.51C46.5046 130.816 47.0432 130.923 47.0432 131.948ZM36.6281 134.185C36.0553 135.06 36.0054 135.521 36.4027 136.264C36.684 136.79 37.1158 137.219 37.3634 137.219C37.623 137.219 37.5852 136.855 37.2743 136.356C36.4849 135.093 37.1011 133.987 38.599 133.978C39.5982 133.973 39.7298 133.872 39.1908 133.523C38.0854 132.809 37.4166 132.982 36.6281 134.185ZM38.7288 137.681C39.1099 137.927 39.6296 138.129 39.8836 138.129C40.1377 138.129 40.0337 137.927 39.6527 137.681C39.2716 137.435 38.7519 137.234 38.4979 137.234C38.2438 137.234 38.3478 137.435 38.7288 137.681ZM58.6363 144.063C60.1116 146.39 60.3661 147.357 59.2621 146.441C58.2302 145.584 56.9184 143.629 56.5235 142.359C56.0131 140.715 57.0376 141.542 58.6363 144.063ZM68.984 147.634C65.5478 150.781 62.2863 153.136 62.2863 152.47C62.2863 151.289 69.8612 145.053 71.257 145.084C71.5314 145.09 70.5083 146.238 68.984 147.634ZM71.3296 147.608C69.8362 149.566 65.7465 152.701 64.1339 153.123C63.1889 153.371 63.3514 153.108 65.0291 151.675C66.1566 150.712 68.2168 148.935 69.6076 147.727C70.9979 146.518 72.2349 145.63 72.3564 145.751C72.4779 145.872 72.0155 146.708 71.3296 147.608Z" fill="#EF5A4A"/>
<path d="M59.3958 70.7229C59.7751 71.1036 59.9647 71.5946 59.9647 72.1958C59.9647 72.6967 59.8549 73.2077 59.6353 73.7287L52.5692 91.7636L51.8091 91.9139L47.8568 79.3195L43.4071 91.7636L42.647 91.9139L36 70.7229H38.9757L44.0768 88.5173L47.4487 78.8386L45.1621 70.7229H48.1378L53.2389 88.5173L59.0176 73.7287C59.2372 73.2277 59.4738 72.5535 59.4738 72.015C59.3876 71.369 59.1973 71.2038 58.8978 70.9033L59.3958 70.7229Z" fill="#EF5A4A"/>
<path d="M74.8666 70.7229V71.2819H65.4351V80.6421H74.178V81.2011H65.4351V91.7636H62.5192V70.7229H74.8666Z" fill="#EF5A4A"/>
<path d="M89.9251 70.7229V71.2819H80.4935V80.6421H89.2364V81.2011H80.4935V91.7636H77.5777V70.7229H89.9251Z" fill="#EF5A4A"/>
<path d="M38.0816 97.8693C38.1957 97.9836 38.2527 98.131 38.2527 98.3115C38.2527 98.4619 38.2197 98.6154 38.1536 98.7718L36.0277 104.187L35.7563 104.232L34.5672 100.451L33.2712 104.187L32.9998 104.232L31 97.8693H31.938L33.292 103.212L34.4361 100.306L33.8426 97.8693H34.6945L36.1347 103.212L37.8733 98.7718C37.9393 98.6214 37.9723 98.4649 37.9723 98.3025C37.9723 98.14 37.9273 98.0137 37.8372 97.9234L38.0816 97.8693Z" fill="#EF5A4A"/>
<path d="M39.1325 101.985C39.1325 102.731 39.2616 103.192 39.5199 103.541C39.7841 103.89 40.1294 104.065 40.5558 104.065C41.1563 104.065 41.6908 103.975 42.1593 103.794L42.1863 103.943C41.7058 104.13 41.1623 104.223 40.5558 104.223C39.9552 104.223 39.4658 104.043 39.0875 103.682C38.7091 103.321 38.5199 102.764 38.5199 102.012C38.5199 101.26 38.7181 100.676 39.1145 100.261C39.5108 99.8458 40.0153 99.6383 40.6279 99.6383C41.1203 99.6383 41.5347 99.7857 41.871 100.081C42.2073 100.375 42.3755 100.812 42.3755 101.389C42.3755 101.419 42.3755 101.536 42.3755 101.479L39.1595 101.566C39.1415 101.728 39.1325 101.724 39.1325 101.985ZM41.7629 101.321C41.7569 100.743 41.6458 100.402 41.4296 100.126C41.2134 99.8489 40.9341 99.7105 40.5918 99.7105C40.2495 99.7105 39.9432 99.8609 39.673 100.162C39.4088 100.463 39.2406 100.878 39.1685 101.407L41.7629 101.321Z" fill="#EF5A4A"/>
<path d="M49.5627 97.8693V98.0456H46.7251V100.848H49.3555V101.024H46.7251V104.187H45.9774V97.8693H49.5627Z" fill="#EF5A4A"/>
<path d="M50.9805 104.187C50.7343 104.187 50.5451 104.133 50.413 104.025C50.2869 103.916 50.2208 103.808 50.2148 103.7L50.2058 103.546V99.6744H50.8364V103.546C50.8364 103.721 50.8694 103.856 50.9355 103.952C51.0076 104.043 51.0766 104.091 51.1427 104.097L51.2508 104.115H51.53V104.187H50.9805ZM50.2599 98.6635C50.1878 98.5913 50.1518 98.501 50.1518 98.3927C50.1518 98.2844 50.1878 98.1942 50.2599 98.122C50.3319 98.0437 50.422 98.0046 50.5301 98.0046C50.6382 98.0046 50.7283 98.0437 50.8004 98.122C50.8784 98.1942 50.9175 98.2844 50.9175 98.3927C50.9175 98.501 50.8784 98.5913 50.8004 98.6635C50.7283 98.7357 50.6382 98.7718 50.5301 98.7718C50.422 98.7718 50.3319 98.7357 50.2599 98.6635Z" fill="#EF5A4A"/>
<path d="M55.8146 104.187C55.5684 104.187 55.3792 104.133 55.2471 104.025C55.121 103.916 55.0549 103.808 55.0489 103.7L55.0399 103.546V100.712C55.0399 100.237 54.9168 100.105 54.6706 99.973C54.5445 99.9128 54.3883 99.8827 54.2022 99.8827C53.8178 99.8827 53.4725 99.95 53.1662 100.257C52.8599 100.558 52.7068 100.915 52.7068 101.155V104.187H52.0762V99.6744H52.7068V100.703C52.8089 100.445 52.9981 100.204 53.2743 99.9812C53.5506 99.7526 53.8538 99.6383 54.1841 99.6383C54.5144 99.6383 54.7817 99.6713 54.9859 99.7375C55.1961 99.7977 55.3492 99.885 55.4453 99.9993C55.5954 100.186 55.6705 100.426 55.6705 100.721V103.546C55.6705 103.721 55.7035 103.856 55.7696 103.952C55.8416 104.043 55.9137 104.091 55.9858 104.097L56.0849 104.115H56.3641V104.187H55.8146Z" fill="#EF5A4A"/>
<path d="M56.7299 102.093C56.7299 101.311 56.919 100.706 57.2974 100.279C57.6757 99.8519 58.2432 99.6383 58.9999 99.6383C59.3543 99.6383 59.7116 99.7285 60.0719 99.909V97.427H60.7025V103.546C60.7025 103.721 60.7355 103.856 60.8016 103.952C60.8736 104.043 60.9457 104.091 61.0178 104.097L61.1169 104.115H61.3961V104.187H60.8466C60.6004 104.187 60.4112 104.133 60.2791 104.025C60.153 103.916 60.0869 103.808 60.0809 103.7L60.0719 103.546V103.402C59.9578 103.612 59.7686 103.799 59.5044 103.961C59.2402 104.124 58.9279 104.205 58.5675 104.205C57.3424 104.175 56.7299 103.471 56.7299 102.093ZM58.5766 104.047C58.9789 104.047 59.3242 103.939 59.6125 103.722C59.9008 103.505 60.0539 103.292 60.0719 103.081V100.076C59.6455 99.8899 59.2792 99.7966 58.9729 99.7966C58.4384 99.7966 58.0361 99.9211 57.7658 100.342C57.4956 100.757 57.3604 101.341 57.3604 102.093C57.3604 103.453 57.7658 104.047 58.5766 104.047Z" fill="#EF5A4A"/>
<path d="M68.6611 97.8693V98.0456H65.8235V100.848H68.4539V101.024H65.8235V104.187H65.0758V97.8693H68.6611Z" fill="#EF5A4A"/>
<path d="M70.3921 104.187C69.8637 104.187 69.5303 104.049 69.3922 103.772C69.3622 103.712 69.3472 103.658 69.3472 103.609V97.427H69.9778V103.546C69.9778 103.721 70.0108 103.856 70.0768 103.952C70.1489 104.043 70.221 104.091 70.293 104.097L70.3921 104.115H70.6714V104.187H70.3921Z" fill="#EF5A4A"/>
<path d="M73.0369 104.223C72.4063 104.223 71.8928 104.043 71.4965 103.682C71.1001 103.321 70.9019 102.764 70.9019 102.012C70.9019 101.26 71.1061 100.676 71.5145 100.261C71.9289 99.8458 72.4514 99.6383 73.0819 99.6383C73.7185 99.6383 74.235 99.8188 74.6313 100.18C75.0277 100.541 75.2259 101.097 75.2259 101.85C75.2259 102.602 75.0187 103.185 74.6043 103.6C74.1959 104.016 73.6735 104.223 73.0369 104.223ZM73.0999 99.7105C72.6435 99.7105 72.2652 99.915 71.9649 100.324C71.6646 100.727 71.5145 101.293 71.5145 102.021C71.5145 102.743 71.6526 103.279 71.9289 103.628C72.2051 103.977 72.5715 104.151 73.0279 104.151C73.4843 104.151 73.8626 103.949 74.1629 103.546C74.4632 103.137 74.6133 102.572 74.6133 101.85C74.6133 101.121 74.4752 100.583 74.1989 100.234C73.9227 99.885 73.5564 99.7105 73.0999 99.7105Z" fill="#EF5A4A"/>
<path d="M81.7905 99.7285L81.9306 99.6744C81.9547 99.6864 81.9847 99.7225 82.0207 99.7827C82.0628 99.8428 82.0868 99.897 82.0928 99.9451C82.1048 99.9933 82.1108 100.038 82.1108 100.081C82.1108 100.243 82.0748 100.408 82.0027 100.577L80.3632 104.187H80.2731L78.976 100.694L77.3905 104.187H77.3004L75.6249 99.6744H76.2555L77.5476 103.411L78.8448 100.586L78.5976 99.6744H79.2282L80.5203 103.411L81.8265 100.577C81.8986 100.451 81.9346 100.3 81.9346 100.126C81.9346 99.9511 81.8865 99.8188 81.7905 99.7285Z" fill="#EF5A4A"/>
<path d="M83.2234 101.985C83.2234 102.731 83.3525 103.192 83.6107 103.541C83.875 103.89 84.2203 104.065 84.6467 104.065C85.2472 104.065 85.7817 103.975 86.2501 103.794L86.2772 103.943C85.7967 104.13 85.2532 104.223 84.6467 104.223C84.0461 104.223 83.5567 104.043 83.1783 103.682C82.8 103.321 82.6108 102.764 82.6108 102.012C82.6108 101.26 82.809 100.676 83.2054 100.261C83.6017 99.8458 84.1062 99.6383 84.7188 99.6383C85.2112 99.6383 85.6256 99.7857 85.9619 100.081C86.2982 100.375 86.4663 100.812 86.4663 101.389C86.4663 101.419 86.4753 101.536 86.4753 101.566H83.2594C83.2414 101.728 83.2234 101.81 83.2234 101.985ZM85.8538 101.407C85.8478 100.83 85.7367 100.402 85.5205 100.126C85.3043 99.8489 85.025 99.7105 84.6827 99.7105C84.3404 99.7105 84.0341 99.8609 83.7639 100.162C83.4996 100.463 83.3315 100.878 83.2594 101.407H85.8538Z" fill="#EF5A4A"/>
<path d="M88.554 100.062V99.9591C88.2837 100.067 88.0375 100.287 87.8153 100.618C87.5931 100.943 87.476 101.25 87.464 101.539V104.187H86.8334V99.6744H87.464V101.109C87.5601 100.76 87.7433 100.433 88.0135 100.126C88.2837 99.8127 88.59 99.6503 88.9323 99.6383H88.9684C89.0885 99.6383 89.1876 99.6804 89.2656 99.7646C89.3497 99.8428 89.3917 99.9421 89.3917 100.062C89.3917 100.183 89.3497 100.282 89.2656 100.36C89.1876 100.439 89.0885 100.478 88.9684 100.478C88.8482 100.478 88.7492 100.439 88.6711 100.36C88.593 100.282 88.554 100.183 88.554 100.062Z" fill="#EF5A4A"/>
<path d="M92.6132 100.076C92.5171 99.9982 92.3609 99.932 92.1447 99.8778C91.9346 99.8237 91.7754 99.7966 91.6673 99.7966C91.5592 99.7966 91.4961 99.7966 91.4781 99.7966C91.1538 99.8026 90.9196 99.8869 90.7755 100.049C90.6314 100.206 90.5593 100.297 90.5593 100.496C90.5593 100.694 90.6224 100.863 90.7485 101.001C90.8746 101.133 91.0307 101.239 91.2169 101.317C91.4091 101.389 91.6133 101.473 91.8294 101.57C92.0516 101.666 92.2558 101.765 92.442 101.868C92.6342 101.964 92.7933 102.108 92.9194 102.301C93.0456 102.487 93.1086 102.722 93.1086 103.005C93.1086 103.288 93.0095 103.528 92.8113 103.727C92.6132 103.925 92.391 104.058 92.1447 104.124C91.9045 104.19 91.6433 104.223 91.361 104.223C90.7485 104.223 90.289 104.088 89.9828 103.817L90.0368 103.677C90.1569 103.791 90.3341 103.884 90.5683 103.957C90.8085 104.029 91.0397 104.065 91.2619 104.065C91.6163 104.065 91.9075 103.969 92.1357 103.776C92.3699 103.577 92.487 103.42 92.487 103.131C92.487 102.836 92.4 102.602 92.2258 102.427C92.0517 102.247 91.8385 102.108 91.5862 102.012C91.34 101.91 91.0908 101.81 90.8385 101.714C90.5863 101.612 90.3731 101.473 90.199 101.299C90.0248 101.118 89.9377 100.911 89.9377 100.676C89.9377 100.442 89.9918 100.252 90.0999 100.108C90.208 99.9572 90.3521 99.8519 90.5323 99.7917C90.8386 99.6894 91.1448 99.6383 91.4511 99.6383C91.9676 99.6383 92.3699 99.7345 92.6582 99.9271L92.6132 100.076Z" fill="#EF5A4A"/>
</svg>
