<svg width="185" height="38" viewBox="0 0 185 38" fill="none" xmlns="http://www.w3.org/2000/svg">
<path d="M14.26 5.268C14.476 5.124 14.692 5.124 14.908 5.268C15.148 5.412 15.268 5.628 15.268 5.916C15.268 6.132 15.22 6.336 15.124 6.528C15.004 6.672 14.944 6.816 14.944 6.96C14.944 7.104 14.872 7.32 14.728 7.608C14.488 8.112 14.476 8.436 14.692 8.58C14.836 8.604 15.052 8.616 15.34 8.616C15.652 8.616 15.976 8.688 16.312 8.832C16.672 8.976 17.068 9.072 17.5 9.12C17.956 9.144 18.352 9.216 18.688 9.336C19.048 9.432 19.372 9.48 19.66 9.48C19.948 9.48 20.188 9.552 20.38 9.696C20.572 9.816 20.872 9.876 21.28 9.876C21.952 9.828 22.492 9.936 22.9 10.2C23.212 10.44 23.368 10.668 23.368 10.884C23.368 11.076 23.248 11.256 23.008 11.424C22.432 11.832 21.856 11.868 21.28 11.532C20.992 11.388 20.608 11.304 20.128 11.28C19.672 11.232 19.3 11.172 19.012 11.1C18.652 11.004 18.268 10.956 17.86 10.956C17.476 10.908 17.116 10.836 16.78 10.74C16.468 10.62 16.108 10.56 15.7 10.56C15.34 10.536 14.944 10.488 14.512 10.416C14.152 10.344 13.864 10.38 13.648 10.524C13.432 10.62 13.324 10.692 13.324 10.74C13.324 10.812 13.084 11.22 12.604 11.964C12.148 12.684 11.812 13.176 11.596 13.44C11.212 13.896 10.924 14.304 10.732 14.664C10.564 15 10.3 15.168 9.94 15.168C9.676 15.168 9.436 15.048 9.22 14.808C9.004 14.568 8.896 14.34 8.896 14.124C8.896 13.908 9.076 13.596 9.436 13.188C9.796 12.78 10.048 12.48 10.192 12.288C10.528 11.784 10.876 11.268 11.236 10.74C11.26 10.668 11.32 10.56 11.416 10.416C11.512 10.272 11.572 10.2 11.596 10.2C11.716 9.984 11.824 9.78 11.92 9.588C12.04 9.3 12.196 9 12.388 8.688C12.58 8.352 12.676 8.112 12.676 7.968C12.676 7.824 12.772 7.572 12.964 7.212C13.132 6.9 13.288 6.6 13.432 6.312C13.696 5.808 13.972 5.46 14.26 5.268ZM23.152 14.772C23.224 14.748 23.488 14.748 23.944 14.772C24.424 14.772 24.724 14.808 24.844 14.88C25.06 15 25.168 15.18 25.168 15.42C25.168 15.9 25.024 16.212 24.736 16.356C24.544 16.38 24.412 16.428 24.34 16.5C23.764 16.836 23.116 17.052 22.396 17.148C21.724 17.268 21.1 17.4 20.524 17.544C20.188 17.64 19.84 17.688 19.48 17.688C18.904 17.688 18.496 17.76 18.256 17.904C18.04 18.048 17.896 18.372 17.824 18.876C17.752 19.284 17.68 19.56 17.608 19.704C17.536 19.848 17.5 20.028 17.5 20.244C17.5 20.412 17.44 20.736 17.32 21.216C17.248 21.72 17.248 22.056 17.32 22.224C17.512 22.512 17.86 22.572 18.364 22.404C18.676 22.284 19.036 22.224 19.444 22.224C20.02 22.224 20.488 22.5 20.848 23.052C21.088 23.412 21.1 23.88 20.884 24.456C20.668 25.032 20.38 25.476 20.02 25.788C19.876 25.932 19.552 26.244 19.048 26.724C18.592 27.156 18.34 27.372 18.292 27.372C18.22 27.372 18.136 27.42 18.04 27.516C17.824 27.732 17.5 27.972 17.068 28.236C16.372 28.62 15.904 28.884 15.664 29.028C15.52 29.1 15.34 29.244 15.124 29.46C14.98 29.652 14.92 29.82 14.944 29.964C15.064 30.492 15.352 30.888 15.808 31.152C16.288 31.44 17.08 31.308 18.184 30.756C18.52 30.66 18.712 30.612 18.76 30.612C18.808 30.612 18.964 30.54 19.228 30.396C19.516 30.252 19.696 30.18 19.768 30.18C19.84 30.18 19.888 30.12 19.912 30C20.032 29.928 20.2 29.844 20.416 29.748C21.088 29.412 21.748 28.992 22.396 28.488C22.732 28.248 23.008 28.116 23.224 28.092C23.464 28.044 23.692 28.128 23.908 28.344C24.124 28.56 24.232 28.776 24.232 28.992C24.232 29.208 24.196 29.364 24.124 29.46C23.956 29.748 23.632 30.024 23.152 30.288C23.056 30.312 22.936 30.36 22.792 30.432C22.672 30.48 22.468 30.588 22.18 30.756C21.94 30.948 21.712 31.092 21.496 31.188C20.848 31.524 20.464 31.728 20.344 31.8C20.248 31.872 20.104 31.944 19.912 32.016C19.696 32.088 19.552 32.16 19.48 32.232C19.456 32.304 19.348 32.352 19.156 32.376C18.988 32.424 18.796 32.496 18.58 32.592C18.388 32.712 18.136 32.808 17.824 32.88C17.488 32.904 17.236 32.976 17.068 33.096C16.636 33.312 16.096 33.288 15.448 33.024C15.16 32.928 14.944 32.856 14.8 32.808C14.68 32.808 14.524 32.724 14.332 32.556C14.164 32.412 13.984 32.232 13.792 32.016C13.6 31.8 13.444 31.596 13.324 31.404C13.228 31.188 13 30.888 12.64 30.504C12.16 30 11.92 29.64 11.92 29.424C11.92 29.208 12.136 29.004 12.568 28.812C12.904 28.668 13.156 28.56 13.324 28.488C13.516 28.464 13.912 28.248 14.512 27.84C14.728 27.696 14.86 27.624 14.908 27.624C14.98 27.624 15.088 27.576 15.232 27.48C15.376 27.36 15.52 27.288 15.664 27.264C15.952 27.144 16.396 26.784 16.996 26.184C17.044 26.136 17.224 25.968 17.536 25.68C17.752 25.512 17.992 25.26 18.256 24.924C18.544 24.564 18.688 24.348 18.688 24.276C18.688 24.06 18.34 24.048 17.644 24.24C17.356 24.312 17.068 24.36 16.78 24.384C16.276 24.456 15.7 24.636 15.052 24.924C14.524 25.212 14.224 25.392 14.152 25.464C14.104 25.536 13.9 25.716 13.54 26.004C12.82 26.628 12.208 26.916 11.704 26.868C11.488 26.868 11.248 26.796 10.984 26.652C10.72 26.508 10.564 26.388 10.516 26.292C10.492 26.148 10.528 25.992 10.624 25.824C10.744 25.656 10.876 25.572 11.02 25.572C11.26 25.5 11.884 25.128 12.892 24.456C13.444 24.096 13.768 23.892 13.864 23.844C14.368 23.7 14.8 23.412 15.16 22.98C15.304 22.812 15.376 22.584 15.376 22.296C15.376 22.008 15.412 21.756 15.484 21.54C15.532 21.324 15.592 20.964 15.664 20.46C15.688 19.98 15.736 19.62 15.808 19.38C15.88 19.116 15.868 18.96 15.772 18.912C15.7 18.864 15.448 18.876 15.016 18.948C14.512 19.02 14.188 19.092 14.044 19.164C13.9 19.236 13.684 19.284 13.396 19.308C13.132 19.356 12.916 19.416 12.748 19.488C12.604 19.584 12.328 19.668 11.92 19.74C11.536 19.812 11.248 19.908 11.056 20.028C10.888 20.1 10.696 20.148 10.48 20.172C10.264 20.22 10 20.304 9.688 20.424C9.376 20.544 9.148 20.604 9.004 20.604C8.836 20.604 8.644 20.664 8.428 20.784C8.14 20.928 7.852 21.012 7.564 21.036C7.276 21.108 7.036 21.18 6.844 21.252C6.676 21.372 6.388 21.432 5.98 21.432C5.596 21.456 5.272 21.384 5.008 21.216C4.552 20.856 4.432 20.532 4.648 20.244C4.936 19.908 5.44 19.692 6.16 19.596C6.52 19.548 6.82 19.476 7.06 19.38C7.276 19.26 7.444 19.2 7.564 19.2C7.66 19.2 7.84 19.152 8.104 19.056C8.392 18.936 8.68 18.864 8.968 18.84C9.256 18.792 9.616 18.696 10.048 18.552C10.432 18.408 10.696 18.336 10.84 18.336C10.984 18.336 11.236 18.264 11.596 18.12C12.028 17.976 12.316 17.904 12.46 17.904C12.604 17.904 12.808 17.856 13.072 17.76C13.792 17.496 14.452 17.28 15.052 17.112C15.532 16.992 16.168 16.752 16.96 16.392C17.2 16.296 17.38 16.248 17.5 16.248C17.644 16.248 17.788 16.212 17.932 16.14C18.148 16.02 18.436 15.924 18.796 15.852C19.18 15.78 19.48 15.696 19.696 15.6C19.888 15.528 20.2 15.468 20.632 15.42C20.992 15.396 21.328 15.324 21.64 15.204C21.856 15.132 22.144 15.06 22.504 14.988C22.864 14.892 23.08 14.82 23.152 14.772ZM42.9723 6.636C43.1643 6.444 43.2963 6.348 43.3683 6.348C43.4403 6.348 43.5483 6.384 43.6923 6.456C43.8363 6.528 43.9563 6.612 44.0523 6.708C44.1723 6.804 44.2683 6.888 44.3403 6.96C44.5563 7.344 44.6403 8.472 44.5923 10.344C44.5923 10.92 44.6163 11.352 44.6642 11.64C44.7363 11.928 44.7123 12.288 44.5923 12.72C44.5203 13.152 44.4723 14.196 44.4483 15.852C44.4003 17.292 44.3523 18.156 44.3043 18.444C44.2803 18.708 44.1243 18.948 43.8362 19.164C43.3323 19.62 42.8883 19.476 42.5043 18.732L42.2883 18.408L42.3963 17.112C42.4923 16.032 42.4323 15.492 42.2163 15.492C42.1203 15.492 41.7243 15.648 41.0283 15.96C40.3803 16.32 40.0083 16.5 39.9123 16.5C39.8403 16.5 39.6603 16.56 39.3723 16.68C39.0843 16.824 38.9043 16.896 38.8323 16.896C38.7123 16.896 38.6043 16.944 38.5083 17.04C38.3643 17.16 38.0763 17.268 37.6443 17.364C37.1643 17.484 36.8163 17.484 36.6003 17.364C36.4563 17.292 36.3603 17.244 36.3123 17.22C36.2883 17.172 36.2763 17.028 36.2763 16.788C36.2763 16.356 36.4923 16.044 36.9243 15.852C37.6923 15.54 38.1123 15.348 38.1843 15.276C38.2563 15.204 38.4003 15.144 38.6163 15.096C38.8323 15.072 39.0603 14.988 39.3003 14.844C39.5163 14.7 39.6843 14.628 39.8043 14.628C39.9483 14.628 40.0923 14.568 40.2363 14.448C40.4043 14.352 40.5963 14.268 40.8123 14.196C41.0283 14.124 41.2323 14.052 41.4243 13.98C41.5683 13.86 41.6883 13.8 41.7843 13.8C41.9043 13.8 42.0723 13.716 42.2883 13.548C42.5283 13.356 42.6483 13.176 42.6483 13.008C42.6483 12.792 42.6003 12.672 42.5043 12.648C42.4323 12.6 42.2883 12.612 42.0723 12.684C41.8083 12.756 41.6043 12.852 41.4603 12.972C41.3163 13.068 41.2083 13.116 41.1363 13.116C41.1123 13.116 40.9563 13.188 40.6683 13.332C40.3803 13.476 40.1763 13.548 40.0563 13.548C39.9603 13.548 39.7803 13.62 39.5163 13.764C39.2763 13.908 39.0843 13.98 38.9403 13.98C38.8203 13.98 38.6523 14.04 38.4363 14.16C38.2203 14.256 37.8723 14.352 37.3923 14.448C36.9363 14.52 36.6243 14.544 36.4563 14.52C36.3363 14.52 36.2163 14.52 36.0963 14.52C36.0003 14.52 35.9163 14.544 35.8443 14.592C35.7723 14.64 35.7363 14.688 35.7363 14.736C35.7363 14.76 35.6523 14.904 35.4843 15.168C35.2923 15.408 35.1963 15.6 35.1963 15.744C35.1963 15.864 35.1243 16.08 34.9803 16.392C34.6203 17.4 34.4043 18.48 34.3323 19.632C34.3083 20.112 34.2003 20.46 34.0083 20.676C33.6963 21.108 33.3603 21.216 33.0003 21C32.8563 20.928 32.6643 20.748 32.4243 20.46C32.1843 20.172 32.0643 19.968 32.0643 19.848C32.0643 19.704 32.1363 19.488 32.2803 19.2C32.4243 18.912 32.4963 18.732 32.4963 18.66C32.4963 18.564 32.5563 18.42 32.6763 18.228C32.8203 17.988 32.9043 17.724 32.9283 17.436C33.0003 17.1 33.0843 16.86 33.1803 16.716C33.2763 16.548 33.3363 16.284 33.3603 15.924C33.4083 15.564 33.4803 15.288 33.5763 15.096C33.6963 14.88 33.7683 14.652 33.7923 14.412C33.8403 14.148 33.9123 13.872 34.0083 13.584C34.4163 12.264 34.6203 11.292 34.6203 10.668C34.6203 10.308 34.5483 10.056 34.4043 9.912C34.1403 9.672 33.8283 9.672 33.4683 9.912C33.3243 10.032 33.1323 10.104 32.8923 10.128C32.6043 10.176 32.3763 10.26 32.2083 10.38C32.0403 10.5 31.9203 10.56 31.8483 10.56C31.7763 10.56 31.6083 10.632 31.3443 10.776C31.1043 10.92 30.9243 10.992 30.8043 10.992C30.7083 10.992 30.6003 11.064 30.4803 11.208C30.3603 11.352 30.2643 11.424 30.1923 11.424C30.1443 11.424 30.0363 11.484 29.8683 11.604C29.7243 11.748 29.5923 11.832 29.4723 11.856C29.3763 11.904 29.3283 11.952 29.3283 12C29.3283 12.048 29.1123 12.192 28.6803 12.432C28.2723 12.672 28.0083 12.852 27.8883 12.972C27.7923 13.068 27.5523 13.116 27.1683 13.116C26.8083 13.116 26.5563 13.056 26.4123 12.936C26.0763 12.696 26.1243 12.396 26.5563 12.036C26.7723 11.82 26.9403 11.688 27.0603 11.64C27.1563 11.64 27.2523 11.604 27.3483 11.532C27.4443 11.46 27.6603 11.328 27.9963 11.136C28.3323 10.944 28.5123 10.848 28.5363 10.848C28.5843 10.848 28.6323 10.812 28.6803 10.74C28.7523 10.668 28.9323 10.524 29.2203 10.308C29.5323 10.092 29.7123 9.984 29.7603 9.984C29.8323 9.984 30.0483 9.9 30.4082 9.732C30.7923 9.54 31.0203 9.408 31.0923 9.336C31.1643 9.264 31.3083 9.204 31.5243 9.156C31.7403 9.084 31.9803 9 32.2443 8.904C32.4603 8.784 32.6043 8.724 32.6763 8.724C32.7723 8.724 32.9643 8.652 33.2523 8.508C33.5163 8.412 33.8643 8.364 34.2963 8.364C34.7523 8.364 35.1363 8.472 35.4483 8.688C35.7843 8.904 35.9763 9.084 36.0243 9.228C36.0483 9.396 36.1203 9.576 36.2402 9.768C36.4563 10.128 36.4563 10.608 36.2402 11.208C36.1203 11.472 36.0483 11.796 36.0243 12.18C36.0243 12.54 36.0603 12.756 36.1323 12.828C36.2043 12.9 36.3483 12.888 36.5643 12.792C36.7803 12.672 37.0443 12.588 37.3563 12.54C37.6923 12.492 37.9083 12.42 38.0043 12.324C38.1243 12.228 38.3283 12.156 38.6163 12.108C38.9043 12.06 39.1563 11.976 39.3723 11.856C39.5883 11.712 39.7443 11.64 39.8403 11.64C39.9123 11.64 40.0803 11.592 40.3443 11.496C40.5603 11.352 40.7043 11.28 40.7763 11.28C40.8483 11.28 41.0283 11.208 41.3163 11.064C41.6043 10.92 41.8323 10.848 42.0003 10.848C42.1923 10.848 42.3603 10.788 42.5043 10.668C42.6003 10.572 42.6723 10.2 42.7203 9.552C42.7923 8.904 42.8043 8.304 42.7563 7.752L42.7203 6.888L42.9723 6.636ZM40.8843 20.928C41.1243 20.904 41.3883 20.892 41.6763 20.892C41.9643 20.916 42.2163 21.036 42.4323 21.252C42.6963 21.468 42.8403 21.684 42.8643 21.9C43.0563 22.548 42.9003 23.34 42.3963 24.276C42.1323 24.684 41.9643 24.972 41.8923 25.14C41.7963 25.356 41.6763 25.56 41.5323 25.752C41.3403 26.064 41.1963 26.328 41.1003 26.544C40.7643 27.168 40.4763 27.672 40.2363 28.056C40.0203 28.392 39.8163 28.74 39.6243 29.1C39.4563 29.484 39.4803 29.772 39.6963 29.964C39.7683 29.964 39.8763 29.952 40.0203 29.928C40.1883 29.904 40.3683 29.868 40.5603 29.82C40.7763 29.772 40.9323 29.712 41.0283 29.64C41.1723 29.52 41.3163 29.448 41.4603 29.424C41.6043 29.376 41.7363 29.316 41.8563 29.244C41.9283 29.172 42.1203 29.028 42.4323 28.812C42.6483 28.644 42.9603 28.416 43.3683 28.128C43.6803 27.84 43.9683 27.6 44.2323 27.408C44.5203 27.192 44.7483 27 44.9163 26.832C45.4683 26.28 45.9363 26.004 46.3203 26.004C46.6562 26.004 46.9203 26.112 47.1123 26.328C47.3043 26.52 47.4003 26.748 47.4003 27.012C47.4003 27.252 47.2443 27.528 46.9323 27.84C46.6443 28.128 46.3203 28.368 45.9603 28.56C45.6003 28.776 45.2883 28.968 45.0243 29.136C43.8003 30.12 42.9603 30.732 42.5043 30.972C41.5203 31.452 40.9803 31.692 40.8843 31.692C40.7643 31.692 40.5963 31.74 40.3803 31.836C39.8763 32.1 39.3243 32.064 38.7243 31.728C38.0283 31.416 37.6443 31.008 37.5723 30.504C37.4763 29.712 37.5483 29.172 37.7883 28.884C37.9323 28.74 38.1363 28.392 38.4003 27.84C38.4963 27.624 38.6523 27.336 38.8683 26.976C39.0843 26.616 39.2163 26.256 39.2643 25.896C39.2883 25.584 39.4323 25.248 39.6963 24.888C39.9363 24.6 40.1283 24.348 40.2723 24.132C40.4163 23.916 40.5603 23.736 40.7043 23.592C40.8243 23.4 40.8963 23.184 40.9203 22.944C40.9683 22.68 40.9563 22.536 40.8843 22.512C40.7643 22.464 40.5483 22.548 40.2363 22.764C40.0203 22.908 39.7803 23.04 39.5163 23.16C39.3723 23.232 39.2283 23.304 39.0843 23.376C38.7723 23.544 38.6163 23.628 38.6163 23.628C38.1363 23.844 37.7043 24.156 37.3203 24.564C37.2723 24.636 37.0563 24.852 36.6723 25.212C35.7603 26.028 35.0163 26.148 34.4403 25.572C34.1283 25.212 34.2243 24.816 34.7283 24.384C35.3043 23.88 35.7003 23.58 35.9163 23.484C36.0123 23.436 36.2043 23.304 36.4923 23.088C36.7563 22.92 36.9603 22.788 37.1043 22.692C37.2723 22.596 37.4043 22.512 37.5003 22.44C37.5963 22.368 37.7163 22.32 37.8603 22.296C37.9563 22.248 38.0763 22.176 38.2203 22.08C38.3643 21.96 38.5563 21.876 38.7963 21.828C39.0363 21.78 39.1923 21.696 39.2643 21.576C39.3363 21.504 39.4803 21.456 39.6963 21.432C39.9123 21.384 40.0923 21.312 40.2363 21.216C40.4523 21.096 40.6683 21 40.8843 20.928ZM50.0333 10.56C50.3933 10.344 50.7533 10.332 51.1133 10.524C51.3293 10.668 51.5213 10.872 51.6893 11.136C51.8813 11.4 51.9533 11.628 51.9053 11.82C51.8333 12.468 51.6413 13.056 51.3293 13.584C50.9933 14.208 50.4173 14.412 49.6013 14.196C49.0253 14.004 48.7013 13.644 48.6293 13.116C48.5573 12.684 48.6413 12.216 48.8813 11.712C49.1453 11.208 49.5293 10.824 50.0333 10.56ZM50.5733 23.952C50.7413 23.928 50.9693 24 51.2573 24.168C51.6653 24.456 51.8813 24.96 51.9053 25.68C51.9533 26.04 51.8693 26.4 51.6533 26.76C51.3173 27.408 50.9573 27.804 50.5733 27.948C50.3573 28.068 50.0693 28.044 49.7093 27.876C49.3733 27.708 49.0853 27.504 48.8453 27.264C48.5573 26.904 48.4493 26.376 48.5213 25.68C48.5933 25.32 48.7973 24.972 49.1333 24.636C49.4693 24.3 49.8173 24.108 50.1773 24.06C50.2493 24.036 50.3453 24.024 50.4653 24.024L50.5733 23.952Z" fill="#FFC8C5"/>
<path d="M70.6155 5.268C70.8315 5.124 71.0475 5.124 71.2635 5.268C71.5035 5.412 71.6235 5.628 71.6235 5.916C71.6235 6.132 71.5755 6.336 71.4795 6.528C71.3595 6.672 71.2995 6.816 71.2995 6.96C71.2995 7.104 71.2275 7.32 71.0835 7.608C70.8435 8.112 70.8315 8.436 71.0475 8.58C71.1915 8.604 71.4075 8.616 71.6955 8.616C72.0075 8.616 72.3315 8.688 72.6675 8.832C73.0275 8.976 73.4235 9.072 73.8555 9.12C74.3115 9.144 74.7075 9.216 75.0435 9.336C75.4035 9.432 75.7275 9.48 76.0155 9.48C76.3035 9.48 76.5435 9.552 76.7355 9.696C76.9275 9.816 77.2275 9.876 77.6355 9.876C78.3075 9.828 78.8475 9.936 79.2555 10.2C79.5675 10.44 79.7235 10.668 79.7235 10.884C79.7235 11.076 79.6035 11.256 79.3635 11.424C78.7875 11.832 78.2115 11.868 77.6355 11.532C77.3475 11.388 76.9635 11.304 76.4835 11.28C76.0275 11.232 75.6555 11.172 75.3675 11.1C75.0075 11.004 74.6235 10.956 74.2155 10.956C73.8315 10.908 73.4715 10.836 73.1355 10.74C72.8235 10.62 72.4635 10.56 72.0555 10.56C71.6955 10.536 71.2995 10.488 70.8675 10.416C70.5075 10.344 70.2195 10.38 70.0035 10.524C69.7875 10.62 69.6795 10.692 69.6795 10.74C69.6795 10.812 69.4395 11.22 68.9595 11.964C68.5035 12.684 68.1675 13.176 67.9515 13.44C67.5675 13.896 67.2795 14.304 67.0875 14.664C66.9195 15 66.6555 15.168 66.2955 15.168C66.0315 15.168 65.7915 15.048 65.5755 14.808C65.3595 14.568 65.2515 14.34 65.2515 14.124C65.2515 13.908 65.4315 13.596 65.7915 13.188C66.1515 12.78 66.4035 12.48 66.5475 12.288C66.8835 11.784 67.2315 11.268 67.5915 10.74C67.6155 10.668 67.6755 10.56 67.7715 10.416C67.8675 10.272 67.9275 10.2 67.9515 10.2C68.0715 9.984 68.1795 9.78 68.2755 9.588C68.3955 9.3 68.5515 9 68.7435 8.688C68.9355 8.352 69.0315 8.112 69.0315 7.968C69.0315 7.824 69.1275 7.572 69.3195 7.212C69.4875 6.9 69.6435 6.6 69.7875 6.312C70.0515 5.808 70.3275 5.46 70.6155 5.268ZM79.5075 14.772C79.5795 14.748 79.8435 14.748 80.2995 14.772C80.7795 14.772 81.0795 14.808 81.1995 14.88C81.4155 15 81.5235 15.18 81.5235 15.42C81.5235 15.9 81.3795 16.212 81.0915 16.356C80.8995 16.38 80.7675 16.428 80.6955 16.5C80.1195 16.836 79.4715 17.052 78.7515 17.148C78.0795 17.268 77.4555 17.4 76.8795 17.544C76.5435 17.64 76.1955 17.688 75.8355 17.688C75.2595 17.688 74.8515 17.76 74.6115 17.904C74.3955 18.048 74.2515 18.372 74.1795 18.876C74.1075 19.284 74.0355 19.56 73.9635 19.704C73.8915 19.848 73.8555 20.028 73.8555 20.244C73.8555 20.412 73.7955 20.736 73.6755 21.216C73.6035 21.72 73.6035 22.056 73.6755 22.224C73.8675 22.512 74.2155 22.572 74.7195 22.404C75.0315 22.284 75.3915 22.224 75.7995 22.224C76.3755 22.224 76.8435 22.5 77.2035 23.052C77.4435 23.412 77.4555 23.88 77.2395 24.456C77.0235 25.032 76.7355 25.476 76.3755 25.788C76.2315 25.932 75.9075 26.244 75.4035 26.724C74.9475 27.156 74.6955 27.372 74.6475 27.372C74.5755 27.372 74.4915 27.42 74.3955 27.516C74.1795 27.732 73.8555 27.972 73.4235 28.236C72.7275 28.62 72.2595 28.884 72.0195 29.028C71.8755 29.1 71.6955 29.244 71.4795 29.46C71.3355 29.652 71.2755 29.82 71.2995 29.964C71.4195 30.492 71.7075 30.888 72.1635 31.152C72.6435 31.44 73.4355 31.308 74.5395 30.756C74.8755 30.66 75.0675 30.612 75.1155 30.612C75.1635 30.612 75.3195 30.54 75.5835 30.396C75.8715 30.252 76.0515 30.18 76.1235 30.18C76.1955 30.18 76.2435 30.12 76.2675 30C76.3875 29.928 76.5555 29.844 76.7715 29.748C77.4435 29.412 78.1035 28.992 78.7515 28.488C79.0875 28.248 79.3635 28.116 79.5795 28.092C79.8195 28.044 80.0475 28.128 80.2635 28.344C80.4795 28.56 80.5875 28.776 80.5875 28.992C80.5875 29.208 80.5515 29.364 80.4795 29.46C80.3115 29.748 79.9875 30.024 79.5075 30.288C79.4115 30.312 79.2915 30.36 79.1475 30.432C79.0275 30.48 78.8235 30.588 78.5355 30.756C78.2955 30.948 78.0675 31.092 77.8515 31.188C77.2035 31.524 76.8195 31.728 76.6995 31.8C76.6035 31.872 76.4595 31.944 76.2675 32.016C76.0515 32.088 75.9075 32.16 75.8355 32.232C75.8115 32.304 75.7035 32.352 75.5115 32.376C75.3435 32.424 75.1515 32.496 74.9355 32.592C74.7435 32.712 74.4915 32.808 74.1795 32.88C73.8435 32.904 73.5915 32.976 73.4235 33.096C72.9915 33.312 72.4515 33.288 71.8035 33.024C71.5155 32.928 71.2995 32.856 71.1555 32.808C71.0355 32.808 70.8795 32.724 70.6875 32.556C70.5195 32.412 70.3395 32.232 70.1475 32.016C69.9555 31.8 69.7995 31.596 69.6795 31.404C69.5835 31.188 69.3555 30.888 68.9955 30.504C68.5155 30 68.2755 29.64 68.2755 29.424C68.2755 29.208 68.4915 29.004 68.9235 28.812C69.2595 28.668 69.5115 28.56 69.6795 28.488C69.8715 28.464 70.2675 28.248 70.8675 27.84C71.0835 27.696 71.2155 27.624 71.2635 27.624C71.3355 27.624 71.4435 27.576 71.5875 27.48C71.7315 27.36 71.8755 27.288 72.0195 27.264C72.3075 27.144 72.7515 26.784 73.3515 26.184C73.3995 26.136 73.5795 25.968 73.8915 25.68C74.1075 25.512 74.3475 25.26 74.6115 24.924C74.8995 24.564 75.0435 24.348 75.0435 24.276C75.0435 24.06 74.6955 24.048 73.9995 24.24C73.7115 24.312 73.4235 24.36 73.1355 24.384C72.6315 24.456 72.0555 24.636 71.4075 24.924C70.8795 25.212 70.5795 25.392 70.5075 25.464C70.4595 25.536 70.2555 25.716 69.8955 26.004C69.1755 26.628 68.5635 26.916 68.0595 26.868C67.8435 26.868 67.6035 26.796 67.3395 26.652C67.0755 26.508 66.9195 26.388 66.8715 26.292C66.8475 26.148 66.8835 25.992 66.9795 25.824C67.0995 25.656 67.2315 25.572 67.3755 25.572C67.6155 25.5 68.2395 25.128 69.2475 24.456C69.7995 24.096 70.1235 23.892 70.2195 23.844C70.7235 23.7 71.1555 23.412 71.5155 22.98C71.6595 22.812 71.7315 22.584 71.7315 22.296C71.7315 22.008 71.7675 21.756 71.8395 21.54C71.8875 21.324 71.9475 20.964 72.0195 20.46C72.0435 19.98 72.0915 19.62 72.1635 19.38C72.2355 19.116 72.2235 18.96 72.1275 18.912C72.0555 18.864 71.8035 18.876 71.3715 18.948C70.8675 19.02 70.5435 19.092 70.3995 19.164C70.2555 19.236 70.0395 19.284 69.7515 19.308C69.4875 19.356 69.2715 19.416 69.1035 19.488C68.9595 19.584 68.6835 19.668 68.2755 19.74C67.8915 19.812 67.6035 19.908 67.4115 20.028C67.2435 20.1 67.0515 20.148 66.8355 20.172C66.6195 20.22 66.3555 20.304 66.0435 20.424C65.7315 20.544 65.5035 20.604 65.3595 20.604C65.1915 20.604 64.9995 20.664 64.7835 20.784C64.4955 20.928 64.2075 21.012 63.9195 21.036C63.6315 21.108 63.3915 21.18 63.1995 21.252C63.0315 21.372 62.7435 21.432 62.3355 21.432C61.9515 21.456 61.6275 21.384 61.3635 21.216C60.9075 20.856 60.7875 20.532 61.0035 20.244C61.2915 19.908 61.7955 19.692 62.5155 19.596C62.8755 19.548 63.1755 19.476 63.4155 19.38C63.6315 19.26 63.7995 19.2 63.9195 19.2C64.0155 19.2 64.1955 19.152 64.4595 19.056C64.7475 18.936 65.0355 18.864 65.3235 18.84C65.6115 18.792 65.9715 18.696 66.4035 18.552C66.7875 18.408 67.0515 18.336 67.1955 18.336C67.3395 18.336 67.5915 18.264 67.9515 18.12C68.3835 17.976 68.6715 17.904 68.8155 17.904C68.9595 17.904 69.1635 17.856 69.4275 17.76C70.1475 17.496 70.8075 17.28 71.4075 17.112C71.8875 16.992 72.5235 16.752 73.3155 16.392C73.5555 16.296 73.7355 16.248 73.8555 16.248C73.9995 16.248 74.1435 16.212 74.2875 16.14C74.5035 16.02 74.7915 15.924 75.1515 15.852C75.5355 15.78 75.8355 15.696 76.0515 15.6C76.2435 15.528 76.5555 15.468 76.9875 15.42C77.3475 15.396 77.6835 15.324 77.9955 15.204C78.2115 15.132 78.4995 15.06 78.8595 14.988C79.2195 14.892 79.4355 14.82 79.5075 14.772ZM97.0237 8.04C97.1677 7.848 97.4077 7.812 97.7437 7.932C98.0797 8.028 98.2837 8.208 98.3557 8.472C98.4037 8.64 98.4757 8.82 98.5717 9.012C98.6917 9.228 98.6917 9.672 98.5717 10.344C98.4997 11.04 98.4517 12.684 98.4277 15.276C98.3797 17.868 98.3917 19.2 98.4637 19.272C98.5837 19.344 98.8717 19.308 99.3277 19.164C99.8077 19.02 100.12 18.948 100.264 18.948C100.408 18.948 100.564 18.888 100.732 18.768C100.948 18.672 101.092 18.624 101.164 18.624C101.236 18.624 101.452 18.528 101.812 18.336C102.148 18.168 102.352 18.084 102.424 18.084C102.496 18.084 102.76 17.952 103.216 17.688C103.984 17.328 104.644 17.16 105.196 17.184C105.748 17.208 106.12 17.412 106.312 17.796C106.408 18.06 106.348 18.324 106.132 18.588C105.916 18.852 105.592 19.044 105.16 19.164C104.128 19.404 103.48 19.584 103.216 19.704C103.048 19.8 102.868 19.872 102.676 19.92C102.508 19.944 102.292 20.028 102.028 20.172C101.788 20.316 101.596 20.388 101.452 20.388C101.332 20.388 101.176 20.448 100.984 20.568C100.816 20.664 100.612 20.736 100.372 20.784C100.108 20.808 99.8677 20.88 99.6517 21C99.4357 21.072 99.2197 21.144 99.0037 21.216C98.7157 21.288 98.5357 21.42 98.4637 21.612C98.3917 21.804 98.3557 22.188 98.3557 22.764C98.4037 23.556 98.4037 24.888 98.3557 26.76C98.3317 28.464 98.2957 29.448 98.2477 29.712C98.2237 29.976 98.1037 30.204 97.8877 30.396C97.8157 30.468 97.6357 30.504 97.3477 30.504C97.0597 30.504 96.8557 30.468 96.7357 30.396C96.6637 30.324 96.5437 30.192 96.3757 30C96.2317 29.784 96.1597 29.46 96.1597 29.028C96.1837 28.572 96.2917 27.636 96.4837 26.22C96.5077 25.86 96.5197 24.6 96.5197 22.44C96.5197 20.256 96.5077 19.128 96.4837 19.056C96.4357 18.984 96.4477 17.676 96.5197 15.132C96.5917 12.564 96.6517 11.1 96.6997 10.74C96.7717 10.308 96.8197 9.768 96.8437 9.12C96.8917 8.472 96.9517 8.112 97.0237 8.04ZM91.9477 12.684C92.0917 12.636 92.3917 12.612 92.8477 12.612C93.3277 12.66 93.6397 12.732 93.7837 12.828C93.9997 12.972 94.1557 13.08 94.2517 13.152C94.3957 13.224 94.5397 13.428 94.6837 13.764L94.8997 14.232L94.7557 14.772C94.6357 15.204 94.5637 15.516 94.5397 15.708C94.4917 15.996 94.2757 16.548 93.8917 17.364C93.7477 17.7 93.6757 17.904 93.6757 17.976C93.6757 18.048 93.6157 18.12 93.4957 18.192C93.4237 18.288 93.3517 18.408 93.2797 18.552C93.0397 18.984 92.8237 19.332 92.6317 19.596C92.5357 19.74 92.4877 19.848 92.4877 19.92C92.4877 19.992 92.4157 20.1 92.2717 20.244C92.1277 20.412 92.0197 20.592 91.9477 20.784C91.6837 21.168 91.5037 21.432 91.4077 21.576C91.1917 21.84 90.9517 22.2 90.6877 22.656C90.5917 22.92 90.3397 23.34 89.9317 23.916C89.9077 23.916 89.8237 24.024 89.6797 24.24C89.5357 24.456 89.4277 24.612 89.3557 24.708C89.1397 25.068 88.8637 25.416 88.5277 25.752C88.2157 26.112 87.9517 26.292 87.7357 26.292C87.0877 26.292 86.7397 25.86 86.6917 24.996C86.6917 24.564 86.9677 24.168 87.5197 23.808C87.8797 23.544 88.1317 23.316 88.2757 23.124C88.4437 22.932 88.7437 22.476 89.1757 21.756C89.3197 21.492 89.4637 21.252 89.6077 21.036C89.7997 20.82 89.9677 20.604 90.1117 20.388C90.2557 20.1 90.3757 19.908 90.4717 19.812C90.6157 19.62 91.1437 18.648 92.0557 16.896C92.0557 16.824 92.1037 16.692 92.1997 16.5C92.3197 16.284 92.3917 16.14 92.4157 16.068C92.6317 15.708 92.7397 15.48 92.7397 15.384C92.7397 15.264 92.7997 15.084 92.9197 14.844C93.0877 14.436 92.9917 14.184 92.6317 14.088C92.4637 14.04 92.2357 14.076 91.9477 14.196C91.6597 14.292 91.3717 14.376 91.0837 14.448C90.7957 14.52 90.5797 14.592 90.4357 14.664C90.3157 14.736 90.0997 14.808 89.7877 14.88C89.4517 14.952 89.2357 15.024 89.1397 15.096C88.9957 15.168 88.8157 15.228 88.5997 15.276C88.3357 15.3 88.0837 15.384 87.8437 15.528C87.5797 15.672 87.4117 15.744 87.3397 15.744C87.2677 15.744 87.1477 15.804 86.9797 15.924C86.9077 15.996 86.6917 16.176 86.3317 16.464C86.0437 16.68 85.8637 16.848 85.7917 16.968C85.7197 17.064 85.6957 17.556 85.7197 18.444C85.7197 19.356 85.7797 19.968 85.8997 20.28C85.9957 20.568 86.0557 21.216 86.0797 22.224C86.1277 23.208 86.1277 23.808 86.0797 24.024C86.0557 24.24 85.9837 24.396 85.8637 24.492C85.7437 24.564 85.5997 24.576 85.4317 24.528C85.2637 24.48 85.0957 24.3 84.9277 23.988C84.7837 23.652 84.7117 23.376 84.7117 23.16C84.7117 22.944 84.6397 22.704 84.4957 22.44C84.3517 22.152 84.2797 21.792 84.2797 21.36C84.2797 20.904 84.2197 20.592 84.0997 20.424C84.0037 20.232 83.9317 19.776 83.8837 19.056C83.8117 18.336 83.7157 17.856 83.5957 17.616C83.4997 17.376 83.4517 17.16 83.4517 16.968C83.4517 16.776 83.4037 16.608 83.3077 16.464C83.1637 16.32 83.0917 16.104 83.0917 15.816C83.0197 15.48 82.9477 15.192 82.8757 14.952C82.7557 14.688 82.6597 14.34 82.5877 13.908C82.5157 13.524 82.5277 13.224 82.6237 13.008C82.7197 12.792 82.8757 12.684 83.0917 12.684C83.5237 12.684 83.9197 12.936 84.2797 13.44C84.3757 13.584 84.4477 13.776 84.4957 14.016C84.5197 14.28 84.5917 14.532 84.7117 14.772C84.8557 14.988 84.9757 15.096 85.0717 15.096C85.1917 15.144 85.3477 15.096 85.5397 14.952C85.7317 14.808 85.9237 14.712 86.1157 14.664C86.2837 14.64 86.4037 14.592 86.4757 14.52C86.5477 14.448 86.6797 14.388 86.8717 14.34C87.0157 14.316 87.2077 14.232 87.4477 14.088C87.7357 13.944 87.9397 13.872 88.0597 13.872C88.2037 13.872 88.3837 13.812 88.5997 13.692C88.7437 13.596 88.9237 13.536 89.1397 13.512C89.3797 13.464 89.5957 13.38 89.7877 13.26C89.9557 13.164 90.2557 13.092 90.6877 13.044C91.1197 12.972 91.3957 12.9 91.5157 12.828C91.6117 12.756 91.7557 12.708 91.9477 12.684ZM121.734 5.808C121.974 5.712 122.214 5.736 122.454 5.88C122.67 6.024 122.838 6.228 122.958 6.492C123.102 6.756 123.174 7.788 123.174 9.588C123.198 11.364 123.174 12.432 123.102 12.792C123.03 13.224 122.958 14.136 122.886 15.528C122.814 16.968 122.706 17.868 122.562 18.228C122.298 18.78 121.95 19.056 121.518 19.056C121.278 19.056 121.062 18.84 120.87 18.408C120.774 18.072 120.798 17.208 120.942 15.816C121.014 15.192 121.05 14.436 121.05 13.548C121.05 12.564 121.086 11.316 121.158 9.804C121.23 8.364 121.254 7.56 121.23 7.392C120.966 6.6 121.134 6.072 121.734 5.808ZM112.086 7.284C112.278 7.068 112.398 6.96 112.446 6.96C112.566 6.96 112.698 7.008 112.842 7.104C112.986 7.176 113.13 7.272 113.274 7.392C113.418 7.488 113.502 7.572 113.526 7.644C113.67 8.052 113.622 8.556 113.382 9.156C113.238 9.42 113.166 9.624 113.166 9.768C113.166 9.912 113.13 10.092 113.058 10.308C112.938 10.524 112.842 10.788 112.77 11.1C112.698 11.388 112.638 11.604 112.59 11.748C112.326 12.108 112.266 12.396 112.41 12.612C112.434 12.684 112.638 12.816 113.022 13.008C113.334 13.176 113.634 13.356 113.922 13.548C114.498 13.908 115.374 14.412 116.55 15.06C117.27 15.42 117.714 15.66 117.882 15.78C118.05 15.876 118.17 16.008 118.242 16.176C118.458 16.584 118.422 16.908 118.134 17.148C117.846 17.412 117.522 17.448 117.162 17.256C116.994 17.184 116.79 17.112 116.55 17.04C116.382 17.04 116.094 16.896 115.686 16.608C115.35 16.392 115.062 16.248 114.822 16.176C114.582 16.104 114.282 15.96 113.922 15.744C113.562 15.528 113.31 15.408 113.166 15.384C113.022 15.336 112.902 15.264 112.806 15.168C112.662 15.048 112.554 14.988 112.482 14.988C112.434 14.988 112.326 14.916 112.158 14.772C111.87 14.532 111.642 14.508 111.474 14.7C111.306 14.892 110.982 15.456 110.502 16.392C110.478 16.512 110.394 16.716 110.25 17.004C110.106 17.22 109.89 17.592 109.602 18.12C109.242 18.84 108.93 19.284 108.666 19.452C108.426 19.62 108.15 19.536 107.838 19.2C107.574 18.984 107.442 18.792 107.442 18.624C107.442 18.264 107.766 17.556 108.414 16.5C108.654 16.116 108.774 15.888 108.774 15.816C108.774 15.744 108.846 15.6 108.99 15.384C109.134 15.168 109.206 15.024 109.206 14.952C109.206 14.88 109.278 14.736 109.422 14.52C109.566 14.304 109.638 14.16 109.638 14.088C109.638 13.968 109.698 13.788 109.818 13.548C109.962 13.284 110.034 13.116 110.034 13.044C110.034 12.972 110.106 12.804 110.25 12.54C110.394 12.276 110.466 12.096 110.466 12C110.466 11.88 110.538 11.688 110.682 11.424C110.826 11.136 110.898 10.956 110.898 10.884C110.898 10.812 110.97 10.656 111.114 10.416C111.234 10.152 111.318 9.9 111.366 9.66C111.414 9.372 111.486 9.096 111.582 8.832C111.702 8.544 111.774 8.256 111.798 7.968C111.846 7.68 111.942 7.452 112.086 7.284ZM119.286 20.712C120.03 20.616 120.558 20.748 120.87 21.108C121.11 21.324 121.23 21.612 121.23 21.972C121.23 22.332 121.158 22.632 121.014 22.872C120.87 23.088 120.774 23.268 120.726 23.412C120.678 23.532 120.534 23.76 120.294 24.096C120.054 24.408 119.934 24.6 119.934 24.672C119.934 24.744 119.862 24.864 119.718 25.032C119.622 25.152 119.478 25.368 119.286 25.68C118.998 26.088 118.614 26.448 118.134 26.76C117.27 27.336 116.814 27.624 116.766 27.624C116.742 27.624 116.586 27.732 116.298 27.948C115.314 28.572 115.062 29.244 115.542 29.964C115.734 30.204 115.926 30.36 116.118 30.432C116.358 30.504 116.67 30.516 117.054 30.468C117.438 30.42 117.762 30.336 118.026 30.216C118.29 30.072 118.446 30 118.494 30C118.614 30 118.782 29.952 118.998 29.856C119.094 29.784 119.43 29.604 120.006 29.316C120.534 29.1 120.894 28.92 121.086 28.776C121.374 28.584 121.59 28.44 121.734 28.344C121.878 28.272 122.094 28.092 122.382 27.804C122.67 27.54 122.91 27.396 123.102 27.372C123.342 27.3 123.594 27.36 123.858 27.552C124.122 27.72 124.302 27.96 124.398 28.272C124.47 28.416 124.422 28.62 124.254 28.884C124.11 29.124 124.014 29.244 123.966 29.244C123.918 29.244 123.81 29.316 123.642 29.46C123.498 29.604 123.318 29.712 123.102 29.784C122.886 29.832 122.694 29.904 122.526 30C122.334 30.12 122.214 30.18 122.166 30.18C122.118 30.18 121.938 30.264 121.626 30.432C121.314 30.624 121.11 30.756 121.014 30.828C120.918 30.9 120.798 30.948 120.654 30.972C120.51 31.02 120.366 31.116 120.222 31.26C120.054 31.404 119.922 31.476 119.826 31.476C119.754 31.476 119.622 31.536 119.43 31.656C119.238 31.776 119.094 31.836 118.998 31.836C118.926 31.836 118.782 31.896 118.566 32.016C118.23 32.184 117.606 32.364 116.694 32.556C116.358 32.628 116.034 32.592 115.722 32.448C115.41 32.328 115.23 32.268 115.182 32.268C115.038 32.268 114.798 32.16 114.462 31.944C114.126 31.728 113.91 31.536 113.814 31.368C113.43 30.744 113.19 30.324 113.094 30.108C113.046 29.964 112.83 29.712 112.446 29.352C112.11 28.992 111.942 28.764 111.942 28.668C111.942 28.596 112.002 28.476 112.122 28.308C112.242 28.14 112.422 27.984 112.662 27.84C112.902 27.672 113.142 27.528 113.382 27.408C113.814 27.192 114.102 27.072 114.246 27.048C114.39 27 114.558 26.904 114.75 26.76C114.918 26.664 115.062 26.616 115.182 26.616C115.278 26.616 115.398 26.58 115.542 26.508C115.686 26.364 115.83 26.268 115.974 26.22C116.19 26.196 116.622 25.824 117.27 25.104C117.99 24.312 118.422 23.604 118.566 22.98C118.566 22.884 118.554 22.824 118.53 22.8C118.506 22.776 118.446 22.764 118.35 22.764C117.702 22.908 117.198 23.076 116.838 23.268C116.622 23.364 116.478 23.412 116.406 23.412C116.334 23.412 116.226 23.472 116.082 23.592C115.938 23.688 115.746 23.76 115.506 23.808C115.29 23.832 115.11 23.904 114.966 24.024C114.822 24.12 114.534 24.264 114.102 24.456C113.67 24.696 113.394 24.852 113.274 24.924C113.13 25.044 113.046 25.104 113.022 25.104C112.926 25.104 112.806 25.176 112.662 25.32C112.518 25.416 112.254 25.464 111.87 25.464C111.51 25.464 111.258 25.392 111.114 25.248C110.802 24.96 110.646 24.696 110.646 24.456C110.646 24.168 111.078 23.856 111.942 23.52C112.806 23.208 113.478 22.92 113.958 22.656C114.198 22.56 114.414 22.488 114.606 22.44C115.134 22.344 115.686 22.128 116.262 21.792C116.454 21.696 116.646 21.648 116.838 21.648C117.054 21.576 117.27 21.48 117.486 21.36C118.206 21 118.806 20.784 119.286 20.712ZM142.254 6.636C142.446 6.444 142.578 6.348 142.65 6.348C142.722 6.348 142.83 6.384 142.974 6.456C143.118 6.528 143.238 6.612 143.334 6.708C143.454 6.804 143.55 6.888 143.622 6.96C143.838 7.344 143.922 8.472 143.874 10.344C143.874 10.92 143.898 11.352 143.945 11.64C144.018 11.928 143.994 12.288 143.874 12.72C143.802 13.152 143.754 14.196 143.73 15.852C143.682 17.292 143.634 18.156 143.586 18.444C143.562 18.708 143.406 18.948 143.117 19.164C142.614 19.62 142.17 19.476 141.786 18.732L141.57 18.408L141.678 17.112C141.774 16.032 141.714 15.492 141.498 15.492C141.402 15.492 141.006 15.648 140.31 15.96C139.662 16.32 139.29 16.5 139.194 16.5C139.122 16.5 138.942 16.56 138.654 16.68C138.366 16.824 138.186 16.896 138.114 16.896C137.994 16.896 137.886 16.944 137.79 17.04C137.646 17.16 137.358 17.268 136.926 17.364C136.446 17.484 136.098 17.484 135.882 17.364C135.738 17.292 135.642 17.244 135.594 17.22C135.57 17.172 135.558 17.028 135.558 16.788C135.558 16.356 135.774 16.044 136.206 15.852C136.974 15.54 137.394 15.348 137.466 15.276C137.538 15.204 137.682 15.144 137.898 15.096C138.114 15.072 138.342 14.988 138.582 14.844C138.798 14.7 138.966 14.628 139.086 14.628C139.23 14.628 139.374 14.568 139.518 14.448C139.686 14.352 139.878 14.268 140.094 14.196C140.31 14.124 140.514 14.052 140.706 13.98C140.85 13.86 140.97 13.8 141.066 13.8C141.186 13.8 141.354 13.716 141.57 13.548C141.81 13.356 141.93 13.176 141.93 13.008C141.93 12.792 141.882 12.672 141.786 12.648C141.714 12.6 141.57 12.612 141.354 12.684C141.09 12.756 140.886 12.852 140.742 12.972C140.598 13.068 140.49 13.116 140.418 13.116C140.394 13.116 140.238 13.188 139.95 13.332C139.662 13.476 139.458 13.548 139.338 13.548C139.242 13.548 139.062 13.62 138.798 13.764C138.558 13.908 138.366 13.98 138.222 13.98C138.102 13.98 137.934 14.04 137.718 14.16C137.502 14.256 137.154 14.352 136.674 14.448C136.218 14.52 135.906 14.544 135.738 14.52C135.618 14.52 135.498 14.52 135.378 14.52C135.282 14.52 135.198 14.544 135.126 14.592C135.054 14.64 135.018 14.688 135.018 14.736C135.018 14.76 134.934 14.904 134.766 15.168C134.574 15.408 134.478 15.6 134.478 15.744C134.478 15.864 134.406 16.08 134.262 16.392C133.902 17.4 133.686 18.48 133.614 19.632C133.59 20.112 133.482 20.46 133.29 20.676C132.978 21.108 132.642 21.216 132.282 21C132.138 20.928 131.946 20.748 131.706 20.46C131.466 20.172 131.346 19.968 131.346 19.848C131.346 19.704 131.418 19.488 131.562 19.2C131.706 18.912 131.778 18.732 131.778 18.66C131.778 18.564 131.838 18.42 131.958 18.228C132.102 17.988 132.186 17.724 132.21 17.436C132.282 17.1 132.366 16.86 132.462 16.716C132.558 16.548 132.618 16.284 132.642 15.924C132.69 15.564 132.762 15.288 132.858 15.096C132.978 14.88 133.05 14.652 133.074 14.412C133.122 14.148 133.194 13.872 133.29 13.584C133.698 12.264 133.902 11.292 133.902 10.668C133.902 10.308 133.83 10.056 133.686 9.912C133.422 9.672 133.11 9.672 132.75 9.912C132.606 10.032 132.414 10.104 132.174 10.128C131.886 10.176 131.658 10.26 131.49 10.38C131.322 10.5 131.202 10.56 131.13 10.56C131.058 10.56 130.89 10.632 130.626 10.776C130.386 10.92 130.206 10.992 130.086 10.992C129.99 10.992 129.882 11.064 129.762 11.208C129.642 11.352 129.546 11.424 129.474 11.424C129.426 11.424 129.318 11.484 129.15 11.604C129.006 11.748 128.874 11.832 128.754 11.856C128.658 11.904 128.61 11.952 128.61 12C128.61 12.048 128.394 12.192 127.962 12.432C127.554 12.672 127.29 12.852 127.17 12.972C127.074 13.068 126.834 13.116 126.45 13.116C126.09 13.116 125.838 13.056 125.694 12.936C125.358 12.696 125.406 12.396 125.838 12.036C126.054 11.82 126.222 11.688 126.342 11.64C126.438 11.64 126.534 11.604 126.63 11.532C126.726 11.46 126.942 11.328 127.278 11.136C127.614 10.944 127.794 10.848 127.818 10.848C127.866 10.848 127.914 10.812 127.962 10.74C128.034 10.668 128.214 10.524 128.502 10.308C128.814 10.092 128.994 9.984 129.042 9.984C129.114 9.984 129.33 9.9 129.689 9.732C130.074 9.54 130.302 9.408 130.374 9.336C130.446 9.264 130.59 9.204 130.806 9.156C131.022 9.084 131.262 9 131.526 8.904C131.742 8.784 131.886 8.724 131.958 8.724C132.054 8.724 132.246 8.652 132.534 8.508C132.798 8.412 133.146 8.364 133.578 8.364C134.034 8.364 134.418 8.472 134.73 8.688C135.066 8.904 135.258 9.084 135.306 9.228C135.33 9.396 135.402 9.576 135.521 9.768C135.738 10.128 135.738 10.608 135.521 11.208C135.402 11.472 135.33 11.796 135.306 12.18C135.306 12.54 135.342 12.756 135.414 12.828C135.486 12.9 135.63 12.888 135.846 12.792C136.062 12.672 136.326 12.588 136.638 12.54C136.974 12.492 137.19 12.42 137.286 12.324C137.406 12.228 137.61 12.156 137.898 12.108C138.186 12.06 138.438 11.976 138.654 11.856C138.87 11.712 139.026 11.64 139.122 11.64C139.194 11.64 139.362 11.592 139.626 11.496C139.842 11.352 139.986 11.28 140.058 11.28C140.13 11.28 140.31 11.208 140.598 11.064C140.886 10.92 141.114 10.848 141.282 10.848C141.474 10.848 141.642 10.788 141.786 10.668C141.882 10.572 141.954 10.2 142.002 9.552C142.074 8.904 142.086 8.304 142.038 7.752L142.002 6.888L142.254 6.636ZM140.166 20.928C140.406 20.904 140.67 20.892 140.958 20.892C141.246 20.916 141.498 21.036 141.714 21.252C141.978 21.468 142.122 21.684 142.146 21.9C142.338 22.548 142.182 23.34 141.678 24.276C141.414 24.684 141.246 24.972 141.174 25.14C141.078 25.356 140.958 25.56 140.814 25.752C140.622 26.064 140.478 26.328 140.382 26.544C140.046 27.168 139.758 27.672 139.518 28.056C139.302 28.392 139.098 28.74 138.906 29.1C138.738 29.484 138.762 29.772 138.978 29.964C139.05 29.964 139.158 29.952 139.302 29.928C139.47 29.904 139.65 29.868 139.842 29.82C140.058 29.772 140.214 29.712 140.31 29.64C140.454 29.52 140.598 29.448 140.742 29.424C140.886 29.376 141.018 29.316 141.138 29.244C141.21 29.172 141.402 29.028 141.714 28.812C141.93 28.644 142.242 28.416 142.65 28.128C142.962 27.84 143.25 27.6 143.514 27.408C143.802 27.192 144.03 27 144.198 26.832C144.75 26.28 145.218 26.004 145.602 26.004C145.938 26.004 146.202 26.112 146.394 26.328C146.586 26.52 146.682 26.748 146.682 27.012C146.682 27.252 146.526 27.528 146.214 27.84C145.926 28.128 145.602 28.368 145.242 28.56C144.882 28.776 144.57 28.968 144.306 29.136C143.082 30.12 142.242 30.732 141.786 30.972C140.802 31.452 140.262 31.692 140.166 31.692C140.046 31.692 139.878 31.74 139.662 31.836C139.158 32.1 138.606 32.064 138.006 31.728C137.31 31.416 136.926 31.008 136.854 30.504C136.758 29.712 136.83 29.172 137.07 28.884C137.214 28.74 137.418 28.392 137.682 27.84C137.778 27.624 137.934 27.336 138.15 26.976C138.366 26.616 138.498 26.256 138.546 25.896C138.57 25.584 138.714 25.248 138.978 24.888C139.218 24.6 139.41 24.348 139.554 24.132C139.698 23.916 139.842 23.736 139.986 23.592C140.106 23.4 140.178 23.184 140.202 22.944C140.25 22.68 140.238 22.536 140.166 22.512C140.046 22.464 139.83 22.548 139.518 22.764C139.302 22.908 139.062 23.04 138.798 23.16C138.654 23.232 138.51 23.304 138.366 23.376C138.054 23.544 137.898 23.628 137.898 23.628C137.418 23.844 136.986 24.156 136.602 24.564C136.554 24.636 136.338 24.852 135.954 25.212C135.042 26.028 134.298 26.148 133.722 25.572C133.41 25.212 133.506 24.816 134.01 24.384C134.586 23.88 134.982 23.58 135.198 23.484C135.294 23.436 135.486 23.304 135.774 23.088C136.038 22.92 136.242 22.788 136.386 22.692C136.554 22.596 136.686 22.512 136.782 22.44C136.878 22.368 136.998 22.32 137.142 22.296C137.238 22.248 137.358 22.176 137.502 22.08C137.646 21.96 137.838 21.876 138.078 21.828C138.318 21.78 138.474 21.696 138.546 21.576C138.618 21.504 138.762 21.456 138.978 21.432C139.194 21.384 139.374 21.312 139.518 21.216C139.734 21.096 139.95 21 140.166 20.928ZM162.131 6.852C162.083 6.42 162.119 6.144 162.239 6.024C162.383 5.88 162.611 5.808 162.923 5.808C163.259 5.808 163.499 5.868 163.643 5.988C163.931 6.252 164.123 6.792 164.219 7.608C164.315 7.968 164.351 9.24 164.327 11.424C164.303 13.584 164.267 14.808 164.219 15.096C164.171 15.48 164.123 16.332 164.075 17.652L164.003 19.596L163.643 19.92C163.427 20.136 163.199 20.244 162.959 20.244C162.743 20.244 162.563 20.16 162.419 19.992C162.227 19.848 162.107 19.704 162.059 19.56C162.035 19.368 162.059 18.624 162.131 17.328C162.179 16.176 162.203 14.256 162.203 11.568C162.203 8.88 162.179 7.308 162.131 6.852ZM153.383 7.176C153.695 7.032 154.019 7.104 154.355 7.392L154.715 7.716L154.679 8.4C154.655 8.832 154.583 9.18 154.463 9.444C154.343 9.708 154.259 9.96 154.211 10.2C154.163 10.44 154.091 10.68 153.995 10.92C153.875 11.088 153.815 11.232 153.815 11.352C153.815 11.448 153.743 11.628 153.599 11.892C153.479 12.132 153.419 12.3 153.419 12.396C153.419 12.468 153.347 12.636 153.203 12.9C153.059 13.164 152.987 13.344 152.987 13.44C152.987 13.656 153.299 13.944 153.923 14.304C154.739 14.808 155.243 15.096 155.435 15.168C155.579 15.168 155.831 15.288 156.191 15.528C156.599 15.792 156.851 15.936 156.947 15.96C157.235 16.08 157.775 16.32 158.567 16.68C159.287 17.016 159.647 17.304 159.647 17.544C159.647 17.616 159.599 17.712 159.503 17.832C159.431 17.928 159.323 18.024 159.179 18.12C159.059 18.216 158.939 18.276 158.819 18.3C158.243 18.444 157.427 18.24 156.371 17.688C156.227 17.592 156.083 17.508 155.939 17.436C155.843 17.436 155.747 17.412 155.651 17.364C155.579 17.292 155.543 17.256 155.543 17.256C155.327 17.16 155.003 17.004 154.571 16.788C153.947 16.428 153.515 16.2 153.275 16.104C152.987 15.96 152.795 15.84 152.699 15.744C152.219 15.456 151.883 15.576 151.691 16.104C151.667 16.272 151.595 16.416 151.475 16.536C151.379 16.632 151.331 16.704 151.331 16.752C151.331 16.8 151.259 16.92 151.115 17.112C150.923 17.352 150.803 17.544 150.755 17.688C150.515 18.024 150.275 18.408 150.035 18.84C149.747 19.368 149.459 19.776 149.171 20.064C148.955 20.256 148.715 20.352 148.451 20.352C148.211 20.352 148.043 20.304 147.947 20.208C147.851 20.112 147.791 19.92 147.767 19.632C147.767 19.32 147.839 19.056 147.983 18.84C148.127 18.6 148.199 18.456 148.199 18.408C148.199 18.36 148.259 18.288 148.379 18.192C148.475 18.12 148.559 17.976 148.631 17.76C148.655 17.544 148.715 17.424 148.811 17.4C149.051 17.136 149.279 16.788 149.495 16.356C149.567 16.212 149.711 15.96 149.927 15.6C150.095 15.264 150.227 15.012 150.323 14.844C150.347 14.7 150.395 14.592 150.467 14.52C150.851 13.896 151.091 13.428 151.187 13.116C151.211 12.948 151.271 12.792 151.367 12.648C151.487 12.504 151.547 12.372 151.547 12.252C151.547 12.18 151.619 12.024 151.763 11.784C151.859 11.52 151.955 11.256 152.051 10.992C152.075 10.8 152.123 10.632 152.195 10.488C152.387 10.224 152.579 9.528 152.771 8.4C152.915 7.728 153.119 7.32 153.383 7.176ZM160.763 22.656C161.291 22.56 161.711 22.56 162.023 22.656C162.767 22.92 163.259 23.484 163.499 24.348C163.547 24.612 163.451 25.08 163.211 25.752C162.995 26.4 162.755 26.88 162.491 27.192C162.323 27.384 162.107 27.648 161.843 27.984C161.387 28.584 160.871 29.148 160.295 29.676C159.743 30.18 159.395 30.432 159.251 30.432C159.203 30.432 159.083 30.504 158.891 30.648C158.699 30.792 158.555 30.864 158.459 30.864C158.363 30.864 158.243 30.936 158.099 31.08C157.907 31.224 157.787 31.296 157.739 31.296C157.691 31.296 157.499 31.44 157.163 31.728C156.539 32.256 155.939 32.52 155.363 32.52C155.195 32.52 155.003 32.412 154.787 32.196C154.595 32.004 154.499 31.824 154.499 31.656C154.499 31.512 154.451 31.368 154.355 31.224C154.259 31.032 154.211 30.9 154.211 30.828C154.211 30.708 154.139 30.564 153.995 30.396C153.851 30.18 153.755 29.976 153.707 29.784C153.659 29.592 153.563 29.4 153.419 29.208C153.275 29.016 153.203 28.848 153.203 28.704C153.203 28.536 153.155 28.368 153.059 28.2C152.963 28.056 152.879 27.852 152.807 27.588C152.759 27.3 152.687 27.12 152.591 27.048C152.519 26.976 152.459 26.856 152.411 26.688C152.363 26.496 152.315 26.352 152.267 26.256C152.147 26.136 152.027 25.896 151.907 25.536C151.811 25.2 151.799 24.912 151.871 24.672C152.015 24.192 152.231 23.952 152.519 23.952C152.783 23.952 153.155 24.3 153.635 24.996C153.779 25.164 153.947 25.248 154.139 25.248C154.331 25.248 154.451 25.2 154.499 25.104C154.547 25.008 154.895 24.792 155.543 24.456C156.191 24.12 156.587 23.952 156.731 23.952C156.875 23.952 157.019 23.904 157.163 23.808C157.259 23.712 157.403 23.64 157.595 23.592C157.739 23.544 157.907 23.472 158.099 23.376C158.267 23.28 158.483 23.208 158.747 23.16C158.939 23.16 159.251 23.088 159.683 22.944C159.947 22.896 160.307 22.8 160.763 22.656ZM161.411 24.528C161.219 24.384 160.523 24.432 159.323 24.672C158.939 24.744 158.387 24.948 157.667 25.284C156.947 25.596 156.455 25.848 156.191 26.04C156.119 26.136 156.035 26.184 155.939 26.184C155.795 26.256 155.603 26.4 155.363 26.616C155.123 26.832 155.003 27 155.003 27.12C154.955 27.216 154.955 27.384 155.003 27.624C155.051 27.864 155.099 28.104 155.147 28.344C155.195 28.584 155.255 28.764 155.327 28.884C155.399 29.052 155.471 29.28 155.543 29.568C155.615 30.048 155.759 30.288 155.975 30.288C156.047 30.288 156.155 30.24 156.299 30.144C156.395 30.024 156.503 29.952 156.623 29.928C156.767 29.88 156.911 29.808 157.055 29.712C157.223 29.568 157.355 29.496 157.451 29.496C157.643 29.496 158.015 29.244 158.567 28.74C159.143 28.236 159.695 27.672 160.223 27.048C160.775 26.424 161.123 25.944 161.267 25.608C161.459 25.2 161.555 24.948 161.555 24.852C161.579 24.732 161.531 24.624 161.411 24.528Z" fill="#E8E0EB"/>
<g filter="url(#filter0_f_65_23)">
<path d="M14.26 5.268C14.476 5.124 14.692 5.124 14.908 5.268C15.148 5.412 15.268 5.628 15.268 5.916C15.268 6.132 15.22 6.336 15.124 6.528C15.004 6.672 14.944 6.816 14.944 6.96C14.944 7.104 14.872 7.32 14.728 7.608C14.488 8.112 14.476 8.436 14.692 8.58C14.836 8.604 15.052 8.616 15.34 8.616C15.652 8.616 15.976 8.688 16.312 8.832C16.672 8.976 17.068 9.072 17.5 9.12C17.956 9.144 18.352 9.216 18.688 9.336C19.048 9.432 19.372 9.48 19.66 9.48C19.948 9.48 20.188 9.552 20.38 9.696C20.572 9.816 20.872 9.876 21.28 9.876C21.952 9.828 22.492 9.936 22.9 10.2C23.212 10.44 23.368 10.668 23.368 10.884C23.368 11.076 23.248 11.256 23.008 11.424C22.432 11.832 21.856 11.868 21.28 11.532C20.992 11.388 20.608 11.304 20.128 11.28C19.672 11.232 19.3 11.172 19.012 11.1C18.652 11.004 18.268 10.956 17.86 10.956C17.476 10.908 17.116 10.836 16.78 10.74C16.468 10.62 16.108 10.56 15.7 10.56C15.34 10.536 14.944 10.488 14.512 10.416C14.152 10.344 13.864 10.38 13.648 10.524C13.432 10.62 13.324 10.692 13.324 10.74C13.324 10.812 13.084 11.22 12.604 11.964C12.148 12.684 11.812 13.176 11.596 13.44C11.212 13.896 10.924 14.304 10.732 14.664C10.564 15 10.3 15.168 9.94 15.168C9.676 15.168 9.436 15.048 9.22 14.808C9.004 14.568 8.896 14.34 8.896 14.124C8.896 13.908 9.076 13.596 9.436 13.188C9.796 12.78 10.048 12.48 10.192 12.288C10.528 11.784 10.876 11.268 11.236 10.74C11.26 10.668 11.32 10.56 11.416 10.416C11.512 10.272 11.572 10.2 11.596 10.2C11.716 9.984 11.824 9.78 11.92 9.588C12.04 9.3 12.196 9 12.388 8.688C12.58 8.352 12.676 8.112 12.676 7.968C12.676 7.824 12.772 7.572 12.964 7.212C13.132 6.9 13.288 6.6 13.432 6.312C13.696 5.808 13.972 5.46 14.26 5.268ZM23.152 14.772C23.224 14.748 23.488 14.748 23.944 14.772C24.424 14.772 24.724 14.808 24.844 14.88C25.06 15 25.168 15.18 25.168 15.42C25.168 15.9 25.024 16.212 24.736 16.356C24.544 16.38 24.412 16.428 24.34 16.5C23.764 16.836 23.116 17.052 22.396 17.148C21.724 17.268 21.1 17.4 20.524 17.544C20.188 17.64 19.84 17.688 19.48 17.688C18.904 17.688 18.496 17.76 18.256 17.904C18.04 18.048 17.896 18.372 17.824 18.876C17.752 19.284 17.68 19.56 17.608 19.704C17.536 19.848 17.5 20.028 17.5 20.244C17.5 20.412 17.44 20.736 17.32 21.216C17.248 21.72 17.248 22.056 17.32 22.224C17.512 22.512 17.86 22.572 18.364 22.404C18.676 22.284 19.036 22.224 19.444 22.224C20.02 22.224 20.488 22.5 20.848 23.052C21.088 23.412 21.1 23.88 20.884 24.456C20.668 25.032 20.38 25.476 20.02 25.788C19.876 25.932 19.552 26.244 19.048 26.724C18.592 27.156 18.34 27.372 18.292 27.372C18.22 27.372 18.136 27.42 18.04 27.516C17.824 27.732 17.5 27.972 17.068 28.236C16.372 28.62 15.904 28.884 15.664 29.028C15.52 29.1 15.34 29.244 15.124 29.46C14.98 29.652 14.92 29.82 14.944 29.964C15.064 30.492 15.352 30.888 15.808 31.152C16.288 31.44 17.08 31.308 18.184 30.756C18.52 30.66 18.712 30.612 18.76 30.612C18.808 30.612 18.964 30.54 19.228 30.396C19.516 30.252 19.696 30.18 19.768 30.18C19.84 30.18 19.888 30.12 19.912 30C20.032 29.928 20.2 29.844 20.416 29.748C21.088 29.412 21.748 28.992 22.396 28.488C22.732 28.248 23.008 28.116 23.224 28.092C23.464 28.044 23.692 28.128 23.908 28.344C24.124 28.56 24.232 28.776 24.232 28.992C24.232 29.208 24.196 29.364 24.124 29.46C23.956 29.748 23.632 30.024 23.152 30.288C23.056 30.312 22.936 30.36 22.792 30.432C22.672 30.48 22.468 30.588 22.18 30.756C21.94 30.948 21.712 31.092 21.496 31.188C20.848 31.524 20.464 31.728 20.344 31.8C20.248 31.872 20.104 31.944 19.912 32.016C19.696 32.088 19.552 32.16 19.48 32.232C19.456 32.304 19.348 32.352 19.156 32.376C18.988 32.424 18.796 32.496 18.58 32.592C18.388 32.712 18.136 32.808 17.824 32.88C17.488 32.904 17.236 32.976 17.068 33.096C16.636 33.312 16.096 33.288 15.448 33.024C15.16 32.928 14.944 32.856 14.8 32.808C14.68 32.808 14.524 32.724 14.332 32.556C14.164 32.412 13.984 32.232 13.792 32.016C13.6 31.8 13.444 31.596 13.324 31.404C13.228 31.188 13 30.888 12.64 30.504C12.16 30 11.92 29.64 11.92 29.424C11.92 29.208 12.136 29.004 12.568 28.812C12.904 28.668 13.156 28.56 13.324 28.488C13.516 28.464 13.912 28.248 14.512 27.84C14.728 27.696 14.86 27.624 14.908 27.624C14.98 27.624 15.088 27.576 15.232 27.48C15.376 27.36 15.52 27.288 15.664 27.264C15.952 27.144 16.396 26.784 16.996 26.184C17.044 26.136 17.224 25.968 17.536 25.68C17.752 25.512 17.992 25.26 18.256 24.924C18.544 24.564 18.688 24.348 18.688 24.276C18.688 24.06 18.34 24.048 17.644 24.24C17.356 24.312 17.068 24.36 16.78 24.384C16.276 24.456 15.7 24.636 15.052 24.924C14.524 25.212 14.224 25.392 14.152 25.464C14.104 25.536 13.9 25.716 13.54 26.004C12.82 26.628 12.208 26.916 11.704 26.868C11.488 26.868 11.248 26.796 10.984 26.652C10.72 26.508 10.564 26.388 10.516 26.292C10.492 26.148 10.528 25.992 10.624 25.824C10.744 25.656 10.876 25.572 11.02 25.572C11.26 25.5 11.884 25.128 12.892 24.456C13.444 24.096 13.768 23.892 13.864 23.844C14.368 23.7 14.8 23.412 15.16 22.98C15.304 22.812 15.376 22.584 15.376 22.296C15.376 22.008 15.412 21.756 15.484 21.54C15.532 21.324 15.592 20.964 15.664 20.46C15.688 19.98 15.736 19.62 15.808 19.38C15.88 19.116 15.868 18.96 15.772 18.912C15.7 18.864 15.448 18.876 15.016 18.948C14.512 19.02 14.188 19.092 14.044 19.164C13.9 19.236 13.684 19.284 13.396 19.308C13.132 19.356 12.916 19.416 12.748 19.488C12.604 19.584 12.328 19.668 11.92 19.74C11.536 19.812 11.248 19.908 11.056 20.028C10.888 20.1 10.696 20.148 10.48 20.172C10.264 20.22 10 20.304 9.688 20.424C9.376 20.544 9.148 20.604 9.004 20.604C8.836 20.604 8.644 20.664 8.428 20.784C8.14 20.928 7.852 21.012 7.564 21.036C7.276 21.108 7.036 21.18 6.844 21.252C6.676 21.372 6.388 21.432 5.98 21.432C5.596 21.456 5.272 21.384 5.008 21.216C4.552 20.856 4.432 20.532 4.648 20.244C4.936 19.908 5.44 19.692 6.16 19.596C6.52 19.548 6.82 19.476 7.06 19.38C7.276 19.26 7.444 19.2 7.564 19.2C7.66 19.2 7.84 19.152 8.104 19.056C8.392 18.936 8.68 18.864 8.968 18.84C9.256 18.792 9.616 18.696 10.048 18.552C10.432 18.408 10.696 18.336 10.84 18.336C10.984 18.336 11.236 18.264 11.596 18.12C12.028 17.976 12.316 17.904 12.46 17.904C12.604 17.904 12.808 17.856 13.072 17.76C13.792 17.496 14.452 17.28 15.052 17.112C15.532 16.992 16.168 16.752 16.96 16.392C17.2 16.296 17.38 16.248 17.5 16.248C17.644 16.248 17.788 16.212 17.932 16.14C18.148 16.02 18.436 15.924 18.796 15.852C19.18 15.78 19.48 15.696 19.696 15.6C19.888 15.528 20.2 15.468 20.632 15.42C20.992 15.396 21.328 15.324 21.64 15.204C21.856 15.132 22.144 15.06 22.504 14.988C22.864 14.892 23.08 14.82 23.152 14.772ZM42.9723 6.636C43.1643 6.444 43.2963 6.348 43.3683 6.348C43.4403 6.348 43.5483 6.384 43.6923 6.456C43.8363 6.528 43.9563 6.612 44.0523 6.708C44.1723 6.804 44.2683 6.888 44.3403 6.96C44.5563 7.344 44.6403 8.472 44.5923 10.344C44.5923 10.92 44.6163 11.352 44.6642 11.64C44.7363 11.928 44.7123 12.288 44.5923 12.72C44.5203 13.152 44.4723 14.196 44.4483 15.852C44.4003 17.292 44.3523 18.156 44.3043 18.444C44.2803 18.708 44.1243 18.948 43.8362 19.164C43.3323 19.62 42.8883 19.476 42.5043 18.732L42.2883 18.408L42.3963 17.112C42.4923 16.032 42.4323 15.492 42.2163 15.492C42.1203 15.492 41.7243 15.648 41.0283 15.96C40.3803 16.32 40.0083 16.5 39.9123 16.5C39.8403 16.5 39.6603 16.56 39.3723 16.68C39.0843 16.824 38.9043 16.896 38.8323 16.896C38.7123 16.896 38.6043 16.944 38.5083 17.04C38.3643 17.16 38.0763 17.268 37.6443 17.364C37.1643 17.484 36.8163 17.484 36.6003 17.364C36.4563 17.292 36.3603 17.244 36.3123 17.22C36.2883 17.172 36.2763 17.028 36.2763 16.788C36.2763 16.356 36.4923 16.044 36.9243 15.852C37.6923 15.54 38.1123 15.348 38.1843 15.276C38.2563 15.204 38.4003 15.144 38.6163 15.096C38.8323 15.072 39.0603 14.988 39.3003 14.844C39.5163 14.7 39.6843 14.628 39.8043 14.628C39.9483 14.628 40.0923 14.568 40.2363 14.448C40.4043 14.352 40.5963 14.268 40.8123 14.196C41.0283 14.124 41.2323 14.052 41.4243 13.98C41.5683 13.86 41.6883 13.8 41.7843 13.8C41.9043 13.8 42.0723 13.716 42.2883 13.548C42.5283 13.356 42.6483 13.176 42.6483 13.008C42.6483 12.792 42.6003 12.672 42.5043 12.648C42.4323 12.6 42.2883 12.612 42.0723 12.684C41.8083 12.756 41.6043 12.852 41.4603 12.972C41.3163 13.068 41.2083 13.116 41.1363 13.116C41.1123 13.116 40.9563 13.188 40.6683 13.332C40.3803 13.476 40.1763 13.548 40.0563 13.548C39.9603 13.548 39.7803 13.62 39.5163 13.764C39.2763 13.908 39.0843 13.98 38.9403 13.98C38.8203 13.98 38.6523 14.04 38.4363 14.16C38.2203 14.256 37.8723 14.352 37.3923 14.448C36.9363 14.52 36.6243 14.544 36.4563 14.52C36.3363 14.52 36.2163 14.52 36.0963 14.52C36.0003 14.52 35.9163 14.544 35.8443 14.592C35.7723 14.64 35.7363 14.688 35.7363 14.736C35.7363 14.76 35.6523 14.904 35.4843 15.168C35.2923 15.408 35.1963 15.6 35.1963 15.744C35.1963 15.864 35.1243 16.08 34.9803 16.392C34.6203 17.4 34.4043 18.48 34.3323 19.632C34.3083 20.112 34.2003 20.46 34.0083 20.676C33.6963 21.108 33.3603 21.216 33.0003 21C32.8563 20.928 32.6643 20.748 32.4243 20.46C32.1843 20.172 32.0643 19.968 32.0643 19.848C32.0643 19.704 32.1363 19.488 32.2803 19.2C32.4243 18.912 32.4963 18.732 32.4963 18.66C32.4963 18.564 32.5563 18.42 32.6763 18.228C32.8203 17.988 32.9043 17.724 32.9283 17.436C33.0003 17.1 33.0843 16.86 33.1803 16.716C33.2763 16.548 33.3363 16.284 33.3603 15.924C33.4083 15.564 33.4803 15.288 33.5763 15.096C33.6963 14.88 33.7683 14.652 33.7923 14.412C33.8403 14.148 33.9123 13.872 34.0083 13.584C34.4163 12.264 34.6203 11.292 34.6203 10.668C34.6203 10.308 34.5483 10.056 34.4043 9.912C34.1403 9.672 33.8283 9.672 33.4683 9.912C33.3243 10.032 33.1323 10.104 32.8923 10.128C32.6043 10.176 32.3763 10.26 32.2083 10.38C32.0403 10.5 31.9203 10.56 31.8483 10.56C31.7763 10.56 31.6083 10.632 31.3443 10.776C31.1043 10.92 30.9243 10.992 30.8043 10.992C30.7083 10.992 30.6003 11.064 30.4803 11.208C30.3603 11.352 30.2643 11.424 30.1923 11.424C30.1443 11.424 30.0363 11.484 29.8683 11.604C29.7243 11.748 29.5923 11.832 29.4723 11.856C29.3763 11.904 29.3283 11.952 29.3283 12C29.3283 12.048 29.1123 12.192 28.6803 12.432C28.2723 12.672 28.0083 12.852 27.8883 12.972C27.7923 13.068 27.5523 13.116 27.1683 13.116C26.8083 13.116 26.5563 13.056 26.4123 12.936C26.0763 12.696 26.1243 12.396 26.5563 12.036C26.7723 11.82 26.9403 11.688 27.0603 11.64C27.1563 11.64 27.2523 11.604 27.3483 11.532C27.4443 11.46 27.6603 11.328 27.9963 11.136C28.3323 10.944 28.5123 10.848 28.5363 10.848C28.5843 10.848 28.6323 10.812 28.6803 10.74C28.7523 10.668 28.9323 10.524 29.2203 10.308C29.5323 10.092 29.7123 9.984 29.7603 9.984C29.8323 9.984 30.0483 9.9 30.4082 9.732C30.7923 9.54 31.0203 9.408 31.0923 9.336C31.1643 9.264 31.3083 9.204 31.5243 9.156C31.7403 9.084 31.9803 9 32.2443 8.904C32.4603 8.784 32.6043 8.724 32.6763 8.724C32.7723 8.724 32.9643 8.652 33.2523 8.508C33.5163 8.412 33.8643 8.364 34.2963 8.364C34.7523 8.364 35.1363 8.472 35.4483 8.688C35.7843 8.904 35.9763 9.084 36.0243 9.228C36.0483 9.396 36.1203 9.576 36.2402 9.768C36.4563 10.128 36.4563 10.608 36.2402 11.208C36.1203 11.472 36.0483 11.796 36.0243 12.18C36.0243 12.54 36.0603 12.756 36.1323 12.828C36.2043 12.9 36.3483 12.888 36.5643 12.792C36.7803 12.672 37.0443 12.588 37.3563 12.54C37.6923 12.492 37.9083 12.42 38.0043 12.324C38.1243 12.228 38.3283 12.156 38.6163 12.108C38.9043 12.06 39.1563 11.976 39.3723 11.856C39.5883 11.712 39.7443 11.64 39.8403 11.64C39.9123 11.64 40.0803 11.592 40.3443 11.496C40.5603 11.352 40.7043 11.28 40.7763 11.28C40.8483 11.28 41.0283 11.208 41.3163 11.064C41.6043 10.92 41.8323 10.848 42.0003 10.848C42.1923 10.848 42.3603 10.788 42.5043 10.668C42.6003 10.572 42.6723 10.2 42.7203 9.552C42.7923 8.904 42.8043 8.304 42.7563 7.752L42.7203 6.888L42.9723 6.636ZM40.8843 20.928C41.1243 20.904 41.3883 20.892 41.6763 20.892C41.9643 20.916 42.2163 21.036 42.4323 21.252C42.6963 21.468 42.8403 21.684 42.8643 21.9C43.0563 22.548 42.9003 23.34 42.3963 24.276C42.1323 24.684 41.9643 24.972 41.8923 25.14C41.7963 25.356 41.6763 25.56 41.5323 25.752C41.3403 26.064 41.1963 26.328 41.1003 26.544C40.7643 27.168 40.4763 27.672 40.2363 28.056C40.0203 28.392 39.8163 28.74 39.6243 29.1C39.4563 29.484 39.4803 29.772 39.6963 29.964C39.7683 29.964 39.8763 29.952 40.0203 29.928C40.1883 29.904 40.3683 29.868 40.5603 29.82C40.7763 29.772 40.9323 29.712 41.0283 29.64C41.1723 29.52 41.3163 29.448 41.4603 29.424C41.6043 29.376 41.7363 29.316 41.8563 29.244C41.9283 29.172 42.1203 29.028 42.4323 28.812C42.6483 28.644 42.9603 28.416 43.3683 28.128C43.6803 27.84 43.9683 27.6 44.2323 27.408C44.5203 27.192 44.7483 27 44.9163 26.832C45.4683 26.28 45.9363 26.004 46.3203 26.004C46.6562 26.004 46.9203 26.112 47.1123 26.328C47.3043 26.52 47.4003 26.748 47.4003 27.012C47.4003 27.252 47.2443 27.528 46.9323 27.84C46.6443 28.128 46.3203 28.368 45.9603 28.56C45.6003 28.776 45.2883 28.968 45.0243 29.136C43.8003 30.12 42.9603 30.732 42.5043 30.972C41.5203 31.452 40.9803 31.692 40.8843 31.692C40.7643 31.692 40.5963 31.74 40.3803 31.836C39.8763 32.1 39.3243 32.064 38.7243 31.728C38.0283 31.416 37.6443 31.008 37.5723 30.504C37.4763 29.712 37.5483 29.172 37.7883 28.884C37.9323 28.74 38.1363 28.392 38.4003 27.84C38.4963 27.624 38.6523 27.336 38.8683 26.976C39.0843 26.616 39.2163 26.256 39.2643 25.896C39.2883 25.584 39.4323 25.248 39.6963 24.888C39.9363 24.6 40.1283 24.348 40.2723 24.132C40.4163 23.916 40.5603 23.736 40.7043 23.592C40.8243 23.4 40.8963 23.184 40.9203 22.944C40.9683 22.68 40.9563 22.536 40.8843 22.512C40.7643 22.464 40.5483 22.548 40.2363 22.764C40.0203 22.908 39.7803 23.04 39.5163 23.16C39.3723 23.232 39.2283 23.304 39.0843 23.376C38.7723 23.544 38.6163 23.628 38.6163 23.628C38.1363 23.844 37.7043 24.156 37.3203 24.564C37.2723 24.636 37.0563 24.852 36.6723 25.212C35.7603 26.028 35.0163 26.148 34.4403 25.572C34.1283 25.212 34.2243 24.816 34.7283 24.384C35.3043 23.88 35.7003 23.58 35.9163 23.484C36.0123 23.436 36.2043 23.304 36.4923 23.088C36.7563 22.92 36.9603 22.788 37.1043 22.692C37.2723 22.596 37.4043 22.512 37.5003 22.44C37.5963 22.368 37.7163 22.32 37.8603 22.296C37.9563 22.248 38.0763 22.176 38.2203 22.08C38.3643 21.96 38.5563 21.876 38.7963 21.828C39.0363 21.78 39.1923 21.696 39.2643 21.576C39.3363 21.504 39.4803 21.456 39.6963 21.432C39.9123 21.384 40.0923 21.312 40.2363 21.216C40.4523 21.096 40.6683 21 40.8843 20.928Z" fill="#A26B6C"/>
<path d="M50.0333 10.56C50.3933 10.344 50.7533 10.332 51.1133 10.524C51.3293 10.668 51.5213 10.872 51.6893 11.136C51.8813 11.4 51.9533 11.628 51.9053 11.82C51.8333 12.468 51.6413 13.056 51.3293 13.584C50.9933 14.208 50.4173 14.412 49.6013 14.196C49.0253 14.004 48.7013 13.644 48.6293 13.116C48.5573 12.684 48.6413 12.216 48.8813 11.712C49.1453 11.208 49.5293 10.824 50.0333 10.56ZM50.5733 23.952C50.7413 23.928 50.9693 24 51.2573 24.168C51.6653 24.456 51.8813 24.96 51.9053 25.68C51.9533 26.04 51.8693 26.4 51.6533 26.76C51.3173 27.408 50.9573 27.804 50.5733 27.948C50.3573 28.068 50.0693 28.044 49.7093 27.876C49.3733 27.708 49.0853 27.504 48.8453 27.264C48.5573 26.904 48.4493 26.376 48.5213 25.68C48.5933 25.32 48.7973 24.972 49.1333 24.636C49.4693 24.3 49.8173 24.108 50.1773 24.06C50.2493 24.036 50.3453 24.024 50.4653 24.024L50.5733 23.952Z" fill="#E8E0EB"/>
<path d="M70.6155 5.268C70.8315 5.124 71.0475 5.124 71.2635 5.268C71.5035 5.412 71.6235 5.628 71.6235 5.916C71.6235 6.132 71.5755 6.336 71.4795 6.528C71.3595 6.672 71.2995 6.816 71.2995 6.96C71.2995 7.104 71.2275 7.32 71.0835 7.608C70.8435 8.112 70.8315 8.436 71.0475 8.58C71.1915 8.604 71.4075 8.616 71.6955 8.616C72.0075 8.616 72.3315 8.688 72.6675 8.832C73.0275 8.976 73.4235 9.072 73.8555 9.12C74.3115 9.144 74.7075 9.216 75.0435 9.336C75.4035 9.432 75.7275 9.48 76.0155 9.48C76.3035 9.48 76.5435 9.552 76.7355 9.696C76.9275 9.816 77.2275 9.876 77.6355 9.876C78.3075 9.828 78.8475 9.936 79.2555 10.2C79.5675 10.44 79.7235 10.668 79.7235 10.884C79.7235 11.076 79.6035 11.256 79.3635 11.424C78.7875 11.832 78.2115 11.868 77.6355 11.532C77.3475 11.388 76.9635 11.304 76.4835 11.28C76.0275 11.232 75.6555 11.172 75.3675 11.1C75.0075 11.004 74.6235 10.956 74.2155 10.956C73.8315 10.908 73.4715 10.836 73.1355 10.74C72.8235 10.62 72.4635 10.56 72.0555 10.56C71.6955 10.536 71.2995 10.488 70.8675 10.416C70.5075 10.344 70.2195 10.38 70.0035 10.524C69.7875 10.62 69.6795 10.692 69.6795 10.74C69.6795 10.812 69.4395 11.22 68.9595 11.964C68.5035 12.684 68.1675 13.176 67.9515 13.44C67.5675 13.896 67.2795 14.304 67.0875 14.664C66.9195 15 66.6555 15.168 66.2955 15.168C66.0315 15.168 65.7915 15.048 65.5755 14.808C65.3595 14.568 65.2515 14.34 65.2515 14.124C65.2515 13.908 65.4315 13.596 65.7915 13.188C66.1515 12.78 66.4035 12.48 66.5475 12.288C66.8835 11.784 67.2315 11.268 67.5915 10.74C67.6155 10.668 67.6755 10.56 67.7715 10.416C67.8675 10.272 67.9275 10.2 67.9515 10.2C68.0715 9.984 68.1795 9.78 68.2755 9.588C68.3955 9.3 68.5515 9 68.7435 8.688C68.9355 8.352 69.0315 8.112 69.0315 7.968C69.0315 7.824 69.1275 7.572 69.3195 7.212C69.4875 6.9 69.6435 6.6 69.7875 6.312C70.0515 5.808 70.3275 5.46 70.6155 5.268ZM79.5075 14.772C79.5795 14.748 79.8435 14.748 80.2995 14.772C80.7795 14.772 81.0795 14.808 81.1995 14.88C81.4155 15 81.5235 15.18 81.5235 15.42C81.5235 15.9 81.3795 16.212 81.0915 16.356C80.8995 16.38 80.7675 16.428 80.6955 16.5C80.1195 16.836 79.4715 17.052 78.7515 17.148C78.0795 17.268 77.4555 17.4 76.8795 17.544C76.5435 17.64 76.1955 17.688 75.8355 17.688C75.2595 17.688 74.8515 17.76 74.6115 17.904C74.3955 18.048 74.2515 18.372 74.1795 18.876C74.1075 19.284 74.0355 19.56 73.9635 19.704C73.8915 19.848 73.8555 20.028 73.8555 20.244C73.8555 20.412 73.7955 20.736 73.6755 21.216C73.6035 21.72 73.6035 22.056 73.6755 22.224C73.8675 22.512 74.2155 22.572 74.7195 22.404C75.0315 22.284 75.3915 22.224 75.7995 22.224C76.3755 22.224 76.8435 22.5 77.2035 23.052C77.4435 23.412 77.4555 23.88 77.2395 24.456C77.0235 25.032 76.7355 25.476 76.3755 25.788C76.2315 25.932 75.9075 26.244 75.4035 26.724C74.9475 27.156 74.6955 27.372 74.6475 27.372C74.5755 27.372 74.4915 27.42 74.3955 27.516C74.1795 27.732 73.8555 27.972 73.4235 28.236C72.7275 28.62 72.2595 28.884 72.0195 29.028C71.8755 29.1 71.6955 29.244 71.4795 29.46C71.3355 29.652 71.2755 29.82 71.2995 29.964C71.4195 30.492 71.7075 30.888 72.1635 31.152C72.6435 31.44 73.4355 31.308 74.5395 30.756C74.8755 30.66 75.0675 30.612 75.1155 30.612C75.1635 30.612 75.3195 30.54 75.5835 30.396C75.8715 30.252 76.0515 30.18 76.1235 30.18C76.1955 30.18 76.2435 30.12 76.2675 30C76.3875 29.928 76.5555 29.844 76.7715 29.748C77.4435 29.412 78.1035 28.992 78.7515 28.488C79.0875 28.248 79.3635 28.116 79.5795 28.092C79.8195 28.044 80.0475 28.128 80.2635 28.344C80.4795 28.56 80.5875 28.776 80.5875 28.992C80.5875 29.208 80.5515 29.364 80.4795 29.46C80.3115 29.748 79.9875 30.024 79.5075 30.288C79.4115 30.312 79.2915 30.36 79.1475 30.432C79.0275 30.48 78.8235 30.588 78.5355 30.756C78.2955 30.948 78.0675 31.092 77.8515 31.188C77.2035 31.524 76.8195 31.728 76.6995 31.8C76.6035 31.872 76.4595 31.944 76.2675 32.016C76.0515 32.088 75.9075 32.16 75.8355 32.232C75.8115 32.304 75.7035 32.352 75.5115 32.376C75.3435 32.424 75.1515 32.496 74.9355 32.592C74.7435 32.712 74.4915 32.808 74.1795 32.88C73.8435 32.904 73.5915 32.976 73.4235 33.096C72.9915 33.312 72.4515 33.288 71.8035 33.024C71.5155 32.928 71.2995 32.856 71.1555 32.808C71.0355 32.808 70.8795 32.724 70.6875 32.556C70.5195 32.412 70.3395 32.232 70.1475 32.016C69.9555 31.8 69.7995 31.596 69.6795 31.404C69.5835 31.188 69.3555 30.888 68.9955 30.504C68.5155 30 68.2755 29.64 68.2755 29.424C68.2755 29.208 68.4915 29.004 68.9235 28.812C69.2595 28.668 69.5115 28.56 69.6795 28.488C69.8715 28.464 70.2675 28.248 70.8675 27.84C71.0835 27.696 71.2155 27.624 71.2635 27.624C71.3355 27.624 71.4435 27.576 71.5875 27.48C71.7315 27.36 71.8755 27.288 72.0195 27.264C72.3075 27.144 72.7515 26.784 73.3515 26.184C73.3995 26.136 73.5795 25.968 73.8915 25.68C74.1075 25.512 74.3475 25.26 74.6115 24.924C74.8995 24.564 75.0435 24.348 75.0435 24.276C75.0435 24.06 74.6955 24.048 73.9995 24.24C73.7115 24.312 73.4235 24.36 73.1355 24.384C72.6315 24.456 72.0555 24.636 71.4075 24.924C70.8795 25.212 70.5795 25.392 70.5075 25.464C70.4595 25.536 70.2555 25.716 69.8955 26.004C69.1755 26.628 68.5635 26.916 68.0595 26.868C67.8435 26.868 67.6035 26.796 67.3395 26.652C67.0755 26.508 66.9195 26.388 66.8715 26.292C66.8475 26.148 66.8835 25.992 66.9795 25.824C67.0995 25.656 67.2315 25.572 67.3755 25.572C67.6155 25.5 68.2395 25.128 69.2475 24.456C69.7995 24.096 70.1235 23.892 70.2195 23.844C70.7235 23.7 71.1555 23.412 71.5155 22.98C71.6595 22.812 71.7315 22.584 71.7315 22.296C71.7315 22.008 71.7675 21.756 71.8395 21.54C71.8875 21.324 71.9475 20.964 72.0195 20.46C72.0435 19.98 72.0915 19.62 72.1635 19.38C72.2355 19.116 72.2235 18.96 72.1275 18.912C72.0555 18.864 71.8035 18.876 71.3715 18.948C70.8675 19.02 70.5435 19.092 70.3995 19.164C70.2555 19.236 70.0395 19.284 69.7515 19.308C69.4875 19.356 69.2715 19.416 69.1035 19.488C68.9595 19.584 68.6835 19.668 68.2755 19.74C67.8915 19.812 67.6035 19.908 67.4115 20.028C67.2435 20.1 67.0515 20.148 66.8355 20.172C66.6195 20.22 66.3555 20.304 66.0435 20.424C65.7315 20.544 65.5035 20.604 65.3595 20.604C65.1915 20.604 64.9995 20.664 64.7835 20.784C64.4955 20.928 64.2075 21.012 63.9195 21.036C63.6315 21.108 63.3915 21.18 63.1995 21.252C63.0315 21.372 62.7435 21.432 62.3355 21.432C61.9515 21.456 61.6275 21.384 61.3635 21.216C60.9075 20.856 60.7875 20.532 61.0035 20.244C61.2915 19.908 61.7955 19.692 62.5155 19.596C62.8755 19.548 63.1755 19.476 63.4155 19.38C63.6315 19.26 63.7995 19.2 63.9195 19.2C64.0155 19.2 64.1955 19.152 64.4595 19.056C64.7475 18.936 65.0355 18.864 65.3235 18.84C65.6115 18.792 65.9715 18.696 66.4035 18.552C66.7875 18.408 67.0515 18.336 67.1955 18.336C67.3395 18.336 67.5915 18.264 67.9515 18.12C68.3835 17.976 68.6715 17.904 68.8155 17.904C68.9595 17.904 69.1635 17.856 69.4275 17.76C70.1475 17.496 70.8075 17.28 71.4075 17.112C71.8875 16.992 72.5235 16.752 73.3155 16.392C73.5555 16.296 73.7355 16.248 73.8555 16.248C73.9995 16.248 74.1435 16.212 74.2875 16.14C74.5035 16.02 74.7915 15.924 75.1515 15.852C75.5355 15.78 75.8355 15.696 76.0515 15.6C76.2435 15.528 76.5555 15.468 76.9875 15.42C77.3475 15.396 77.6835 15.324 77.9955 15.204C78.2115 15.132 78.4995 15.06 78.8595 14.988C79.2195 14.892 79.4355 14.82 79.5075 14.772ZM97.0237 8.04C97.1677 7.848 97.4077 7.812 97.7437 7.932C98.0797 8.028 98.2837 8.208 98.3557 8.472C98.4037 8.64 98.4757 8.82 98.5717 9.012C98.6917 9.228 98.6917 9.672 98.5717 10.344C98.4997 11.04 98.4517 12.684 98.4277 15.276C98.3797 17.868 98.3917 19.2 98.4637 19.272C98.5837 19.344 98.8717 19.308 99.3277 19.164C99.8077 19.02 100.12 18.948 100.264 18.948C100.408 18.948 100.564 18.888 100.732 18.768C100.948 18.672 101.092 18.624 101.164 18.624C101.236 18.624 101.452 18.528 101.812 18.336C102.148 18.168 102.352 18.084 102.424 18.084C102.496 18.084 102.76 17.952 103.216 17.688C103.984 17.328 104.644 17.16 105.196 17.184C105.748 17.208 106.12 17.412 106.312 17.796C106.408 18.06 106.348 18.324 106.132 18.588C105.916 18.852 105.592 19.044 105.16 19.164C104.128 19.404 103.48 19.584 103.216 19.704C103.048 19.8 102.868 19.872 102.676 19.92C102.508 19.944 102.292 20.028 102.028 20.172C101.788 20.316 101.596 20.388 101.452 20.388C101.332 20.388 101.176 20.448 100.984 20.568C100.816 20.664 100.612 20.736 100.372 20.784C100.108 20.808 99.8677 20.88 99.6517 21C99.4357 21.072 99.2197 21.144 99.0037 21.216C98.7157 21.288 98.5357 21.42 98.4637 21.612C98.3917 21.804 98.3557 22.188 98.3557 22.764C98.4037 23.556 98.4037 24.888 98.3557 26.76C98.3317 28.464 98.2957 29.448 98.2477 29.712C98.2237 29.976 98.1037 30.204 97.8877 30.396C97.8157 30.468 97.6357 30.504 97.3477 30.504C97.0597 30.504 96.8557 30.468 96.7357 30.396C96.6637 30.324 96.5437 30.192 96.3757 30C96.2317 29.784 96.1597 29.46 96.1597 29.028C96.1837 28.572 96.2917 27.636 96.4837 26.22C96.5077 25.86 96.5197 24.6 96.5197 22.44C96.5197 20.256 96.5077 19.128 96.4837 19.056C96.4357 18.984 96.4477 17.676 96.5197 15.132C96.5917 12.564 96.6517 11.1 96.6997 10.74C96.7717 10.308 96.8197 9.768 96.8437 9.12C96.8917 8.472 96.9517 8.112 97.0237 8.04ZM91.9477 12.684C92.0917 12.636 92.3917 12.612 92.8477 12.612C93.3277 12.66 93.6397 12.732 93.7837 12.828C93.9997 12.972 94.1557 13.08 94.2517 13.152C94.3957 13.224 94.5397 13.428 94.6837 13.764L94.8997 14.232L94.7557 14.772C94.6357 15.204 94.5637 15.516 94.5397 15.708C94.4917 15.996 94.2757 16.548 93.8917 17.364C93.7477 17.7 93.6757 17.904 93.6757 17.976C93.6757 18.048 93.6157 18.12 93.4957 18.192C93.4237 18.288 93.3517 18.408 93.2797 18.552C93.0397 18.984 92.8237 19.332 92.6317 19.596C92.5357 19.74 92.4877 19.848 92.4877 19.92C92.4877 19.992 92.4157 20.1 92.2717 20.244C92.1277 20.412 92.0197 20.592 91.9477 20.784C91.6837 21.168 91.5037 21.432 91.4077 21.576C91.1917 21.84 90.9517 22.2 90.6877 22.656C90.5917 22.92 90.3397 23.34 89.9317 23.916C89.9077 23.916 89.8237 24.024 89.6797 24.24C89.5357 24.456 89.4277 24.612 89.3557 24.708C89.1397 25.068 88.8637 25.416 88.5277 25.752C88.2157 26.112 87.9517 26.292 87.7357 26.292C87.0877 26.292 86.7397 25.86 86.6917 24.996C86.6917 24.564 86.9677 24.168 87.5197 23.808C87.8797 23.544 88.1317 23.316 88.2757 23.124C88.4437 22.932 88.7437 22.476 89.1757 21.756C89.3197 21.492 89.4637 21.252 89.6077 21.036C89.7997 20.82 89.9677 20.604 90.1117 20.388C90.2557 20.1 90.3757 19.908 90.4717 19.812C90.6157 19.62 91.1437 18.648 92.0557 16.896C92.0557 16.824 92.1037 16.692 92.1997 16.5C92.3197 16.284 92.3917 16.14 92.4157 16.068C92.6317 15.708 92.7397 15.48 92.7397 15.384C92.7397 15.264 92.7997 15.084 92.9197 14.844C93.0877 14.436 92.9917 14.184 92.6317 14.088C92.4637 14.04 92.2357 14.076 91.9477 14.196C91.6597 14.292 91.3717 14.376 91.0837 14.448C90.7957 14.52 90.5797 14.592 90.4357 14.664C90.3157 14.736 90.0997 14.808 89.7877 14.88C89.4517 14.952 89.2357 15.024 89.1397 15.096C88.9957 15.168 88.8157 15.228 88.5997 15.276C88.3357 15.3 88.0837 15.384 87.8437 15.528C87.5797 15.672 87.4117 15.744 87.3397 15.744C87.2677 15.744 87.1477 15.804 86.9797 15.924C86.9077 15.996 86.6917 16.176 86.3317 16.464C86.0437 16.68 85.8637 16.848 85.7917 16.968C85.7197 17.064 85.6957 17.556 85.7197 18.444C85.7197 19.356 85.7797 19.968 85.8997 20.28C85.9957 20.568 86.0557 21.216 86.0797 22.224C86.1277 23.208 86.1277 23.808 86.0797 24.024C86.0557 24.24 85.9837 24.396 85.8637 24.492C85.7437 24.564 85.5997 24.576 85.4317 24.528C85.2637 24.48 85.0957 24.3 84.9277 23.988C84.7837 23.652 84.7117 23.376 84.7117 23.16C84.7117 22.944 84.6397 22.704 84.4957 22.44C84.3517 22.152 84.2797 21.792 84.2797 21.36C84.2797 20.904 84.2197 20.592 84.0997 20.424C84.0037 20.232 83.9317 19.776 83.8837 19.056C83.8117 18.336 83.7157 17.856 83.5957 17.616C83.4997 17.376 83.4517 17.16 83.4517 16.968C83.4517 16.776 83.4037 16.608 83.3077 16.464C83.1637 16.32 83.0917 16.104 83.0917 15.816C83.0197 15.48 82.9477 15.192 82.8757 14.952C82.7557 14.688 82.6597 14.34 82.5877 13.908C82.5157 13.524 82.5277 13.224 82.6237 13.008C82.7197 12.792 82.8757 12.684 83.0917 12.684C83.5237 12.684 83.9197 12.936 84.2797 13.44C84.3757 13.584 84.4477 13.776 84.4957 14.016C84.5197 14.28 84.5917 14.532 84.7117 14.772C84.8557 14.988 84.9757 15.096 85.0717 15.096C85.1917 15.144 85.3477 15.096 85.5397 14.952C85.7317 14.808 85.9237 14.712 86.1157 14.664C86.2837 14.64 86.4037 14.592 86.4757 14.52C86.5477 14.448 86.6797 14.388 86.8717 14.34C87.0157 14.316 87.2077 14.232 87.4477 14.088C87.7357 13.944 87.9397 13.872 88.0597 13.872C88.2037 13.872 88.3837 13.812 88.5997 13.692C88.7437 13.596 88.9237 13.536 89.1397 13.512C89.3797 13.464 89.5957 13.38 89.7877 13.26C89.9557 13.164 90.2557 13.092 90.6877 13.044C91.1197 12.972 91.3957 12.9 91.5157 12.828C91.6117 12.756 91.7557 12.708 91.9477 12.684ZM121.734 5.808C121.974 5.712 122.214 5.736 122.454 5.88C122.67 6.024 122.838 6.228 122.958 6.492C123.102 6.756 123.174 7.788 123.174 9.588C123.198 11.364 123.174 12.432 123.102 12.792C123.03 13.224 122.958 14.136 122.886 15.528C122.814 16.968 122.706 17.868 122.562 18.228C122.298 18.78 121.95 19.056 121.518 19.056C121.278 19.056 121.062 18.84 120.87 18.408C120.774 18.072 120.798 17.208 120.942 15.816C121.014 15.192 121.05 14.436 121.05 13.548C121.05 12.564 121.086 11.316 121.158 9.804C121.23 8.364 121.254 7.56 121.23 7.392C120.966 6.6 121.134 6.072 121.734 5.808ZM112.086 7.284C112.278 7.068 112.398 6.96 112.446 6.96C112.566 6.96 112.698 7.008 112.842 7.104C112.986 7.176 113.13 7.272 113.274 7.392C113.418 7.488 113.502 7.572 113.526 7.644C113.67 8.052 113.622 8.556 113.382 9.156C113.238 9.42 113.166 9.624 113.166 9.768C113.166 9.912 113.13 10.092 113.058 10.308C112.938 10.524 112.842 10.788 112.77 11.1C112.698 11.388 112.638 11.604 112.59 11.748C112.326 12.108 112.266 12.396 112.41 12.612C112.434 12.684 112.638 12.816 113.022 13.008C113.334 13.176 113.634 13.356 113.922 13.548C114.498 13.908 115.374 14.412 116.55 15.06C117.27 15.42 117.714 15.66 117.882 15.78C118.05 15.876 118.17 16.008 118.242 16.176C118.458 16.584 118.422 16.908 118.134 17.148C117.846 17.412 117.522 17.448 117.162 17.256C116.994 17.184 116.79 17.112 116.55 17.04C116.382 17.04 116.094 16.896 115.686 16.608C115.35 16.392 115.062 16.248 114.822 16.176C114.582 16.104 114.282 15.96 113.922 15.744C113.562 15.528 113.31 15.408 113.166 15.384C113.022 15.336 112.902 15.264 112.806 15.168C112.662 15.048 112.554 14.988 112.482 14.988C112.434 14.988 112.326 14.916 112.158 14.772C111.87 14.532 111.642 14.508 111.474 14.7C111.306 14.892 110.982 15.456 110.502 16.392C110.478 16.512 110.394 16.716 110.25 17.004C110.106 17.22 109.89 17.592 109.602 18.12C109.242 18.84 108.93 19.284 108.666 19.452C108.426 19.62 108.15 19.536 107.838 19.2C107.574 18.984 107.442 18.792 107.442 18.624C107.442 18.264 107.766 17.556 108.414 16.5C108.654 16.116 108.774 15.888 108.774 15.816C108.774 15.744 108.846 15.6 108.99 15.384C109.134 15.168 109.206 15.024 109.206 14.952C109.206 14.88 109.278 14.736 109.422 14.52C109.566 14.304 109.638 14.16 109.638 14.088C109.638 13.968 109.698 13.788 109.818 13.548C109.962 13.284 110.034 13.116 110.034 13.044C110.034 12.972 110.106 12.804 110.25 12.54C110.394 12.276 110.466 12.096 110.466 12C110.466 11.88 110.538 11.688 110.682 11.424C110.826 11.136 110.898 10.956 110.898 10.884C110.898 10.812 110.97 10.656 111.114 10.416C111.234 10.152 111.318 9.9 111.366 9.66C111.414 9.372 111.486 9.096 111.582 8.832C111.702 8.544 111.774 8.256 111.798 7.968C111.846 7.68 111.942 7.452 112.086 7.284ZM119.286 20.712C120.03 20.616 120.558 20.748 120.87 21.108C121.11 21.324 121.23 21.612 121.23 21.972C121.23 22.332 121.158 22.632 121.014 22.872C120.87 23.088 120.774 23.268 120.726 23.412C120.678 23.532 120.534 23.76 120.294 24.096C120.054 24.408 119.934 24.6 119.934 24.672C119.934 24.744 119.862 24.864 119.718 25.032C119.622 25.152 119.478 25.368 119.286 25.68C118.998 26.088 118.614 26.448 118.134 26.76C117.27 27.336 116.814 27.624 116.766 27.624C116.742 27.624 116.586 27.732 116.298 27.948C115.314 28.572 115.062 29.244 115.542 29.964C115.734 30.204 115.926 30.36 116.118 30.432C116.358 30.504 116.67 30.516 117.054 30.468C117.438 30.42 117.762 30.336 118.026 30.216C118.29 30.072 118.446 30 118.494 30C118.614 30 118.782 29.952 118.998 29.856C119.094 29.784 119.43 29.604 120.006 29.316C120.534 29.1 120.894 28.92 121.086 28.776C121.374 28.584 121.59 28.44 121.734 28.344C121.878 28.272 122.094 28.092 122.382 27.804C122.67 27.54 122.91 27.396 123.102 27.372C123.342 27.3 123.594 27.36 123.858 27.552C124.122 27.72 124.302 27.96 124.398 28.272C124.47 28.416 124.422 28.62 124.254 28.884C124.11 29.124 124.014 29.244 123.966 29.244C123.918 29.244 123.81 29.316 123.642 29.46C123.498 29.604 123.318 29.712 123.102 29.784C122.886 29.832 122.694 29.904 122.526 30C122.334 30.12 122.214 30.18 122.166 30.18C122.118 30.18 121.938 30.264 121.626 30.432C121.314 30.624 121.11 30.756 121.014 30.828C120.918 30.9 120.798 30.948 120.654 30.972C120.51 31.02 120.366 31.116 120.222 31.26C120.054 31.404 119.922 31.476 119.826 31.476C119.754 31.476 119.622 31.536 119.43 31.656C119.238 31.776 119.094 31.836 118.998 31.836C118.926 31.836 118.782 31.896 118.566 32.016C118.23 32.184 117.606 32.364 116.694 32.556C116.358 32.628 116.034 32.592 115.722 32.448C115.41 32.328 115.23 32.268 115.182 32.268C115.038 32.268 114.798 32.16 114.462 31.944C114.126 31.728 113.91 31.536 113.814 31.368C113.43 30.744 113.19 30.324 113.094 30.108C113.046 29.964 112.83 29.712 112.446 29.352C112.11 28.992 111.942 28.764 111.942 28.668C111.942 28.596 112.002 28.476 112.122 28.308C112.242 28.14 112.422 27.984 112.662 27.84C112.902 27.672 113.142 27.528 113.382 27.408C113.814 27.192 114.102 27.072 114.246 27.048C114.39 27 114.558 26.904 114.75 26.76C114.918 26.664 115.062 26.616 115.182 26.616C115.278 26.616 115.398 26.58 115.542 26.508C115.686 26.364 115.83 26.268 115.974 26.22C116.19 26.196 116.622 25.824 117.27 25.104C117.99 24.312 118.422 23.604 118.566 22.98C118.566 22.884 118.554 22.824 118.53 22.8C118.506 22.776 118.446 22.764 118.35 22.764C117.702 22.908 117.198 23.076 116.838 23.268C116.622 23.364 116.478 23.412 116.406 23.412C116.334 23.412 116.226 23.472 116.082 23.592C115.938 23.688 115.746 23.76 115.506 23.808C115.29 23.832 115.11 23.904 114.966 24.024C114.822 24.12 114.534 24.264 114.102 24.456C113.67 24.696 113.394 24.852 113.274 24.924C113.13 25.044 113.046 25.104 113.022 25.104C112.926 25.104 112.806 25.176 112.662 25.32C112.518 25.416 112.254 25.464 111.87 25.464C111.51 25.464 111.258 25.392 111.114 25.248C110.802 24.96 110.646 24.696 110.646 24.456C110.646 24.168 111.078 23.856 111.942 23.52C112.806 23.208 113.478 22.92 113.958 22.656C114.198 22.56 114.414 22.488 114.606 22.44C115.134 22.344 115.686 22.128 116.262 21.792C116.454 21.696 116.646 21.648 116.838 21.648C117.054 21.576 117.27 21.48 117.486 21.36C118.206 21 118.806 20.784 119.286 20.712ZM142.254 6.636C142.446 6.444 142.578 6.348 142.65 6.348C142.722 6.348 142.83 6.384 142.974 6.456C143.118 6.528 143.238 6.612 143.334 6.708C143.454 6.804 143.55 6.888 143.622 6.96C143.838 7.344 143.922 8.472 143.874 10.344C143.874 10.92 143.898 11.352 143.945 11.64C144.018 11.928 143.994 12.288 143.874 12.72C143.802 13.152 143.754 14.196 143.73 15.852C143.682 17.292 143.634 18.156 143.586 18.444C143.562 18.708 143.406 18.948 143.117 19.164C142.614 19.62 142.17 19.476 141.786 18.732L141.57 18.408L141.678 17.112C141.774 16.032 141.714 15.492 141.498 15.492C141.402 15.492 141.006 15.648 140.31 15.96C139.662 16.32 139.29 16.5 139.194 16.5C139.122 16.5 138.942 16.56 138.654 16.68C138.366 16.824 138.186 16.896 138.114 16.896C137.994 16.896 137.886 16.944 137.79 17.04C137.646 17.16 137.358 17.268 136.926 17.364C136.446 17.484 136.098 17.484 135.882 17.364C135.738 17.292 135.642 17.244 135.594 17.22C135.57 17.172 135.558 17.028 135.558 16.788C135.558 16.356 135.774 16.044 136.206 15.852C136.974 15.54 137.394 15.348 137.466 15.276C137.538 15.204 137.682 15.144 137.898 15.096C138.114 15.072 138.342 14.988 138.582 14.844C138.798 14.7 138.966 14.628 139.086 14.628C139.23 14.628 139.374 14.568 139.518 14.448C139.686 14.352 139.878 14.268 140.094 14.196C140.31 14.124 140.514 14.052 140.706 13.98C140.85 13.86 140.97 13.8 141.066 13.8C141.186 13.8 141.354 13.716 141.57 13.548C141.81 13.356 141.93 13.176 141.93 13.008C141.93 12.792 141.882 12.672 141.786 12.648C141.714 12.6 141.57 12.612 141.354 12.684C141.09 12.756 140.886 12.852 140.742 12.972C140.598 13.068 140.49 13.116 140.418 13.116C140.394 13.116 140.238 13.188 139.95 13.332C139.662 13.476 139.458 13.548 139.338 13.548C139.242 13.548 139.062 13.62 138.798 13.764C138.558 13.908 138.366 13.98 138.222 13.98C138.102 13.98 137.934 14.04 137.718 14.16C137.502 14.256 137.154 14.352 136.674 14.448C136.218 14.52 135.906 14.544 135.738 14.52C135.618 14.52 135.498 14.52 135.378 14.52C135.282 14.52 135.198 14.544 135.126 14.592C135.054 14.64 135.018 14.688 135.018 14.736C135.018 14.76 134.934 14.904 134.766 15.168C134.574 15.408 134.478 15.6 134.478 15.744C134.478 15.864 134.406 16.08 134.262 16.392C133.902 17.4 133.686 18.48 133.614 19.632C133.59 20.112 133.482 20.46 133.29 20.676C132.978 21.108 132.642 21.216 132.282 21C132.138 20.928 131.946 20.748 131.706 20.46C131.466 20.172 131.346 19.968 131.346 19.848C131.346 19.704 131.418 19.488 131.562 19.2C131.706 18.912 131.778 18.732 131.778 18.66C131.778 18.564 131.838 18.42 131.958 18.228C132.102 17.988 132.186 17.724 132.21 17.436C132.282 17.1 132.366 16.86 132.462 16.716C132.558 16.548 132.618 16.284 132.642 15.924C132.69 15.564 132.762 15.288 132.858 15.096C132.978 14.88 133.05 14.652 133.074 14.412C133.122 14.148 133.194 13.872 133.29 13.584C133.698 12.264 133.902 11.292 133.902 10.668C133.902 10.308 133.83 10.056 133.686 9.912C133.422 9.672 133.11 9.672 132.75 9.912C132.606 10.032 132.414 10.104 132.174 10.128C131.886 10.176 131.658 10.26 131.49 10.38C131.322 10.5 131.202 10.56 131.13 10.56C131.058 10.56 130.89 10.632 130.626 10.776C130.386 10.92 130.206 10.992 130.086 10.992C129.99 10.992 129.882 11.064 129.762 11.208C129.642 11.352 129.546 11.424 129.474 11.424C129.426 11.424 129.318 11.484 129.15 11.604C129.006 11.748 128.874 11.832 128.754 11.856C128.658 11.904 128.61 11.952 128.61 12C128.61 12.048 128.394 12.192 127.962 12.432C127.554 12.672 127.29 12.852 127.17 12.972C127.074 13.068 126.834 13.116 126.45 13.116C126.09 13.116 125.838 13.056 125.694 12.936C125.358 12.696 125.406 12.396 125.838 12.036C126.054 11.82 126.222 11.688 126.342 11.64C126.438 11.64 126.534 11.604 126.63 11.532C126.726 11.46 126.942 11.328 127.278 11.136C127.614 10.944 127.794 10.848 127.818 10.848C127.866 10.848 127.914 10.812 127.962 10.74C128.034 10.668 128.214 10.524 128.502 10.308C128.814 10.092 128.994 9.984 129.042 9.984C129.114 9.984 129.33 9.9 129.689 9.732C130.074 9.54 130.302 9.408 130.374 9.336C130.446 9.264 130.59 9.204 130.806 9.156C131.022 9.084 131.262 9 131.526 8.904C131.742 8.784 131.886 8.724 131.958 8.724C132.054 8.724 132.246 8.652 132.534 8.508C132.798 8.412 133.146 8.364 133.578 8.364C134.034 8.364 134.418 8.472 134.73 8.688C135.066 8.904 135.258 9.084 135.306 9.228C135.33 9.396 135.402 9.576 135.521 9.768C135.738 10.128 135.738 10.608 135.521 11.208C135.402 11.472 135.33 11.796 135.306 12.18C135.306 12.54 135.342 12.756 135.414 12.828C135.486 12.9 135.63 12.888 135.846 12.792C136.062 12.672 136.326 12.588 136.638 12.54C136.974 12.492 137.19 12.42 137.286 12.324C137.406 12.228 137.61 12.156 137.898 12.108C138.186 12.06 138.438 11.976 138.654 11.856C138.87 11.712 139.026 11.64 139.122 11.64C139.194 11.64 139.362 11.592 139.626 11.496C139.842 11.352 139.986 11.28 140.058 11.28C140.13 11.28 140.31 11.208 140.598 11.064C140.886 10.92 141.114 10.848 141.282 10.848C141.474 10.848 141.642 10.788 141.786 10.668C141.882 10.572 141.954 10.2 142.002 9.552C142.074 8.904 142.086 8.304 142.038 7.752L142.002 6.888L142.254 6.636ZM140.166 20.928C140.406 20.904 140.67 20.892 140.958 20.892C141.246 20.916 141.498 21.036 141.714 21.252C141.978 21.468 142.122 21.684 142.146 21.9C142.338 22.548 142.182 23.34 141.678 24.276C141.414 24.684 141.246 24.972 141.174 25.14C141.078 25.356 140.958 25.56 140.814 25.752C140.622 26.064 140.478 26.328 140.382 26.544C140.046 27.168 139.758 27.672 139.518 28.056C139.302 28.392 139.098 28.74 138.906 29.1C138.738 29.484 138.762 29.772 138.978 29.964C139.05 29.964 139.158 29.952 139.302 29.928C139.47 29.904 139.65 29.868 139.842 29.82C140.058 29.772 140.214 29.712 140.31 29.64C140.454 29.52 140.598 29.448 140.742 29.424C140.886 29.376 141.018 29.316 141.138 29.244C141.21 29.172 141.402 29.028 141.714 28.812C141.93 28.644 142.242 28.416 142.65 28.128C142.962 27.84 143.25 27.6 143.514 27.408C143.802 27.192 144.03 27 144.198 26.832C144.75 26.28 145.218 26.004 145.602 26.004C145.938 26.004 146.202 26.112 146.394 26.328C146.586 26.52 146.682 26.748 146.682 27.012C146.682 27.252 146.526 27.528 146.214 27.84C145.926 28.128 145.602 28.368 145.242 28.56C144.882 28.776 144.57 28.968 144.306 29.136C143.082 30.12 142.242 30.732 141.786 30.972C140.802 31.452 140.262 31.692 140.166 31.692C140.046 31.692 139.878 31.74 139.662 31.836C139.158 32.1 138.606 32.064 138.006 31.728C137.31 31.416 136.926 31.008 136.854 30.504C136.758 29.712 136.83 29.172 137.07 28.884C137.214 28.74 137.418 28.392 137.682 27.84C137.778 27.624 137.934 27.336 138.15 26.976C138.366 26.616 138.498 26.256 138.546 25.896C138.57 25.584 138.714 25.248 138.978 24.888C139.218 24.6 139.41 24.348 139.554 24.132C139.698 23.916 139.842 23.736 139.986 23.592C140.106 23.4 140.178 23.184 140.202 22.944C140.25 22.68 140.238 22.536 140.166 22.512C140.046 22.464 139.83 22.548 139.518 22.764C139.302 22.908 139.062 23.04 138.798 23.16C138.654 23.232 138.51 23.304 138.366 23.376C138.054 23.544 137.898 23.628 137.898 23.628C137.418 23.844 136.986 24.156 136.602 24.564C136.554 24.636 136.338 24.852 135.954 25.212C135.042 26.028 134.298 26.148 133.722 25.572C133.41 25.212 133.506 24.816 134.01 24.384C134.586 23.88 134.982 23.58 135.198 23.484C135.294 23.436 135.486 23.304 135.774 23.088C136.038 22.92 136.242 22.788 136.386 22.692C136.554 22.596 136.686 22.512 136.782 22.44C136.878 22.368 136.998 22.32 137.142 22.296C137.238 22.248 137.358 22.176 137.502 22.08C137.646 21.96 137.838 21.876 138.078 21.828C138.318 21.78 138.474 21.696 138.546 21.576C138.618 21.504 138.762 21.456 138.978 21.432C139.194 21.384 139.374 21.312 139.518 21.216C139.734 21.096 139.95 21 140.166 20.928ZM162.131 6.852C162.083 6.42 162.119 6.144 162.239 6.024C162.383 5.88 162.611 5.808 162.923 5.808C163.259 5.808 163.499 5.868 163.643 5.988C163.931 6.252 164.123 6.792 164.219 7.608C164.315 7.968 164.351 9.24 164.327 11.424C164.303 13.584 164.267 14.808 164.219 15.096C164.171 15.48 164.123 16.332 164.075 17.652L164.003 19.596L163.643 19.92C163.427 20.136 163.199 20.244 162.959 20.244C162.743 20.244 162.563 20.16 162.419 19.992C162.227 19.848 162.107 19.704 162.059 19.56C162.035 19.368 162.059 18.624 162.131 17.328C162.179 16.176 162.203 14.256 162.203 11.568C162.203 8.88 162.179 7.308 162.131 6.852ZM153.383 7.176C153.695 7.032 154.019 7.104 154.355 7.392L154.715 7.716L154.679 8.4C154.655 8.832 154.583 9.18 154.463 9.444C154.343 9.708 154.259 9.96 154.211 10.2C154.163 10.44 154.091 10.68 153.995 10.92C153.875 11.088 153.815 11.232 153.815 11.352C153.815 11.448 153.743 11.628 153.599 11.892C153.479 12.132 153.419 12.3 153.419 12.396C153.419 12.468 153.347 12.636 153.203 12.9C153.059 13.164 152.987 13.344 152.987 13.44C152.987 13.656 153.299 13.944 153.923 14.304C154.739 14.808 155.243 15.096 155.435 15.168C155.579 15.168 155.831 15.288 156.191 15.528C156.599 15.792 156.851 15.936 156.947 15.96C157.235 16.08 157.775 16.32 158.567 16.68C159.287 17.016 159.647 17.304 159.647 17.544C159.647 17.616 159.599 17.712 159.503 17.832C159.431 17.928 159.323 18.024 159.179 18.12C159.059 18.216 158.939 18.276 158.819 18.3C158.243 18.444 157.427 18.24 156.371 17.688C156.227 17.592 156.083 17.508 155.939 17.436C155.843 17.436 155.747 17.412 155.651 17.364C155.579 17.292 155.543 17.256 155.543 17.256C155.327 17.16 155.003 17.004 154.571 16.788C153.947 16.428 153.515 16.2 153.275 16.104C152.987 15.96 152.795 15.84 152.699 15.744C152.219 15.456 151.883 15.576 151.691 16.104C151.667 16.272 151.595 16.416 151.475 16.536C151.379 16.632 151.331 16.704 151.331 16.752C151.331 16.8 151.259 16.92 151.115 17.112C150.923 17.352 150.803 17.544 150.755 17.688C150.515 18.024 150.275 18.408 150.035 18.84C149.747 19.368 149.459 19.776 149.171 20.064C148.955 20.256 148.715 20.352 148.451 20.352C148.211 20.352 148.043 20.304 147.947 20.208C147.851 20.112 147.791 19.92 147.767 19.632C147.767 19.32 147.839 19.056 147.983 18.84C148.127 18.6 148.199 18.456 148.199 18.408C148.199 18.36 148.259 18.288 148.379 18.192C148.475 18.12 148.559 17.976 148.631 17.76C148.655 17.544 148.715 17.424 148.811 17.4C149.051 17.136 149.279 16.788 149.495 16.356C149.567 16.212 149.711 15.96 149.927 15.6C150.095 15.264 150.227 15.012 150.323 14.844C150.347 14.7 150.395 14.592 150.467 14.52C150.851 13.896 151.091 13.428 151.187 13.116C151.211 12.948 151.271 12.792 151.367 12.648C151.487 12.504 151.547 12.372 151.547 12.252C151.547 12.18 151.619 12.024 151.763 11.784C151.859 11.52 151.955 11.256 152.051 10.992C152.075 10.8 152.123 10.632 152.195 10.488C152.387 10.224 152.579 9.528 152.771 8.4C152.915 7.728 153.119 7.32 153.383 7.176ZM160.763 22.656C161.291 22.56 161.711 22.56 162.023 22.656C162.767 22.92 163.259 23.484 163.499 24.348C163.547 24.612 163.451 25.08 163.211 25.752C162.995 26.4 162.755 26.88 162.491 27.192C162.323 27.384 162.107 27.648 161.843 27.984C161.387 28.584 160.871 29.148 160.295 29.676C159.743 30.18 159.395 30.432 159.251 30.432C159.203 30.432 159.083 30.504 158.891 30.648C158.699 30.792 158.555 30.864 158.459 30.864C158.363 30.864 158.243 30.936 158.099 31.08C157.907 31.224 157.787 31.296 157.739 31.296C157.691 31.296 157.499 31.44 157.163 31.728C156.539 32.256 155.939 32.52 155.363 32.52C155.195 32.52 155.003 32.412 154.787 32.196C154.595 32.004 154.499 31.824 154.499 31.656C154.499 31.512 154.451 31.368 154.355 31.224C154.259 31.032 154.211 30.9 154.211 30.828C154.211 30.708 154.139 30.564 153.995 30.396C153.851 30.18 153.755 29.976 153.707 29.784C153.659 29.592 153.563 29.4 153.419 29.208C153.275 29.016 153.203 28.848 153.203 28.704C153.203 28.536 153.155 28.368 153.059 28.2C152.963 28.056 152.879 27.852 152.807 27.588C152.759 27.3 152.687 27.12 152.591 27.048C152.519 26.976 152.459 26.856 152.411 26.688C152.363 26.496 152.315 26.352 152.267 26.256C152.147 26.136 152.027 25.896 151.907 25.536C151.811 25.2 151.799 24.912 151.871 24.672C152.015 24.192 152.231 23.952 152.519 23.952C152.783 23.952 153.155 24.3 153.635 24.996C153.779 25.164 153.947 25.248 154.139 25.248C154.331 25.248 154.451 25.2 154.499 25.104C154.547 25.008 154.895 24.792 155.543 24.456C156.191 24.12 156.587 23.952 156.731 23.952C156.875 23.952 157.019 23.904 157.163 23.808C157.259 23.712 157.403 23.64 157.595 23.592C157.739 23.544 157.907 23.472 158.099 23.376C158.267 23.28 158.483 23.208 158.747 23.16C158.939 23.16 159.251 23.088 159.683 22.944C159.947 22.896 160.307 22.8 160.763 22.656ZM161.411 24.528C161.219 24.384 160.523 24.432 159.323 24.672C158.939 24.744 158.387 24.948 157.667 25.284C156.947 25.596 156.455 25.848 156.191 26.04C156.119 26.136 156.035 26.184 155.939 26.184C155.795 26.256 155.603 26.4 155.363 26.616C155.123 26.832 155.003 27 155.003 27.12C154.955 27.216 154.955 27.384 155.003 27.624C155.051 27.864 155.099 28.104 155.147 28.344C155.195 28.584 155.255 28.764 155.327 28.884C155.399 29.052 155.471 29.28 155.543 29.568C155.615 30.048 155.759 30.288 155.975 30.288C156.047 30.288 156.155 30.24 156.299 30.144C156.395 30.024 156.503 29.952 156.623 29.928C156.767 29.88 156.911 29.808 157.055 29.712C157.223 29.568 157.355 29.496 157.451 29.496C157.643 29.496 158.015 29.244 158.567 28.74C159.143 28.236 159.695 27.672 160.223 27.048C160.775 26.424 161.123 25.944 161.267 25.608C161.459 25.2 161.555 24.948 161.555 24.852C161.579 24.732 161.531 24.624 161.411 24.528Z" fill="#C2C8D6"/>
</g>
<defs>
<filter id="filter0_f_65_23" x="0.323975" y="1.052" width="168.039" height="36.368" filterUnits="userSpaceOnUse" color-interpolation-filters="sRGB">
<feFlood flood-opacity="0" result="BackgroundImageFix"/>
<feBlend mode="normal" in="SourceGraphic" in2="BackgroundImageFix" result="shape"/>
<feGaussianBlur stdDeviation="2" result="effect1_foregroundBlur_65_23"/>
</filter>
</defs>
</svg>
