<svg width="128" height="153" viewBox="0 0 128 153" fill="none" xmlns="http://www.w3.org/2000/svg">
<path d="M39.9717 120.5L64.5 152.183L89.0283 120.5H39.9717Z" fill="#E72D5A" stroke="black"/>
<path d="M127.5 64C127.5 99.0701 99.0701 127.5 64 127.5C28.9299 127.5 0.5 99.0701 0.5 64C0.5 28.9299 28.9299 0.5 64 0.5C99.0701 0.5 127.5 28.9299 127.5 64Z" fill="#E72D5A" stroke="black"/>
<path opacity="0.5" d="M97.6002 93.4998C97.6002 93.0998 97.2002 92.6998 96.6002 92.5998L94.7002 92.2998C94.2002 92.1998 93.6002 91.6998 93.6002 91.1998L93.3002 89.2998C93.2002 88.7998 92.8002 88.2998 92.4002 88.2998C92.0002 88.2998 91.6002 88.6998 91.5002 89.2998L91.2002 91.1998C91.1002 91.6998 90.6002 92.2998 90.1002 92.2998L88.2002 92.5998C87.7002 92.6998 87.2002 93.0998 87.2002 93.4998C87.2002 93.8998 87.6002 94.2998 88.2002 94.3998L90.1002 94.6998C90.6002 94.7998 91.2002 95.2998 91.2002 95.7998L91.5002 97.6998C91.6002 98.1998 92.0002 98.6998 92.4002 98.6998C92.8002 98.6998 93.2002 98.2998 93.3002 97.6998L93.6002 95.5998C93.7002 95.0998 94.2002 94.5998 94.7002 94.4998L96.5002 94.3998C97.1002 94.1998 97.6002 93.8998 97.6002 93.4998Z" fill="white"/>
<path opacity="0.5" d="M20.2 74.2C20.2 73.8 19.8 73.4 19.2 73.3L17.4 73C16.9 72.9 16.3 72.4 16.3 71.9L16 70C15.9 69.5 15.5 69 15.1 69C14.7 69 14.3 69.4 14.2 70L14 71.9C13.9 72.4 13.4 73 12.9 73L11 73.3C10.5 73.4 10 73.8 10 74.2C10 74.6 10.4 75 11 75.1L12.9 75.4C13.4 75.5 14 76 14 76.5L14.3 78.4C14.4 78.9 14.8 79.4 15.2 79.4C15.6 79.4 16 79 16.1 78.4L16.4 76.3C16.5 75.8 17 75.3 17.5 75.2L19.3 75.1C19.8 74.9 20.2 74.6 20.2 74.2Z" fill="white"/>
<path opacity="0.5" d="M103.5 31.7996C103.5 31.3996 103.1 30.9996 102.5 30.8996L100.6 30.5996C100.1 30.4996 99.4996 29.9996 99.4996 29.4996L99.1996 27.5996C99.0996 27.0996 98.6996 26.5996 98.2996 26.5996C97.8996 26.5996 97.4996 26.9996 97.3996 27.5996L97.0996 29.4996C96.9996 29.9996 96.4996 30.5996 95.9996 30.5996L94.0996 30.8996C93.5996 30.9996 93.0996 31.3996 93.0996 31.7996C93.0996 32.1996 93.4996 32.5996 94.0996 32.6996L95.9996 32.9996C96.4996 33.0996 97.0996 33.5996 97.0996 34.0996L97.3996 35.9996C97.4996 36.4996 97.8996 36.9996 98.2996 36.9996C98.6996 36.9996 99.0996 36.5996 99.1996 35.9996L99.4996 33.8996C99.5996 33.3996 100.1 32.8996 100.6 32.7996L102.4 32.6996C103.1 32.5996 103.5 32.1996 103.5 31.7996Z" fill="white"/>
<path opacity="0.5" d="M38 102C35.8 102 34 100.2 34 98C34 95.8 35.8 94 38 94C40.2 94 42 95.8 42 98C42 100.2 40.2 102 38 102ZM38 95.9C36.8 95.9 35.9 96.9 35.9 98C35.9 99.2 36.9 100.1 38 100.1C39.2 100.1 40.1 99.1 40.1 98C40.1 96.8 39.2 95.9 38 95.9Z" fill="white"/>
<path opacity="0.5" d="M110 63C107.8 63 106 61.2 106 59C106 56.8 107.8 55 110 55C112.2 55 114 56.8 114 59C114 61.2 112.2 63 110 63ZM110 56.9C108.8 56.9 107.9 57.9 107.9 59C107.9 60.2 108.9 61.1 110 61.1C111.2 61.1 112.1 60.1 112.1 59C112.1 57.8 111.2 56.9 110 56.9Z" fill="white"/>
<path opacity="0.5" d="M28 51C25.8 51 24 49.2 24 47C24 44.8 25.8 43 28 43C30.2 43 32 44.8 32 47C32 49.2 30.2 51 28 51ZM28 44.9C26.8 44.9 25.9 45.9 25.9 47C25.9 48.2 26.9 49.1 28 49.1C29.2 49.1 30.1 48.1 30.1 47C30.1 45.8 29.2 44.9 28 44.9Z" fill="white"/>
<path d="M63.6999 70.6C52.2999 70.6 44.3 59.4 42.3 45C41.9 48.9 41.8 52.6 42.2 55.9C43.9 70.7 51.9999 82.5 63.6999 82.5C75.3999 82.5 83.9999 70.4 85.1999 55.9C85.4999 52.8 85.3 49.4 85 45.9C83.2 59.5 74.8999 70.6 63.6999 70.6Z" fill="#FCD9D7"/>
<path opacity="0.4" d="M85.1001 55.0998C86.4001 40.2998 78.7001 16.2998 78.7001 16.2998H48.6001C48.6001 16.2998 40.3001 40.2998 42.0001 55.0998C43.5001 68.3998 50.0001 79.0998 60.0001 81.1998V114.3C60.0001 114.3 57.2001 116.2 53.6001 117C50.0001 117.8 47.0001 117.9 47.0001 117.9V122.3H80.0001V117.9C80.0001 117.9 76.1001 117.7 73.0001 116.9C69.5001 116 67.0001 114.2 67.0001 114.2V81.1998C77.0001 78.9998 84.0001 68.0998 85.1001 55.0998Z" fill="white"/>
<path d="M43 35.3002C41.8 41.3002 41.5 48.5002 42.2 54.1002C43.9 68.9002 52 80.6002 63.7 80.6002C75.4 80.6002 84 68.6002 85.2 54.1002C85.7 48.5002 85.2 41.2002 84 35.2002H43V35.3002Z" fill="#FCD9D7"/>
<path d="M80 123.3H47C46.4 123.3 46 122.9 46 122.3V117.9C46 117.3 46.4 116.9 47 116.9C47 116.9 49.9 116.9 53.4 116.1C56 115.5 58.1 114.3 59 113.8V81.9998C49.5 79.5998 42.6 69.4998 41 55.2998V47.2998C41.9 33.1998 47.4 16.7998 47.7 15.9998C47.8 15.5998 48.2 15.2998 48.6 15.2998H78.7C79.1 15.2998 79.5 15.5998 79.7 15.9998C80 16.8998 85.9 36.4998 86 51.2998V55.2998C84.8 68.7998 77.7 79.3998 68 81.8998V113.6C68.8 114.1 70.8 115.2 73.2 115.8C76.2 116.6 80 116.8 80 116.8C80.5 116.8 80.9 117.3 80.9 117.8V122.2C81 122.9 80.6 123.3 80 123.3ZM48 121.3H79V118.8C77.6 118.7 75 118.4 72.8 117.8C69.2 116.9 66.6 115.1 66.5 115C66.2 114.8 66.1 114.5 66.1 114.2V81.1998C66.1 80.6998 66.4 80.2998 66.9 80.1998C76.1 78.1998 83.1 68.0998 84.2 55.0998C85.2 41.8998 79.2 21.2998 78 17.2998H49.4C48.1 21.2998 41.6 41.9998 43.1 54.9998C44.7 68.6998 51.3 78.2998 60.3 80.1998C60.8 80.2998 61.1 80.6998 61.1 81.1998V114.3C61.1 114.6 60.9 114.9 60.7 115.1C60.6 115.2 57.8 117.1 54 118C51.5 118.6 49.3 118.8 48.1 118.9V121.3H48Z" fill="#3F133D"/>
<path d="M79.1999 48.9001C78.6999 48.9001 78.1999 48.5001 78.1999 48.0001C77.1999 32.3001 73.3 21.4001 73.3 21.3001C73.1 20.8001 73.3999 20.2001 73.8999 20.0001C74.3999 19.8001 74.9999 20.1001 75.1999 20.6001C75.1999 20.7001 79.3 31.9001 80.3 47.9001C80.3 48.4001 79.8999 48.8001 79.1999 48.9001C79.2999 48.9001 79.2999 48.9001 79.1999 48.9001Z" fill="white"/>
<path d="M47.2002 52.3002C46.6002 52.3002 46.2002 51.7002 46.2002 51.2002C46.4002 46.0002 47.1002 39.6002 48.4002 32.2002C48.5002 31.7002 49.0002 31.3002 49.6002 31.4002C50.1002 31.5002 50.5002 32.0002 50.4002 32.5002C49.1002 39.8002 48.4002 46.1002 48.2002 51.3002C48.2002 51.8002 47.8002 52.3002 47.2002 52.3002Z" fill="white"/>
<path d="M50.4002 28.1003C50.3002 28.1003 50.3002 28.1003 50.2002 28.1003C49.7002 28.0003 49.3002 27.5003 49.4002 26.9003C50.1002 23.1003 50.7002 20.7003 50.7002 20.6003C50.8002 20.1003 51.4002 19.7003 51.9002 19.9003C52.4002 20.0003 52.8002 20.6003 52.6002 21.1003C52.6002 21.1003 52.0002 23.6003 51.3002 27.3003C51.3002 27.8003 50.9002 28.1003 50.4002 28.1003Z" fill="white"/>
<path d="M64 78.2999C63.5 78.2999 63 77.7999 63 77.2999C63 76.7999 63.4 76.1999 63.9 76.1999C64.1 76.1999 69 75.7999 73.4 69.7999C73.7 69.3999 74.4 69.1999 74.8 69.5999C75.2 69.8999 75.3 70.5999 75 71.0999C70.1 77.8999 64.3 78.2999 64 78.2999Z" fill="white"/>
<path d="M71.0002 119.899C66.2002 119.599 64.5002 117.099 64.4002 116.999C64.1002 116.499 64.2002 115.899 64.7002 115.599C65.2002 115.299 65.8002 115.399 66.1002 115.899C66.2002 115.999 67.5002 117.799 71.1002 117.999C71.7002 117.999 72.1002 118.499 72.0002 119.099C72.0002 119.499 71.5002 119.899 71.0002 119.899Z" fill="white"/>
<path d="M64 110.3C63.4 110.3 63 109.9 63 109.3V85.2998C63 84.6998 63.4 84.2998 64 84.2998C64.6 84.2998 65 84.6998 65 85.2998V109.3C65 109.9 64.6 110.3 64 110.3Z" fill="white"/>
<path d="M82.3004 15.7C82.3004 15.3 81.9004 14.9 81.3004 14.8L76.5004 14C76.0004 13.9 75.4004 13.4 75.3004 12.8L74.5004 8C74.4004 7.5 74.0004 7 73.6004 7C73.2004 7 72.8004 7.4 72.7004 8L71.9004 12.8C71.8004 13.3 71.3004 13.9 70.7004 14L65.9004 14.8C65.4004 14.9 64.9004 15.3 64.9004 15.7C64.9004 16.1 65.3004 16.5 65.9004 16.6L70.6004 17.2C71.1004 17.3 71.7004 17.8 71.8004 18.3L72.7004 23.3C72.8004 23.8 73.2004 24.3 73.6004 24.3C74.0004 24.3 74.4004 23.9 74.5004 23.3L75.4004 18.2C75.5004 17.7 76.0004 17.2 76.6004 17.1L81.3004 16.5C81.9004 16.6 82.3004 16.2 82.3004 15.7Z" fill="white"/>
</svg>
