<svg width="40" height="45" viewBox="0 0 40 45" fill="none" xmlns="http://www.w3.org/2000/svg">
<path d="M10 24.75H30V20.25H10V24.75ZM10 15.75H30V11.25H10V15.75ZM22.5 33.75H30V29.25H22.5V33.75ZM37.775 0C36.205 0.0133055 34.6775 0.461064 33.4 1.2825C32.9566 1.60201 32.4055 1.77609 31.8375 1.77609C31.2695 1.77609 30.7184 1.60201 30.275 1.2825C29 0.458369 27.4698 0.0150719 25.9 0.0150719C24.3302 0.0150719 22.8 0.458369 21.525 1.2825C21.0835 1.58492 20.5535 1.76478 20 1.8C19.4553 1.77781 18.9315 1.60495 18.5 1.305C17.2231 0.463001 15.6829 0.00620143 14.1 0C12.5284 0.00438935 10.998 0.453008 9.725 1.2825C9.28159 1.60201 8.73051 1.77609 8.1625 1.77609C7.59449 1.77609 7.04341 1.60201 6.6 1.2825C5.32245 0.461064 3.79501 0.0133055 2.225 0H0V45H2.225C3.79501 44.9867 5.32245 44.5389 6.6 43.7175C7.04341 43.398 7.59449 43.2239 8.1625 43.2239C8.73051 43.2239 9.28159 43.398 9.725 43.7175C11 44.5416 12.5302 44.9849 14.1 44.9849C15.6698 44.9849 17.2 44.5416 18.475 43.7175C18.9165 43.4151 19.4465 43.2352 20 43.2C20.5447 43.2222 21.0685 43.395 21.5 43.695C22.7631 44.528 24.2842 44.9844 25.85 45C27.4216 44.9956 28.952 44.547 30.225 43.7175C30.6684 43.398 31.2195 43.2239 31.7875 43.2239C32.3555 43.2239 32.9066 43.398 33.35 43.7175C34.6275 44.5389 36.155 44.9867 37.725 45H40V0H37.775ZM35 39.375C33.7992 38.8754 32.4729 38.6705 31.1557 38.7811C29.8386 38.8918 28.5773 39.314 27.5 40.005C27.0523 40.3097 26.511 40.4826 25.95 40.5C25.4033 40.4871 24.8764 40.3132 24.45 40.005C23.1593 39.1539 21.6 38.6967 20 38.7C18.4201 38.7225 16.8852 39.1777 15.6 40.005C15.1586 40.3189 14.6125 40.4896 14.05 40.4896C13.4875 40.4896 12.9414 40.3189 12.5 40.005C11.4227 39.314 10.1614 38.8918 8.84425 38.7811C7.52707 38.6705 6.2008 38.8754 5 39.375V5.625C5.98286 6.05375 7.05792 6.28412 8.15 6.3C9.71279 6.26845 11.2287 5.81367 12.5 4.995C12.9615 4.68139 13.5218 4.50804 14.1 4.5C14.6467 4.5129 15.1736 4.68678 15.6 4.995C16.8769 5.837 18.4171 6.2938 20 6.3C21.5799 6.27751 23.1148 5.82229 24.4 4.995C24.8414 4.6811 25.3875 4.51035 25.95 4.51035C26.5125 4.51035 27.0586 4.6811 27.5 4.995C28.7852 5.82229 30.3201 6.27751 31.9 6.3C32.9752 6.27763 34.0324 6.04743 35 5.625V39.375Z" fill="white"/>
</svg>
