<svg width="24" height="20" viewBox="0 0 24 20" fill="none" xmlns="http://www.w3.org/2000/svg">
<path d="M18.1991 12.81C17.8137 12.6434 17.4113 12.5193 16.9991 12.44C16.7205 12.3749 16.4466 12.2914 16.1791 12.19C16.0197 12.1344 15.8758 12.0418 15.7591 11.92C15.6694 11.8142 15.6229 11.6785 15.6291 11.54C15.6236 11.4396 15.6447 11.3395 15.6904 11.25C15.7361 11.1604 15.8046 11.0845 15.8891 11.03C16.1062 10.9008 16.3566 10.8382 16.6091 10.85C16.8549 10.8409 17.0981 10.9035 17.3091 11.03C17.3928 11.0774 17.4655 11.142 17.5223 11.2196C17.5792 11.2971 17.619 11.3859 17.6391 11.48C17.658 11.5272 17.6915 11.5672 17.7346 11.5941C17.7777 11.6211 17.8283 11.6336 17.8791 11.63H18.6691C18.6931 11.6314 18.7171 11.6278 18.7396 11.6193C18.7621 11.6107 18.7826 11.5975 18.7996 11.5805C18.8166 11.5635 18.8298 11.5431 18.8383 11.5206C18.8469 11.4981 18.8505 11.474 18.8491 11.45C18.8305 11.2247 18.7547 11.0079 18.6291 10.82C18.4773 10.5884 18.2757 10.3937 18.0391 10.25C17.7558 10.0775 17.4385 9.96835 17.1091 9.92999V9.33999C17.1105 9.31334 17.1063 9.28669 17.0968 9.26178C17.0872 9.23686 17.0726 9.21423 17.0537 9.19536C17.0348 9.17649 17.0122 9.16181 16.9873 9.15227C16.9624 9.14273 16.9357 9.13854 16.9091 9.13999H16.3891C16.3377 9.13805 16.2876 9.15595 16.2491 9.18999C16.2287 9.20904 16.2127 9.23237 16.2023 9.25829C16.192 9.28422 16.1874 9.31211 16.1891 9.33999V9.91999C15.7104 9.95697 15.2572 10.1502 14.8991 10.47C14.7475 10.6098 14.6272 10.78 14.5462 10.9696C14.4652 11.1592 14.4253 11.3638 14.4291 11.57C14.4164 11.7763 14.4513 11.9828 14.531 12.1735C14.6108 12.3642 14.7333 12.5341 14.8891 12.67C15.3167 12.9817 15.8088 13.1935 16.3291 13.29C16.7224 13.3967 17.0224 13.4867 17.2291 13.56C17.3992 13.6129 17.556 13.7015 17.6891 13.82C17.7389 13.8696 17.778 13.9289 17.8038 13.9943C17.8296 14.0597 17.8416 14.1297 17.8391 14.2C17.8417 14.3086 17.8152 14.4158 17.7625 14.5108C17.7097 14.6057 17.6326 14.6848 17.5391 14.74C17.2743 14.8889 16.9723 14.9583 16.6691 14.94C16.3865 14.9548 16.1055 14.8889 15.8591 14.75C15.6759 14.6418 15.5375 14.4715 15.4691 14.27C15.4442 14.2237 15.4101 14.1828 15.3691 14.15C15.3201 14.1358 15.2681 14.1358 15.2191 14.15H14.4691C14.4452 14.1493 14.4214 14.1533 14.399 14.1619C14.3767 14.1705 14.3563 14.1834 14.3391 14.2C14.3072 14.2318 14.2892 14.2749 14.2891 14.32C14.3018 14.5774 14.3848 14.8264 14.5291 15.04C14.6946 15.2814 14.9181 15.4773 15.1791 15.61C15.4902 15.7711 15.83 15.8696 16.1791 15.9V16.48C16.1774 16.5079 16.182 16.5358 16.1923 16.5617C16.2027 16.5876 16.2187 16.6109 16.2391 16.63C16.2776 16.664 16.3277 16.6819 16.3791 16.68H16.8991C16.9257 16.6814 16.9524 16.6772 16.9773 16.6677C17.0022 16.6582 17.0248 16.6435 17.0437 16.6246C17.0626 16.6057 17.0772 16.5831 17.0868 16.5582C17.0963 16.5333 17.1005 16.5066 17.0991 16.48V15.9C17.6138 15.8709 18.1066 15.6822 18.5091 15.36C18.6791 15.2153 18.8143 15.034 18.9043 14.8296C18.9944 14.6252 19.037 14.4032 19.0291 14.18C19.0402 13.8952 18.9671 13.6135 18.8191 13.37C18.6679 13.1298 18.4534 12.936 18.1991 12.81Z" fill="white"/>
<path d="M16.67 6.24H14.12V3.67C14.12 3.53739 14.0673 3.41021 13.9736 3.31645C13.8798 3.22268 13.7526 3.17 13.62 3.17H13V0.5C13 0.367392 12.9473 0.240215 12.8536 0.146447C12.7598 0.0526784 12.6326 0 12.5 0L0.5 0C0.367392 0 0.240215 0.0526784 0.146447 0.146447C0.0526784 0.240215 0 0.367392 0 0.5L0 3.57C0 3.63566 0.0129329 3.70068 0.0380602 3.76134C0.0631876 3.822 0.100017 3.87712 0.146447 3.92355C0.192876 3.96998 0.247995 4.00681 0.308658 4.03194C0.369321 4.05707 0.434339 4.07 0.5 4.07H1.16V6.74C1.16 6.87261 1.21268 6.99979 1.30645 7.09355C1.40021 7.18732 1.52739 7.24 1.66 7.24H2.16V9.32H0.66C0.527392 9.32 0.400215 9.37268 0.306447 9.46645C0.212678 9.56022 0.16 9.68739 0.16 9.82V19C0.16 19.1326 0.212678 19.2598 0.306447 19.3536C0.400215 19.4473 0.527392 19.5 0.66 19.5H12.66C12.7926 19.5 12.9198 19.4473 13.0136 19.3536C13.1073 19.2598 13.16 19.1326 13.16 19V18.49C14.0335 19.0554 15.0272 19.4083 16.0617 19.5204C17.0961 19.6324 18.1424 19.5006 19.1167 19.1354C20.0909 18.7702 20.9661 18.1818 21.672 17.4174C22.3779 16.653 22.8948 15.7338 23.1814 14.7336C23.468 13.7334 23.5163 12.6799 23.3223 11.6576C23.1284 10.6354 22.6976 9.67283 22.0646 8.84708C21.4315 8.02134 20.6138 7.3554 19.677 6.90266C18.7402 6.44991 17.7103 6.22296 16.67 6.24ZM1 1H12V3.07H1V1ZM2.16 4.17H13.16V6.24H2.16V4.17ZM3.16 7.24H13.16C12.315 7.76549 11.5976 8.47261 11.06 9.31H3.16V7.24ZM10.16 15.46H1.16V13.39H10C10.0505 14.1019 10.216 14.801 10.49 15.46H10.16ZM1.16 10.31H10.53C10.2526 10.9684 10.0837 11.6675 10.03 12.38H1.16V10.31ZM12.16 18.53H1.16V16.46H11.05C11.351 16.9333 11.7105 17.3667 12.12 17.75L12.16 18.53ZM16.71 18.53C15.7195 18.531 14.7462 18.2711 13.888 17.7765C13.0299 17.2819 12.3171 16.57 11.8214 15.7124C11.3257 14.8549 11.0646 13.8819 11.0644 12.8914C11.0641 11.9009 11.3247 10.9278 11.82 10.07C11.8398 10.0418 11.8565 10.0117 11.87 9.98C12.3783 9.13604 13.0989 8.43996 13.9599 7.96108C14.8209 7.4822 15.7924 7.23721 16.7775 7.25052C17.7626 7.26383 18.7271 7.53497 19.5749 8.03694C20.4226 8.53891 21.1241 9.2542 21.6095 10.1116C22.0948 10.969 22.3471 11.9385 22.3412 12.9238C22.3353 13.909 22.0714 14.8754 21.5759 15.727C21.0803 16.5785 20.3703 17.2853 19.5166 17.7771C18.6629 18.2689 17.6952 18.5285 16.71 18.53Z" fill="white"/>
</svg>
