<svg width="50" height="58" viewBox="0 0 50 58" fill="none" xmlns="http://www.w3.org/2000/svg">
<path d="M39.2857 0C45.2009 0 50 4.79687 50 10.7143V39.2857C50 44.5424 46.0714 49.0737 40.9487 49.8772L46.0826 55.0112C46.8638 55.7924 46.3058 57.1429 45.1004 57.1429H40.7701C39.8214 57.1429 38.9063 56.7634 38.2366 56.0938L32.1429 50H17.8571L11.7634 56.0938C11.0904 56.7634 10.1819 57.1429 9.23549 57.1429H4.80357C3.68973 57.1429 3.1317 55.7924 3.91964 55.0112L9.0558 49.8772C3.92634 49.0737 0 44.5424 0 39.2857V10.7143C0 4.79687 4.79687 0 10.7143 0H39.2857ZM7.14286 25C7.14286 26.9754 8.74219 28.5714 10.7143 28.5714H19.6429C21.6183 28.5714 23.2143 26.9754 23.2143 25V14.2857C23.2143 12.3103 21.6183 10.7143 19.6429 10.7143H10.7143C8.74219 10.7143 7.14286 12.3103 7.14286 14.2857V25ZM30.3571 10.7143C28.3817 10.7143 26.7857 12.3103 26.7857 14.2857V25C26.7857 26.9754 28.3817 28.5714 30.3571 28.5714H39.2857C41.2612 28.5714 42.8571 26.9754 42.8571 25V14.2857C42.8571 12.3103 41.2612 10.7143 39.2857 10.7143H30.3571ZM10.7143 35.7143C8.74219 35.7143 7.14286 37.3103 7.14286 39.2857C7.14286 41.2612 8.74219 42.8571 10.7143 42.8571C12.6897 42.8571 14.2857 41.2612 14.2857 39.2857C14.2857 37.3103 12.6897 35.7143 10.7143 35.7143ZM39.2857 42.8571C41.2612 42.8571 42.8571 41.2612 42.8571 39.2857C42.8571 37.3103 41.2612 35.7143 39.2857 35.7143C37.3103 35.7143 35.7143 37.3103 35.7143 39.2857C35.7143 41.2612 37.3103 42.8571 39.2857 42.8571Z" fill="#0F1A25"/>
</svg>
