<svg width="512" height="512" viewBox="0 0 512 512" fill="none" xmlns="http://www.w3.org/2000/svg">
<path d="M256 0C114.6 0 0 114.6 0 256C0 397.4 114.6 512 256 512C397.4 512 512 397.4 512 256C512 114.6 397.4 0 256 0ZM371.8 211.8L243.8 339.8C238.3 345.3 231.2 348 224 348C216.8 348 209.66 345.281 204.19 339.812L140.19 275.812C129.28 264.872 129.28 247.122 140.19 236.182C151.13 225.242 168.88 225.242 179.82 236.182L224 280.4L332.2 172.2C343.14 161.26 360.89 161.26 371.83 172.2C382.7 183.1 382.7 200.9 371.8 211.8Z" fill="#264361"/>
</svg>
